<svg width="200" height="200" viewBox="0 0 200 200" fill="none" xmlns="http://www.w3.org/2000/svg">
<g opacity="0.2">
<path d="M176.762 18.8716H119.676C117.974 18.8716 116.593 20.2519 116.593 21.9546V23.5213C116.593 25.224 117.974 26.6043 119.676 26.6043H176.762C178.465 26.6043 179.845 25.224 179.845 23.5213V21.9546C179.845 20.2519 178.465 18.8716 176.762 18.8716Z" stroke="black" stroke-linejoin="round"/>
<path d="M170.092 20.6565V24.2729" stroke="black" stroke-width="0.5" stroke-linejoin="round"/>
<path d="M167.282 20.6902L163.892 24.0798" stroke="black" stroke-linejoin="round"/>
<path d="M163.892 20.6902L167.282 24.0798" stroke="black" stroke-linejoin="round"/>
<path d="M176.015 24.1763C175.991 24.2075 175.96 24.2334 175.925 24.2522C175.89 24.271 175.852 24.2824 175.812 24.2855C175.773 24.2887 175.733 24.2836 175.696 24.2706C175.658 24.2576 175.624 24.2369 175.595 24.2099L174.205 22.9498L174.469 22.6348L175.96 23.7772C176.02 23.8231 176.06 23.8907 176.07 23.9655C176.08 24.0403 176.06 24.116 176.015 24.1763Z" fill="#604697" stroke="black" stroke-linejoin="round"/>
<path d="M172.445 21.211C172.28 21.411 172.178 21.6553 172.153 21.913C172.127 22.1707 172.178 22.4303 172.299 22.659C172.421 22.8876 172.608 23.0751 172.836 23.1978C173.064 23.3205 173.323 23.3728 173.581 23.3482C173.839 23.3236 174.084 23.2232 174.284 23.0595C174.485 22.8959 174.633 22.6765 174.709 22.4289C174.785 22.1814 174.786 21.9168 174.712 21.6687C174.638 21.4205 174.492 21.1999 174.293 21.0346C174.16 20.924 174.007 20.8408 173.842 20.7898C173.677 20.7388 173.504 20.721 173.332 20.7374C173.16 20.7538 172.993 20.8041 172.841 20.8854C172.688 20.9667 172.554 21.0773 172.445 21.211ZM174.322 22.7609C174.181 22.9319 173.992 23.0572 173.78 23.121C173.567 23.1847 173.341 23.184 173.129 23.1191C172.917 23.0541 172.729 22.9277 172.588 22.7558C172.448 22.584 172.362 22.3745 172.341 22.1537C172.32 21.9329 172.365 21.7109 172.47 21.5156C172.575 21.3202 172.735 21.1605 172.931 21.0564C173.127 20.9524 173.349 20.9087 173.57 20.931C173.791 20.9533 174 21.0405 174.171 21.1816C174.285 21.2754 174.379 21.3906 174.448 21.5207C174.517 21.6508 174.56 21.7933 174.574 21.9399C174.588 22.0866 174.573 22.2346 174.53 22.3755C174.486 22.5163 174.416 22.6473 174.322 22.7609Z" stroke="black" stroke-linejoin="round"/>
</g>
<path d="M58.155 32.8542C58.0268 33.0092 57.8688 33.1369 57.6904 33.2298C57.5119 33.3227 57.3167 33.3788 57.1161 33.3949C56.9156 33.4109 56.7139 33.3866 56.5229 33.3233C56.332 33.26 56.1557 33.159 56.0045 33.0264L49.2168 26.8519C49.5004 26.6068 49.7631 26.3384 50.0022 26.0497C50.2427 25.7647 50.4564 25.4582 50.6407 25.134L57.9198 30.7078C58.0788 30.8314 58.2113 30.9857 58.3096 31.1615C58.4078 31.3373 58.4697 31.531 58.4917 31.7312C58.5136 31.9314 58.4951 32.1339 58.4373 32.3268C58.3794 32.5197 58.2835 32.6991 58.155 32.8542Z" stroke="#CCCCCC" stroke-linejoin="round"/>
<path d="M49.0611 16.3598C49.8899 17.0209 50.5505 17.8686 50.989 18.8338C51.4382 19.841 51.6394 20.9412 51.5758 22.0422C51.5122 23.1432 51.1857 24.2129 50.6236 25.1617C50.0615 26.1105 49.2802 26.9108 48.3451 27.4955C47.4101 28.0803 46.3485 28.4324 45.2494 28.5224C44.1502 28.6124 43.0455 28.4376 42.0278 28.0128C41.0101 27.588 40.109 26.9254 39.4001 26.0807C38.6911 25.2359 38.1949 24.2335 37.9531 23.1576C37.7113 22.0816 37.7309 20.9633 38.0102 19.8964C38.2991 18.7741 38.868 17.7433 39.6635 16.9004C40.4591 16.0576 41.4553 15.4302 42.5592 15.0769C43.663 14.7237 44.8384 14.656 45.9755 14.8804C47.1125 15.1047 48.1742 15.6137 49.0611 16.3598ZM49.2165 25.4156C48.4714 26.315 47.4763 26.9732 46.3571 27.307C45.2379 27.6409 44.0448 27.6354 42.9288 27.2912C41.8127 26.947 40.8237 26.2797 40.0869 25.3735C39.3501 24.4673 38.8985 23.363 38.7893 22.2002C38.6801 21.0374 38.9181 19.8683 39.4732 18.8407C40.0284 17.8132 40.8758 16.9733 41.9082 16.4273C42.9407 15.8813 44.1118 15.6537 45.2736 15.7733C46.4354 15.8928 47.5357 16.3542 48.4353 17.0991C49.0332 17.5934 49.5278 18.2009 49.8908 18.8866C50.2537 19.5723 50.4779 20.3229 50.5505 21.0953C50.623 21.8678 50.5426 22.647 50.3137 23.3883C50.0848 24.1296 49.7119 24.8185 49.2165 25.4156Z" stroke="#CCCCCC" stroke-linejoin="round"/>
<path d="M157.773 184.993C157.662 184.874 157.577 184.735 157.521 184.583C157.466 184.43 157.442 184.269 157.45 184.107C157.458 183.945 157.499 183.787 157.569 183.641C157.64 183.495 157.739 183.365 157.861 183.258L163.502 178.482C163.668 178.735 163.854 178.972 164.061 179.192C164.263 179.415 164.485 179.619 164.724 179.801L159.512 185.035C159.396 185.149 159.259 185.239 159.108 185.299C158.957 185.359 158.796 185.388 158.633 185.384C158.471 185.381 158.311 185.344 158.163 185.277C158.015 185.209 157.882 185.113 157.773 184.993Z" stroke="#CCCCCC" stroke-linejoin="round"/>
<path d="M171.903 179.465C171.284 180.049 170.538 180.481 169.723 180.725C168.385 181.141 166.941 181.049 165.667 180.467C164.392 179.885 163.377 178.854 162.816 177.57C162.254 176.287 162.185 174.842 162.621 173.511C163.058 172.18 163.97 171.056 165.183 170.355C166.396 169.654 167.824 169.425 169.196 169.711C170.567 169.996 171.785 170.778 172.616 171.905C173.448 173.032 173.835 174.427 173.703 175.821C173.572 177.216 172.931 178.513 171.903 179.465ZM164.649 178.65C164.008 177.961 163.585 177.097 163.435 176.167C163.285 175.238 163.414 174.285 163.806 173.429C164.198 172.572 164.835 171.852 165.636 171.358C166.438 170.864 167.368 170.619 168.309 170.653C169.249 170.688 170.159 171.001 170.922 171.553C171.685 172.104 172.267 172.87 172.595 173.753C172.922 174.635 172.981 175.595 172.763 176.511C172.545 177.427 172.06 178.258 171.369 178.898C170.912 179.323 170.375 179.654 169.79 179.872C169.204 180.089 168.582 180.189 167.958 180.166C167.334 180.143 166.72 179.998 166.153 179.737C165.585 179.477 165.074 179.108 164.649 178.65Z" stroke="#CCCCCC" stroke-linejoin="round"/>
<g opacity="0.2">
<path d="M31.0461 169.343L21.4106 178.982" stroke="black" stroke-linejoin="round"/>
<path d="M21.4106 169.343L31.0461 178.982" stroke="black" stroke-linejoin="round"/>
</g>
<g opacity="0.2">
<path d="M191.917 78.6165L182.281 88.2561" stroke="black" stroke-linejoin="round"/>
<path d="M182.281 78.6165L191.917 88.2561" stroke="black" stroke-linejoin="round"/>
</g>
<g opacity="0.2">
<path d="M15.925 23.5925L6.28955 33.2322" stroke="black" stroke-linejoin="round"/>
<path d="M6.28955 23.5925L15.925 33.2322" stroke="black" stroke-linejoin="round"/>
</g>
<path d="M24.6742 84.5135C24.6994 84.5135 24.3172 82.9132 24.2836 82.8124C23.8635 81.6741 22.406 79.7168 21.0494 79.763C20.8245 79.7768 20.6051 79.8379 20.4055 79.9423C20.2059 80.0467 20.0305 80.1921 19.891 80.3689C19.7514 80.5457 19.6508 80.75 19.5956 80.9684C19.5404 81.1868 19.532 81.4144 19.5709 81.6363C19.7011 82.5856 20.5831 83.3711 21.3686 83.8121C22.2968 84.3287 24.67 84.5135 24.6742 84.5135Z" fill="#604697"/>
<path d="M26.9557 73.5675C25.6956 74.0673 25.1411 76.4489 25.2209 77.6585C25.2209 77.7635 25.5234 79.3848 25.5444 79.3722H25.5696C25.4814 79.7461 25.3848 80.1493 25.2924 80.5945C25.1285 81.4346 24.9521 82.3376 24.8261 83.3625C24.6776 84.4613 24.5935 85.5679 24.5741 86.6765C24.5501 87.9192 24.6344 89.1616 24.8261 90.3896C24.8281 90.4049 24.8281 90.4205 24.8261 90.4358C24.6497 90.0788 24.1121 89.1043 24.0659 89.0329C23.3644 88.0458 21.4365 86.5421 20.1428 86.9327C19.9298 87.0063 19.7346 87.1238 19.5699 87.2777C19.4053 87.4315 19.2747 87.6182 19.1868 87.8257C19.0989 88.0332 19.0556 88.2569 19.0596 88.4822C19.0637 88.7075 19.115 88.9295 19.2103 89.1337C19.5842 90.0116 20.6426 90.5366 21.5205 90.755C22.5076 90.9986 24.6833 90.5954 24.8555 90.566C25.0851 91.8103 25.3966 93.038 25.788 94.2412C26.0106 94.9427 26.2584 95.6399 26.5146 96.3414C26.3508 96.039 26.1996 95.7701 26.1744 95.7365C25.4772 94.7453 23.5492 93.2416 22.2513 93.6364C22.0385 93.7095 21.8434 93.8266 21.6787 93.98C21.5141 94.1334 21.3835 94.3198 21.2956 94.527C21.2076 94.7342 21.1643 94.9575 21.1683 95.1825C21.1723 95.4076 21.2236 95.6292 21.3189 95.8331C21.6969 96.7152 22.7554 97.236 23.6332 97.4545C24.5111 97.6729 26.3844 97.3704 26.8759 97.2822C26.9767 97.5469 27.0733 97.8157 27.1783 98.0845C27.6655 99.3446 28.1611 100.638 28.6106 101.903C28.7702 102.348 28.9088 102.793 29.0306 103.238C28.8836 102.969 28.7576 102.747 28.7366 102.713C28.0393 101.726 26.1072 100.222 24.8135 100.613C24.6001 100.686 24.4045 100.803 24.2394 100.957C24.0744 101.111 23.9436 101.298 23.8556 101.505C23.7676 101.713 23.7244 101.937 23.7288 102.162C23.7332 102.388 23.7851 102.61 23.8811 102.814C24.2549 103.692 25.3134 104.217 26.1912 104.435C27.0691 104.654 28.7618 104.377 29.3456 104.276C29.4758 104.738 29.6102 105.196 29.7152 105.649C29.7783 105.956 29.8665 106.25 29.9127 106.565C29.9589 106.88 30.0219 107.182 30.0723 107.489C30.1563 108.077 30.2445 108.686 30.3075 109.266C30.3537 109.686 30.3915 110.051 30.4335 110.438C30.2823 109.992 29.9631 109.123 29.9295 109.056C29.4213 108.131 28.6872 107.351 27.7957 106.787C27.7407 106.682 27.6775 106.581 27.6067 106.485C27.4773 106.301 27.3107 106.146 27.1178 106.031C26.9248 105.915 26.7098 105.842 26.4866 105.814C26.2633 105.787 26.0369 105.807 25.8218 105.872C25.6067 105.938 25.4077 106.048 25.2377 106.195C24.2423 107.115 24.5783 109.555 25.0865 110.639C25.1201 110.702 25.5066 111.37 25.7838 111.786L25.2125 111.122C24.8177 110.673 24.4145 110.236 23.9819 109.765L23.3224 109.102C23.1082 108.871 22.852 108.661 22.6168 108.438C22.0539 107.93 21.4617 107.447 20.8569 106.968C21.2475 106.624 22.621 105.385 23.0032 104.557C23.3854 103.73 23.6332 102.583 23.1796 101.739C23.0798 101.537 22.9386 101.359 22.7654 101.215C22.5921 101.072 22.3906 100.966 22.174 100.906C21.9573 100.845 21.7303 100.831 21.5078 100.863C21.2852 100.896 21.072 100.976 20.8821 101.096C19.7564 101.852 19.7228 104.301 20.042 105.464C20.063 105.536 20.399 106.342 20.5922 106.783C20.2268 106.498 19.8614 106.216 19.4792 105.943C18.3787 105.154 17.2446 104.385 16.1189 103.612L15.0857 102.902C15.2285 102.78 16.896 101.34 17.3202 100.411C17.6982 99.5714 17.9503 98.4415 17.4966 97.5973C17.3981 97.3939 17.2577 97.2137 17.0845 97.0685C16.9113 96.9233 16.7094 96.8165 16.4919 96.755C16.2745 96.6935 16.0465 96.6787 15.8229 96.7117C15.5994 96.7446 15.3853 96.8246 15.1949 96.9462C14.0692 97.7065 14.0356 100.151 14.3548 101.315C14.38 101.403 14.8673 102.575 15.0059 102.852C14.2456 102.327 13.498 101.798 12.7797 101.243C11.808 100.502 10.8848 99.6997 10.0159 98.8406C10.0789 98.7817 11.8262 97.2864 12.2589 96.3204C12.6369 95.4803 12.8931 94.3505 12.4395 93.5062C12.3379 93.3079 12.1961 93.1328 12.0233 92.9922C11.8505 92.8515 11.6503 92.7483 11.4355 92.6891C11.2206 92.6298 10.9959 92.6159 10.7754 92.6481C10.5548 92.6803 10.3434 92.758 10.1545 92.8762C9.03306 93.6364 8.99946 96.081 9.31448 97.2444C9.33968 97.3368 9.86472 98.5843 9.97392 98.8027C9.92352 98.7523 9.86472 98.7061 9.81851 98.6557C8.97038 97.768 8.20291 96.8065 7.52516 95.7827C7.14713 95.2241 6.81111 94.6655 6.50029 94.1026C6.85311 93.8548 8.45762 92.7165 8.94485 91.9059C9.43209 91.0952 9.78491 90.0158 9.43209 89.1253C9.35501 88.9134 9.23413 88.7201 9.07733 88.5581C8.92053 88.396 8.73133 88.2688 8.52207 88.1848C8.31282 88.1008 8.0882 88.0618 7.86287 88.0704C7.63754 88.079 7.41656 88.1351 7.21434 88.2348C6.01306 88.8649 5.71484 91.2926 5.92065 92.4855C5.92065 92.5485 6.11806 93.1954 6.26087 93.6658C6.12646 93.4138 5.97946 93.1576 5.84085 92.9182C5.36201 92.0109 5.00079 91.1498 4.65217 90.398C4.46735 89.978 4.30774 89.5579 4.16493 89.1883C4.38755 88.7683 5.25701 87.0546 5.31581 86.1305C5.37461 85.2064 5.1898 84.0598 4.47575 83.4381C4.31033 83.2849 4.1144 83.1683 3.9008 83.0961C3.68719 83.0239 3.46074 82.9977 3.23628 83.0191C3.01181 83.0405 2.79441 83.1091 2.59831 83.2204C2.40222 83.3317 2.23186 83.4832 2.09839 83.6649C1.32134 84.778 2.174 87.0714 2.90485 88.0332C2.96785 88.1172 4.11033 89.2933 4.12293 89.2933V89.2681C4.25314 89.6293 4.40015 90.0158 4.56816 90.4358C4.88318 91.2128 5.24441 92.0823 5.70224 93.0064C6.18694 94.0039 6.72826 94.973 7.32354 95.9088C7.98952 96.9529 8.74566 97.9367 9.5833 98.849L9.6127 98.8784C9.26828 98.6809 8.28541 98.1643 8.2056 98.1307C7.07573 97.6897 4.63957 97.5049 3.78271 98.5507C3.64464 98.7283 3.54544 98.9329 3.49155 99.1512C3.43766 99.3696 3.43027 99.5968 3.46988 99.8182C3.50949 100.04 3.5952 100.25 3.72145 100.436C3.8477 100.623 4.01168 100.78 4.20274 100.899C5.00079 101.424 6.17267 101.277 7.02533 100.974C7.98719 100.634 9.5791 99.101 9.70511 98.975C10.5817 99.887 11.5176 100.74 12.5067 101.529C13.0821 101.991 13.6744 102.44 14.275 102.881C13.9684 102.717 13.6954 102.579 13.6576 102.562C12.5277 102.121 10.0915 101.932 9.23467 102.982C9.09661 103.16 8.99741 103.364 8.94351 103.583C8.88962 103.801 8.88224 104.028 8.92185 104.25C8.96145 104.471 9.04716 104.682 9.17341 104.868C9.29967 105.054 9.46364 105.211 9.6547 105.33C10.4528 105.855 11.6246 105.708 12.4773 105.406C13.3299 105.103 14.7748 103.843 15.1487 103.507C15.3839 103.675 15.6107 103.843 15.8459 104.007C16.959 104.805 18.0763 105.595 19.1473 106.401C19.5254 106.687 19.8866 106.981 20.2478 107.275C19.979 107.132 19.7522 107.014 19.7144 107.002C18.5845 106.561 16.1483 106.372 15.2915 107.422C15.1533 107.6 15.0541 107.805 15.0002 108.023C14.9462 108.242 14.9388 108.469 14.9784 108.691C15.018 108.913 15.1037 109.124 15.23 109.31C15.3563 109.497 15.5203 109.655 15.7115 109.774C16.5138 110.299 17.6814 110.152 18.5341 109.849C19.3868 109.547 20.6342 108.384 21.0795 107.976C21.4407 108.287 21.8061 108.598 22.1421 108.917C22.369 109.14 22.6 109.337 22.8142 109.576C23.0284 109.816 23.2342 110.03 23.4568 110.257C23.8517 110.702 24.2591 111.164 24.6329 111.609C24.8933 111.916 25.1369 112.214 25.3848 112.517C25.0109 112.227 24.2675 111.677 24.2003 111.643C23.1544 111.034 20.7728 110.48 19.7648 111.391C19.6022 111.547 19.4741 111.735 19.389 111.943C19.3039 112.152 19.2636 112.376 19.2707 112.601C19.2779 112.826 19.3323 113.047 19.4304 113.249C19.5286 113.452 19.6682 113.632 19.8404 113.777C20.5502 114.419 21.7305 114.449 22.6168 114.281C23.5954 114.092 25.3344 112.874 25.557 112.722C25.977 113.218 26.3508 113.71 26.712 114.176C27.1867 114.785 27.6235 115.364 28.0141 115.902C28.2745 115.86 28.5896 115.801 28.9592 115.734C28.4804 115.104 27.9427 114.415 27.3421 113.676C26.9221 113.168 26.502 112.634 26.019 112.088C26.4608 111.567 26.8731 111.022 27.2539 110.454C28.2157 110.795 30.1941 110.744 30.4587 110.736C30.5217 111.374 30.5763 111.996 30.6183 112.584C30.6939 113.6 30.7485 114.529 30.7821 115.356L31.6222 115.154C31.5676 114.361 31.5004 113.474 31.408 112.517C31.345 111.866 31.2652 111.173 31.1769 110.463C31.429 110.391 33.4745 109.791 34.2306 109.144C34.9194 108.556 35.6292 107.615 35.5746 106.661C35.5683 106.436 35.5148 106.215 35.4176 106.012C35.3203 105.809 35.1814 105.628 35.01 105.482C34.8385 105.336 34.6383 105.227 34.4223 105.164C34.2063 105.1 33.9792 105.082 33.7559 105.112C32.416 105.33 31.3618 107.535 31.1811 108.732C31.1811 108.804 31.1391 109.572 31.1265 110.076C31.0887 109.786 31.0593 109.505 31.0173 109.207C30.9375 108.615 30.8409 108.027 30.7359 107.397C30.6771 107.094 30.6183 106.787 30.5553 106.477C30.4923 106.166 30.4083 105.851 30.3327 105.532C30.1437 104.801 29.9127 104.07 29.6732 103.339C30.1899 103.268 32.0212 102.99 32.7941 102.499C33.5669 102.008 34.4112 101.201 34.4994 100.248C34.527 100.024 34.5075 99.7976 34.4421 99.5822C34.3767 99.3668 34.2667 99.1676 34.1195 98.9974C33.9722 98.8271 33.7909 98.6897 33.5872 98.594C33.3834 98.4982 33.1619 98.4463 32.9369 98.4415C31.5802 98.4415 30.2025 100.474 29.8413 101.63C29.8413 101.701 29.6522 102.562 29.5724 103.037C29.4212 102.617 29.2742 102.159 29.1062 101.718C28.6274 100.458 28.1023 99.1976 27.5857 97.9165C27.4261 97.5301 27.2749 97.1394 27.1195 96.753C27.3001 96.7278 29.4842 96.4464 30.3495 95.913C31.1181 95.4341 31.9666 94.6151 32.0548 93.6616C32.0825 93.4382 32.063 93.2115 31.9975 92.9961C31.9321 92.7808 31.8222 92.5815 31.6749 92.4113C31.5277 92.2411 31.3463 92.1037 31.1426 92.0079C30.9389 91.9122 30.7173 91.8602 30.4923 91.8555C29.1356 91.8555 27.7579 93.8884 27.3967 95.0435C27.3715 95.1317 27.1321 96.3666 27.0901 96.6858C26.7456 95.8457 26.4138 94.9721 26.1198 94.1152C25.717 92.9603 25.3901 91.7803 25.1411 90.5828C25.2293 90.5828 27.5101 90.2888 28.3922 89.7427C29.1608 89.2681 30.0093 88.4449 30.0975 87.4914C30.1258 87.2679 30.1068 87.0409 30.0416 86.8253C29.9764 86.6096 29.8666 86.4101 29.7192 86.2397C29.5718 86.0694 29.3901 85.9319 29.1861 85.8364C28.9821 85.7409 28.7602 85.6894 28.535 85.6853C27.1783 85.6853 25.8006 87.7182 25.4394 88.8733C25.4142 88.9657 25.1579 90.2972 25.1285 90.5534C25.1285 90.482 25.0949 90.4106 25.0823 90.3434C24.8647 89.136 24.7551 87.9117 24.7547 86.6849C24.7547 86.0045 24.7547 85.3576 24.8177 84.7276C25.2377 84.7276 27.2161 84.652 28.0687 84.2446C28.9214 83.8371 29.8161 83.1315 30.0051 82.1948C30.0583 81.976 30.0648 81.7484 30.024 81.5269C29.9832 81.3054 29.8962 81.095 29.7685 80.9095C29.6408 80.7239 29.4755 80.5674 29.2832 80.4502C29.0909 80.3329 28.876 80.2576 28.6526 80.2291C27.3043 80.0905 25.7124 81.9512 25.2251 83.0601C25.1999 83.1189 24.9983 83.7615 24.8597 84.232C24.8849 83.9506 24.9017 83.6565 24.9311 83.3919C25.0361 82.3712 25.1915 81.443 25.3512 80.6239C25.4394 80.1577 25.5276 79.7377 25.6116 79.3638C26.0316 79.1328 27.7117 78.1836 28.2577 77.4443C28.8038 76.7051 29.2952 75.6508 29.0348 74.7309C28.9849 74.512 28.8897 74.3059 28.7551 74.1261C28.6206 73.9462 28.4499 73.7967 28.2539 73.687C28.0579 73.5773 27.8411 73.51 27.6175 73.4894C27.3938 73.4688 27.1684 73.4954 26.9557 73.5675Z" fill="#604697"/>
<path d="M3.13112 95.2831C4.18959 95.2033 6.27293 94.044 6.27293 94.044C6.27293 94.044 5.09265 92.9057 5.01285 92.8427C4.04258 92.1203 1.74083 91.2928 0.636155 92.0825C0.456755 92.2183 0.307919 92.3903 0.199311 92.5873C0.0907031 92.7844 0.0247517 93.0021 0.005739 93.2263C-0.0132737 93.4504 0.0150775 93.6761 0.0889514 93.8886C0.162825 94.1012 0.28057 94.2958 0.434542 94.4598C1.06038 95.1823 2.22806 95.3461 3.13112 95.2831Z" fill="#604697"/>
<path d="M94.2187 29.5822C94.2187 29.6032 95.378 28.1205 95.441 28.0155C96.1508 26.8352 96.8355 24.1345 95.819 22.9752C95.6447 22.7868 95.4327 22.6372 95.1968 22.5361C94.9609 22.435 94.7063 22.3846 94.4497 22.3881C94.1931 22.3917 93.9401 22.4492 93.7071 22.5568C93.4741 22.6644 93.2663 22.8199 93.0972 23.013C92.3538 23.8068 92.295 25.1509 92.4672 26.1632C92.673 27.3309 94.2145 29.5822 94.2187 29.5822Z" fill="#604697"/>
<path d="M105.521 23.7019C104.173 22.9459 101.669 24.164 100.657 25.1048C100.569 25.1846 99.3466 26.6085 99.376 26.6211H99.4054C98.9854 26.8101 98.5653 27.016 98.1243 27.2512C97.2842 27.6964 96.335 28.2046 95.3395 28.8263C94.2603 29.4838 93.221 30.2048 92.2271 30.9852C91.1056 31.8585 90.0653 32.8313 89.1189 33.8918L89.0853 33.9296C89.2701 33.5096 89.7489 32.3461 89.7741 32.2495C90.1522 30.9222 90.0934 28.1374 88.8081 27.2806C88.5901 27.1447 88.3459 27.0562 88.0915 27.0209C87.837 26.9856 87.578 27.0042 87.3312 27.0755C87.0844 27.1468 86.8554 27.2692 86.659 27.4348C86.4626 27.6004 86.3033 27.8054 86.1913 28.0366C85.6831 28.9985 85.9813 30.309 86.4181 31.2414C86.9095 32.2957 88.8291 33.9296 88.9803 34.0598C88.0422 35.1539 87.1791 36.3103 86.3971 37.5209C85.9351 38.2223 85.494 38.9448 85.0614 39.6714C85.2084 39.3102 85.3386 38.9868 85.3512 38.9364C85.7251 37.6091 85.6705 34.8243 84.3852 33.9674C84.1672 33.8321 83.9234 33.7439 83.6693 33.7086C83.4152 33.6734 83.1565 33.6917 82.9099 33.7626C82.6634 33.8334 82.4344 33.9551 82.2378 34.1199C82.0411 34.2847 81.8812 34.4889 81.7684 34.7193C81.2602 35.6853 81.5584 36.9958 81.9952 37.9283C82.432 38.8608 84.045 40.3015 84.4734 40.6753C84.3096 40.9567 84.1416 41.2339 83.9819 41.5153C83.2007 42.872 82.4278 44.2245 81.6298 45.5266C81.3484 45.9886 81.0544 46.4297 80.7645 46.8749C80.8947 46.5515 81.004 46.2785 81.0166 46.2365C81.3904 44.9092 81.3358 42.1244 80.0463 41.2675C79.829 41.1309 79.5854 41.0417 79.3313 41.0058C79.0772 40.9698 78.8184 40.9879 78.5718 41.0589C78.3252 41.1299 78.0963 41.2521 77.9002 41.4176C77.7041 41.5831 77.5451 41.7882 77.4337 42.0194C76.9213 42.9854 77.2195 44.2959 77.6563 45.2284C78.0932 46.1608 79.5506 47.4629 80.0589 47.9082C79.7481 48.3534 79.433 48.7986 79.1096 49.2145C78.8828 49.4959 78.6896 49.7815 78.4418 50.0545L77.7403 50.861C77.2741 51.3566 76.7995 51.869 76.3332 52.3395C76.014 52.6713 75.7032 52.9821 75.3882 53.2929C75.6738 52.8393 76.2282 51.9362 76.2492 51.8564C76.7126 50.7345 76.879 49.5121 76.7323 48.3072C76.7913 48.1853 76.8364 48.057 76.8667 47.925C76.9377 47.6782 76.9559 47.4193 76.9202 47.165C76.8844 46.9108 76.7955 46.6669 76.6591 46.4493C76.5228 46.2318 76.3422 46.0454 76.129 45.9023C75.9157 45.7592 75.6748 45.6627 75.4218 45.619C73.8929 45.4006 71.9901 47.4377 71.3853 48.6768C71.3517 48.7482 71.0493 49.5841 70.8687 50.1175C70.9275 49.7857 70.9905 49.4707 71.0451 49.1304C71.1585 48.4626 71.2551 47.7906 71.3601 47.0681C71.4021 46.7195 71.4399 46.3667 71.4777 46.0096C71.5155 45.6526 71.5323 45.2788 71.5575 44.9092C71.6037 44.0691 71.6079 43.1744 71.5953 42.2966C72.1792 42.3974 74.2667 42.7166 75.2664 42.4646C76.266 42.2126 77.4673 41.6245 77.8873 40.5997C77.995 40.3668 78.0524 40.1137 78.0555 39.8571C78.0587 39.6006 78.0077 39.3462 77.9058 39.1107C77.8039 38.8752 77.6534 38.6638 77.4642 38.4905C77.275 38.3171 77.0514 38.1857 76.8079 38.1047C75.3294 37.6553 73.141 39.3648 72.3556 40.5115C72.3052 40.5829 71.8347 41.4607 71.5827 41.9438C71.5827 41.4187 71.5575 40.8895 71.5281 40.3561C71.4399 38.8146 71.3055 37.2562 71.1753 35.7021C71.1333 35.2275 71.0997 34.7529 71.0619 34.2782C71.2719 34.3161 73.7417 34.7571 74.8673 34.4673C75.8628 34.211 77.0641 33.6272 77.4883 32.6023C77.5953 32.3691 77.6519 32.1159 77.6544 31.8593C77.657 31.6027 77.6055 31.3484 77.5033 31.113C77.401 30.8776 77.2504 30.6664 77.0611 30.4932C76.8718 30.3199 76.6481 30.1884 76.4046 30.1074C74.9303 29.6537 72.742 31.3675 71.9523 32.5141C71.8935 32.5981 71.2131 33.8624 71.0577 34.1942C70.9779 33.1484 70.9107 32.0941 70.8855 31.0734C70.8416 29.6801 70.8893 28.2854 71.0283 26.8984C71.1249 26.8984 73.6997 27.3898 74.8505 27.0916C75.8502 26.8395 77.0515 26.2515 77.4715 25.2308C77.5793 24.9976 77.6366 24.7443 77.6398 24.4874C77.643 24.2306 77.592 23.9759 77.4902 23.7401C77.3883 23.5042 77.2379 23.2925 77.0486 23.1188C76.8594 22.945 76.6357 22.8131 76.392 22.7317C74.9135 22.2822 72.7252 23.9918 71.9397 25.1384C71.8767 25.2308 71.1459 26.5875 71.0325 26.8438C71.0325 26.7639 71.0325 26.6799 71.0325 26.6001C71.2092 25.2123 71.51 23.8431 71.9313 22.5091C72.154 21.7698 72.406 21.0768 72.6706 20.4089C73.141 20.5475 75.3 21.1482 76.3626 20.997C77.4253 20.8457 78.6434 20.3879 79.1726 19.4345C79.3049 19.2143 79.3895 18.9687 79.4207 18.7138C79.4519 18.4588 79.4292 18.2001 79.3539 17.9545C79.2786 17.7089 79.1526 17.4819 78.9838 17.2882C78.8151 17.0945 78.6075 16.9385 78.3746 16.8303C76.9549 16.2212 74.5943 17.6955 73.6829 18.7372C73.6325 18.7918 73.1956 19.4219 72.8848 19.8881C73.0066 19.5857 73.1284 19.2748 73.2502 18.9892C73.7123 17.9139 74.1995 16.9605 74.6405 16.1204C74.8967 15.6416 75.132 15.2174 75.363 14.8183C75.8922 14.7133 78.0301 14.2555 78.8912 13.6423C79.7523 13.029 80.6343 12.0504 80.6637 10.9583C80.6815 10.7027 80.6454 10.4463 80.5579 10.2056C80.4704 9.96483 80.3333 9.74513 80.1556 9.56066C79.9778 9.37619 79.7634 9.23107 79.5261 9.13466C79.2887 9.03825 79.0338 8.9927 78.7778 9.00095C77.2363 9.11436 75.8376 11.5211 75.4932 12.8526C75.4638 12.9702 75.2328 14.8309 75.258 14.8267H75.2916C75.0647 15.2048 74.8253 15.6122 74.5733 16.0616C74.1155 16.9017 73.6031 17.8425 73.12 18.9094C72.5813 20.0579 72.1115 21.2375 71.7129 22.4419C71.2585 23.7831 70.924 25.162 70.7133 26.5623C70.7153 26.5791 70.7153 26.596 70.7133 26.6127C70.6418 26.1675 70.394 24.9326 70.3646 24.8318C69.9446 23.5171 68.3611 21.2238 66.8154 21.2196C66.5591 21.2257 66.307 21.2856 66.0754 21.3954C65.8438 21.5051 65.6377 21.6623 65.4707 21.8567C65.3036 22.0511 65.1792 22.2784 65.1055 22.5239C65.0318 22.7694 65.0105 23.0276 65.0429 23.2819C65.1521 24.3656 66.1223 25.298 67.0002 25.8357C67.9915 26.4405 70.4948 26.7471 70.6923 26.7681C70.5149 28.199 70.4335 29.6401 70.4486 31.0818C70.4486 31.9219 70.478 32.7619 70.52 33.602C70.4444 33.2156 70.373 32.8754 70.3562 32.825C69.9362 31.5145 68.3527 29.2211 66.807 29.2169C66.5504 29.2235 66.2981 29.284 66.0665 29.3945C65.8349 29.5051 65.6292 29.6632 65.4628 29.8585C65.2963 30.0539 65.1729 30.2821 65.1006 30.5284C65.0282 30.7746 65.0086 31.0333 65.0429 31.2876C65.1479 32.3713 66.1223 33.2996 67.0002 33.8372C67.8781 34.3749 70.0202 34.6773 70.583 34.7613C70.583 35.0847 70.6166 35.4081 70.6377 35.7357C70.7343 37.2941 70.8351 38.8482 70.8897 40.3561C70.9107 40.8937 70.8897 41.4271 70.9107 41.9564C70.8393 41.6161 70.7805 41.3305 70.7679 41.2843C70.3478 39.9696 68.7643 37.6805 67.2186 37.6763C66.9618 37.6822 66.7092 37.7423 66.4773 37.8526C66.2454 37.9629 66.0394 38.121 65.8728 38.3166C65.7062 38.5121 65.5829 38.7406 65.5108 38.9871C65.4387 39.2336 65.4195 39.4926 65.4545 39.747C65.5595 40.8307 66.5298 41.759 67.4118 42.2966C68.2939 42.8342 70.2218 43.1366 70.8939 43.2038C70.8939 43.7499 70.8603 44.2959 70.8225 44.821C70.7889 45.1822 70.7805 45.5266 70.7217 45.8878C70.6629 46.2491 70.6292 46.5977 70.583 46.9463C70.4696 47.6141 70.3562 48.3072 70.2302 48.954C70.142 49.4077 70.0538 49.8403 69.9656 50.2729C69.9656 49.7353 69.9026 48.6852 69.89 48.5928C69.6758 47.2319 68.4577 44.7244 66.9288 44.4891C66.6744 44.4567 66.416 44.4781 66.1704 44.5521C65.9249 44.6261 65.6976 44.7509 65.5035 44.9185C65.3094 45.0861 65.1527 45.2927 65.0436 45.5248C64.9346 45.7569 64.8757 46.0094 64.8707 46.2659C64.8119 47.3579 65.6309 48.4206 66.4206 49.0842C67.2858 49.8151 69.6128 50.4829 69.9068 50.5627C69.7556 51.281 69.6044 51.974 69.449 52.6293C69.2474 53.4917 69.0499 54.2898 68.8567 55.0234C69.0793 55.2209 69.3566 55.4435 69.6968 55.7333C69.911 54.8638 70.1168 53.8936 70.3604 52.8309C70.5158 52.1042 70.6671 51.323 70.8141 50.5207C71.5921 50.5376 72.3704 50.5095 73.1452 50.4367C73.5358 51.533 75.0059 53.2551 75.195 53.4735C74.6783 53.9902 74.1659 54.4858 73.6745 54.9436C72.8344 55.7417 72.0489 56.4515 71.3391 57.0774C71.5953 57.2748 71.8557 57.4974 72.1288 57.6864C72.7966 57.069 73.5274 56.3759 74.3129 55.5863C74.8421 55.0654 75.3966 54.4984 75.9636 53.9062C76.2072 54.0784 78.2024 55.4561 79.3238 55.6619C80.3403 55.8467 81.6802 55.8047 82.4866 55.0654C82.681 54.8985 82.8381 54.6926 82.9479 54.4611C83.0577 54.2297 83.1177 53.9777 83.1241 53.7216C83.1304 53.4655 83.0829 53.2109 82.9847 52.9742C82.8865 52.7376 82.7397 52.5242 82.5538 52.3479C81.3988 51.3188 78.6896 51.9698 77.5135 52.6671C77.4421 52.7091 76.7323 53.2425 76.287 53.5869C76.518 53.3433 76.7449 53.1123 76.9759 52.8603C77.4421 52.3647 77.8915 51.8606 78.3788 51.3146C78.6014 51.0458 78.8324 50.7728 79.0592 50.4745C79.286 50.1763 79.5086 49.8907 79.7355 49.6009C80.2479 48.9078 80.7309 48.1854 81.2056 47.4419C81.6256 47.862 83.1965 49.2691 84.1752 49.6093C85.1538 49.9495 86.4853 50.1049 87.3884 49.5001C87.6069 49.365 87.7945 49.1854 87.9389 48.973C88.0833 48.7605 88.1813 48.52 88.2265 48.2672C88.2717 48.0143 88.2631 47.7547 88.2011 47.5054C88.1392 47.2561 88.0254 47.0227 87.8672 46.8203C86.8843 45.6316 84.108 45.8626 82.8269 46.3751C82.7471 46.4045 81.8692 46.8749 81.3946 47.1437C81.6718 46.6943 81.9574 46.2491 82.2346 45.787C83.0117 44.4555 83.7551 43.0778 84.5028 41.7127C84.7338 41.2927 84.969 40.8727 85.2 40.4527C85.3512 40.5997 87.17 42.3302 88.2662 42.7082C89.2407 43.0484 90.5722 43.208 91.4794 42.599C91.6975 42.4635 91.8846 42.2837 92.0286 42.0712C92.1726 41.8588 92.2704 41.6184 92.3155 41.3657C92.3607 41.1131 92.3522 40.8537 92.2907 40.6045C92.2291 40.3553 92.1159 40.1218 91.9583 39.9192C90.9712 38.7305 88.178 38.9616 86.9179 39.474C86.8213 39.5118 85.5571 40.188 85.2378 40.3771C85.7503 39.4614 86.2669 38.5541 86.8129 37.6763C87.5484 36.4924 88.3579 35.356 89.2365 34.274C89.3079 34.3455 91.198 36.1558 92.3195 36.5464C93.294 36.8866 94.6255 37.0462 95.5327 36.4372C95.7512 36.3022 95.9388 36.1226 96.0833 35.9101C96.2277 35.6977 96.3257 35.4572 96.3709 35.2043C96.416 34.9514 96.4074 34.6918 96.3455 34.4425C96.2836 34.1932 96.1698 33.9598 96.0116 33.7574C95.0287 32.5687 92.2313 32.7997 90.9712 33.3122C90.8704 33.35 89.5137 34.0808 89.2911 34.232C89.3457 34.169 89.3919 34.0976 89.4423 34.0388C90.3548 32.9799 91.3598 32.0043 92.4455 31.1238C93.042 30.6282 93.6342 30.1872 94.2222 29.7755C94.5415 30.1494 96.0116 31.8421 96.9818 32.2957C97.9521 32.7493 99.2206 33.0434 100.187 32.5393C100.402 32.4211 100.59 32.2608 100.742 32.0681C100.894 31.8754 101.006 31.6542 101.07 31.4176C101.135 31.1809 101.151 30.9337 101.119 30.6906C101.086 30.4475 101.005 30.2135 100.88 30.0024C100.04 28.7129 97.2464 28.6373 95.9192 29.0069C95.8435 29.0069 95.1337 29.3093 94.6171 29.5235C94.8859 29.3429 95.1589 29.1455 95.4193 28.9775C96.3938 28.3348 97.3304 27.8098 98.1621 27.3478C98.6367 27.0916 99.0694 26.869 99.4768 26.6631C99.9808 26.869 102.018 27.667 103.072 27.6292C104.127 27.5914 105.403 27.2596 106.012 26.3691C106.167 26.166 106.278 25.9328 106.337 25.6844C106.397 25.436 106.404 25.1779 106.357 24.9267C106.311 24.6755 106.213 24.4368 106.069 24.2259C105.925 24.015 105.738 23.8365 105.521 23.7019Z" fill="#604697"/>
<path d="M69.2306 18.2417C70.0706 19.1238 72.5908 20.1318 72.5908 20.136C72.5908 20.1402 72.7504 18.2711 72.7462 18.1535C72.6874 16.7758 71.7675 14.1464 70.2764 13.7348C70.0275 13.6736 69.7685 13.6654 69.5162 13.7108C69.2639 13.7562 69.024 13.8542 68.8121 13.9984C68.6001 14.1426 68.4209 14.3298 68.286 14.5478C68.1512 14.7658 68.0637 15.0097 68.0293 15.2637C67.8319 16.3306 68.5375 17.4857 69.2306 18.2417Z" fill="#604697"/>
<path d="M190.897 123.753C190.897 123.753 191.737 122.673 191.8 122.598C192.321 121.728 192.825 119.737 192.077 118.88C191.949 118.741 191.793 118.63 191.62 118.555C191.446 118.48 191.259 118.443 191.07 118.445C190.88 118.447 190.694 118.49 190.522 118.569C190.351 118.648 190.198 118.763 190.073 118.906C189.523 119.494 189.477 120.481 189.607 121.228C189.758 122.106 190.897 123.753 190.897 123.753Z" fill="#604697"/>
<path d="M199.225 119.439C198.234 118.88 196.386 119.779 195.642 120.472C195.575 120.531 194.676 121.581 194.697 121.589H194.718C194.424 121.728 194.114 121.883 193.778 122.056C193.156 122.383 192.459 122.757 191.724 123.215C190.927 123.698 190.161 124.23 189.43 124.807C188.605 125.445 187.839 126.156 187.141 126.932L187.116 126.962C187.254 126.655 187.607 125.794 187.628 125.723C187.901 124.744 187.864 122.694 186.914 122.064C186.754 121.964 186.575 121.898 186.387 121.871C186.2 121.845 186.01 121.858 185.828 121.91C185.646 121.962 185.477 122.051 185.332 122.173C185.187 122.294 185.069 122.444 184.986 122.614C184.613 123.328 184.831 124.294 185.154 124.979C185.516 125.756 186.927 126.962 187.04 127.054C186.352 127.862 185.716 128.713 185.138 129.604C184.796 130.124 184.467 130.654 184.15 131.191L184.369 130.649C184.642 129.671 184.6 127.621 183.655 126.987C183.494 126.886 183.315 126.821 183.127 126.795C182.94 126.768 182.749 126.782 182.567 126.834C182.385 126.886 182.217 126.976 182.072 127.098C181.927 127.22 181.81 127.371 181.727 127.541C181.353 128.255 181.572 129.221 181.891 129.906C182.21 130.591 183.403 131.658 183.722 131.931L183.357 132.552C182.781 133.548 182.214 134.543 181.626 135.492C181.416 135.833 181.206 136.156 180.988 136.484C181.084 136.248 181.164 136.064 181.172 136.017C181.45 135.039 181.408 132.985 180.458 132.355C180.298 132.254 180.118 132.189 179.931 132.163C179.744 132.136 179.553 132.15 179.371 132.202C179.189 132.254 179.02 132.344 178.875 132.466C178.731 132.588 178.613 132.739 178.531 132.909C178.157 133.619 178.375 134.589 178.699 135.274C179.022 135.959 180.093 136.916 180.467 137.244C180.236 137.576 180.009 137.903 179.77 138.21C179.602 138.416 179.455 138.63 179.274 138.827L178.757 139.42C178.417 139.785 178.064 140.163 177.724 140.512C177.489 140.755 177.258 140.982 177.027 141.213C177.237 140.877 177.636 140.213 177.661 140.155C178.002 139.327 178.125 138.426 178.018 137.538C178.06 137.448 178.093 137.353 178.115 137.256C178.164 137.076 178.176 136.887 178.148 136.702C178.121 136.517 178.055 136.34 177.955 136.182C177.855 136.023 177.723 135.888 177.567 135.784C177.412 135.679 177.236 135.609 177.052 135.576C175.922 135.413 174.532 136.912 174.078 137.828C174.049 137.878 173.83 138.496 173.696 138.886C173.738 138.647 173.784 138.412 173.826 138.164C173.91 137.668 173.982 137.177 174.057 136.643C174.088 136.388 174.117 136.128 174.145 135.862C174.179 135.602 174.183 135.32 174.204 135.051C174.238 134.417 174.242 133.791 174.229 133.128C174.649 133.199 176.199 133.438 176.939 133.249C177.678 133.06 178.556 132.619 178.867 131.876C178.946 131.704 178.988 131.518 178.991 131.329C178.993 131.14 178.956 130.952 178.881 130.779C178.806 130.605 178.695 130.449 178.556 130.321C178.417 130.193 178.252 130.096 178.073 130.036C176.985 129.704 175.372 130.977 174.792 131.813C174.754 131.863 174.406 132.51 174.221 132.867C174.221 132.477 174.221 132.09 174.183 131.695C174.116 130.561 174.015 129.415 173.919 128.268C173.889 127.919 173.868 127.566 173.839 127.218C173.994 127.247 175.813 127.571 176.64 127.356C177.375 127.167 178.262 126.726 178.573 125.983C178.651 125.811 178.693 125.624 178.695 125.435C178.697 125.246 178.659 125.059 178.583 124.885C178.508 124.712 178.397 124.556 178.258 124.428C178.119 124.3 177.954 124.203 177.774 124.143C176.687 123.811 175.074 125.084 174.494 125.92C174.452 125.983 173.952 126.911 173.835 127.155C173.776 126.382 173.725 125.613 173.709 124.853C173.675 123.827 173.711 122.8 173.814 121.778C173.885 121.778 175.784 122.14 176.632 121.921C177.367 121.732 178.249 121.287 178.56 120.548C178.639 120.376 178.682 120.19 178.684 120.001C178.687 119.812 178.649 119.624 178.574 119.45C178.499 119.277 178.389 119.121 178.249 118.993C178.11 118.865 177.945 118.768 177.766 118.708C176.678 118.376 175.065 119.649 174.486 120.481C174.439 120.548 173.902 121.547 173.818 121.741C173.818 121.682 173.818 121.619 173.818 121.56C173.948 120.539 174.168 119.531 174.477 118.548C174.641 118.002 174.83 117.49 175.023 116.999C175.368 117.099 176.96 117.54 177.745 117.419C178.531 117.297 179.425 116.969 179.816 116.263C179.913 116.101 179.976 115.92 179.998 115.733C180.021 115.545 180.004 115.354 179.948 115.173C179.892 114.992 179.799 114.825 179.674 114.683C179.549 114.541 179.396 114.427 179.224 114.348C178.178 113.899 176.439 114.987 175.771 115.751C175.733 115.793 175.41 116.259 175.179 116.591C175.271 116.368 175.359 116.137 175.452 115.927C175.792 115.138 176.153 114.436 176.477 113.827C176.661 113.474 176.838 113.164 177.006 112.87C177.396 112.79 178.972 112.45 179.606 112.004C180.24 111.559 180.891 110.828 180.912 110.026C180.924 109.837 180.896 109.648 180.83 109.471C180.764 109.294 180.662 109.132 180.53 108.997C180.397 108.862 180.238 108.757 180.062 108.687C179.887 108.618 179.698 108.586 179.509 108.594C178.371 108.678 177.325 110.446 177.086 111.433C177.086 111.517 176.897 112.891 176.913 112.886H176.939C176.771 113.166 176.594 113.469 176.409 113.794C176.073 114.411 175.695 115.108 175.338 115.894C174.942 116.737 174.596 117.602 174.301 118.485C173.968 119.474 173.722 120.491 173.566 121.522C173.568 121.535 173.568 121.548 173.566 121.56C173.511 121.232 173.331 120.3 173.31 120.245C172.999 119.279 171.831 117.591 170.693 117.587C170.504 117.592 170.318 117.637 170.148 117.719C169.978 117.8 169.826 117.917 169.704 118.06C169.581 118.204 169.49 118.372 169.436 118.553C169.382 118.734 169.367 118.924 169.391 119.111C169.47 119.914 170.189 120.598 170.836 120.993C171.566 121.438 173.41 121.665 173.553 121.682C173.425 122.735 173.364 123.796 173.373 124.857C173.373 125.479 173.398 126.117 173.427 126.726C173.373 126.441 173.318 126.189 173.31 126.155C172.999 125.185 171.831 123.496 170.693 123.496C170.504 123.501 170.318 123.546 170.147 123.627C169.976 123.708 169.825 123.825 169.702 123.969C169.579 124.112 169.488 124.28 169.434 124.462C169.381 124.643 169.366 124.834 169.391 125.021C169.47 125.819 170.185 126.504 170.836 126.899C171.487 127.293 173.058 127.524 173.473 127.579C173.473 127.818 173.499 128.058 173.515 128.297C173.583 129.444 173.658 130.591 173.7 131.716C173.7 132.115 173.7 132.506 173.7 132.897C173.65 132.645 173.608 132.435 173.595 132.401C173.289 131.435 172.121 129.746 170.983 129.742C170.794 129.748 170.608 129.793 170.438 129.874C170.267 129.956 170.116 130.072 169.993 130.216C169.871 130.359 169.78 130.527 169.726 130.708C169.672 130.889 169.656 131.08 169.681 131.267C169.76 132.069 170.474 132.754 171.121 133.149C171.768 133.543 173.196 133.749 173.688 133.816C173.688 134.236 173.667 134.619 173.637 135.009C173.612 135.274 173.604 135.53 173.566 135.795C173.528 136.059 173.494 136.316 173.461 136.572C173.377 137.067 173.293 137.576 173.2 138.055C173.137 138.386 173.07 138.706 173.007 139.025C173.007 138.63 172.961 137.857 172.953 137.79C172.793 136.786 171.894 134.942 170.768 134.766C170.581 134.742 170.391 134.758 170.21 134.813C170.029 134.868 169.861 134.96 169.718 135.083C169.575 135.207 169.46 135.359 169.38 135.53C169.299 135.701 169.256 135.887 169.252 136.076C169.21 136.878 169.811 137.664 170.395 138.151C170.978 138.638 172.747 139.184 172.961 139.243C172.852 139.768 172.738 140.285 172.625 140.764C172.478 141.398 172.331 141.986 172.205 142.528C172.369 142.671 172.575 142.851 172.814 143.053C172.971 142.409 173.133 141.695 173.301 140.911C173.415 140.377 173.528 139.802 173.633 139.21C174.208 139.224 174.783 139.203 175.355 139.147C175.641 139.957 176.724 141.226 176.863 141.385C176.481 141.768 176.107 142.133 175.746 142.469C175.124 143.057 174.544 143.582 174.024 144.04C174.208 144.187 174.406 144.338 174.607 144.489C175.095 144.036 175.637 143.528 176.212 142.956C176.603 142.574 177.014 142.154 177.43 141.721C177.611 141.847 179.081 142.864 179.904 143.015C180.652 143.149 181.639 143.12 182.231 142.574C182.375 142.452 182.492 142.3 182.573 142.129C182.655 141.959 182.7 141.773 182.704 141.584C182.709 141.394 182.674 141.206 182.601 141.032C182.528 140.857 182.419 140.7 182.281 140.57C181.441 139.814 179.434 140.293 178.56 140.81C178.505 140.839 177.984 141.23 177.657 141.482L178.165 140.949C178.505 140.587 178.837 140.213 179.198 139.81L179.698 139.21C179.87 139.008 180.03 138.79 180.198 138.563C180.572 138.055 180.929 137.521 181.277 136.975C181.597 137.273 182.748 138.319 183.47 138.571C184.192 138.823 185.171 138.937 185.839 138.491C185.999 138.391 186.137 138.259 186.243 138.102C186.348 137.945 186.42 137.768 186.453 137.582C186.486 137.396 186.479 137.205 186.434 137.021C186.388 136.838 186.304 136.666 186.188 136.517C185.465 135.639 183.415 135.812 182.475 136.185C182.416 136.211 181.765 136.555 181.416 136.752C181.622 136.421 181.836 136.093 182.029 135.753C182.601 134.77 183.151 133.758 183.709 132.75C183.877 132.443 184.05 132.136 184.222 131.83C184.335 131.939 185.675 133.212 186.482 133.51C187.2 133.758 188.162 133.875 188.851 133.43C189.011 133.33 189.149 133.197 189.254 133.041C189.36 132.884 189.432 132.707 189.465 132.521C189.497 132.334 189.491 132.143 189.445 131.96C189.399 131.777 189.316 131.605 189.199 131.456C188.477 130.578 186.431 130.746 185.486 131.124C185.415 131.153 184.482 131.653 184.251 131.792C184.629 131.116 185.012 130.448 185.415 129.801C185.955 128.924 186.552 128.082 187.2 127.281C187.254 127.331 188.645 128.667 189.472 128.961C190.19 129.209 191.152 129.326 191.841 128.881C192.002 128.781 192.139 128.648 192.245 128.492C192.351 128.335 192.422 128.158 192.455 127.972C192.488 127.786 192.481 127.595 192.436 127.411C192.39 127.228 192.306 127.056 192.19 126.907C191.467 126.029 189.422 126.201 188.477 126.575C188.401 126.605 187.401 127.142 187.217 127.251C187.254 127.209 187.288 127.155 187.33 127.109C188.003 126.33 188.742 125.612 189.539 124.962C189.98 124.597 190.417 124.273 190.85 123.971C191.085 124.244 192.165 125.491 192.883 125.832C193.601 126.172 194.534 126.382 195.243 126.012C195.414 125.931 195.566 125.814 195.689 125.67C195.811 125.526 195.902 125.358 195.955 125.176C196.008 124.995 196.023 124.804 195.997 124.617C195.971 124.429 195.906 124.249 195.806 124.089C195.18 123.139 193.131 123.085 192.148 123.354C192.097 123.354 191.572 123.576 191.19 123.736C191.388 123.601 191.61 123.459 191.782 123.316C192.501 122.845 193.189 122.455 193.803 122.119C194.151 121.925 194.471 121.762 194.773 121.61C195.143 121.762 196.642 122.35 197.423 122.324C198.205 122.299 199.141 122.051 199.603 121.392C199.715 121.242 199.794 121.07 199.835 120.887C199.877 120.705 199.88 120.516 199.844 120.332C199.809 120.148 199.735 119.974 199.629 119.82C199.522 119.667 199.385 119.537 199.225 119.439Z" fill="#604697"/>
<path d="M172.482 115.403C173.095 116.054 174.952 116.797 174.952 116.797C174.952 116.797 175.069 115.428 175.065 115.34C175.023 114.323 174.343 112.399 173.247 112.08C173.063 112.035 172.872 112.029 172.686 112.062C172.5 112.096 172.323 112.168 172.166 112.275C172.01 112.382 171.878 112.52 171.779 112.681C171.68 112.842 171.616 113.023 171.592 113.21C171.445 114.008 171.965 114.848 172.482 115.403Z" fill="#604697"/>
<path d="M117.345 169.174C117.345 169.174 116.274 170.523 116.215 170.619C115.56 171.707 114.93 174.202 115.867 175.277C116.027 175.454 116.222 175.595 116.441 175.69C116.659 175.785 116.896 175.833 117.134 175.829C117.373 175.826 117.608 175.772 117.823 175.671C118.039 175.57 118.231 175.425 118.387 175.244C119.076 174.509 119.13 173.27 118.966 172.333C118.769 171.232 117.345 169.174 117.345 169.174Z" fill="#604697"/>
<path d="M106.916 174.576C108.176 175.273 110.469 174.156 111.406 173.282C111.486 173.207 112.611 171.892 112.586 171.884H112.561C112.926 171.711 113.317 171.518 113.737 171.3C114.518 170.88 115.392 170.426 116.308 169.851C117.304 169.244 118.263 168.579 119.181 167.86C120.211 167.057 121.169 166.166 122.045 165.197L122.075 165.159C121.907 165.541 121.461 166.621 121.436 166.709C121.092 167.935 121.142 170.489 122.331 171.291C122.531 171.418 122.756 171.5 122.99 171.534C123.225 171.567 123.464 171.551 123.692 171.485C123.919 171.42 124.131 171.307 124.312 171.154C124.493 171.001 124.639 170.812 124.742 170.598C125.212 169.708 124.939 168.498 124.536 167.658C124.082 166.688 122.314 165.176 122.171 165.058C123.036 164.048 123.833 162.981 124.557 161.866C124.977 161.219 125.397 160.551 125.788 159.879C125.653 160.215 125.531 160.513 125.519 160.56C125.174 161.782 125.225 164.34 126.413 165.142C126.614 165.269 126.839 165.351 127.073 165.385C127.308 165.418 127.547 165.402 127.774 165.336C128.002 165.271 128.213 165.158 128.394 165.005C128.575 164.852 128.722 164.663 128.824 164.449C129.295 163.559 129.022 162.349 128.619 161.509C128.215 160.669 126.724 159.321 126.329 158.989L126.783 158.212C127.501 156.952 128.215 155.717 128.95 154.511C129.211 154.091 129.484 153.671 129.753 153.272C129.631 153.566 129.53 153.818 129.517 153.86C129.173 155.083 129.223 157.64 130.412 158.443C130.612 158.569 130.837 158.652 131.072 158.685C131.306 158.719 131.545 158.702 131.773 158.637C132.001 158.571 132.212 158.458 132.393 158.305C132.574 158.153 132.72 157.963 132.823 157.75C133.294 156.859 133.021 155.65 132.617 154.789C132.214 153.927 130.87 152.73 130.4 152.319C130.689 151.899 130.979 151.479 131.277 151.109C131.483 150.853 131.668 150.588 131.895 150.34L132.542 149.597C132.962 149.143 133.407 148.669 133.835 148.232C134.134 147.925 134.419 147.644 134.709 147.354C134.444 147.774 133.949 148.614 133.915 148.677C133.491 149.714 133.338 150.841 133.47 151.953C133.417 152.067 133.375 152.185 133.344 152.306C133.278 152.534 133.261 152.773 133.294 153.008C133.327 153.243 133.409 153.468 133.535 153.668C133.661 153.869 133.828 154.041 134.026 154.173C134.223 154.304 134.446 154.392 134.68 154.431C136.091 154.637 137.842 152.751 138.401 151.613C138.435 151.546 138.712 150.773 138.88 150.286C138.825 150.588 138.767 150.882 138.716 151.193C138.611 151.811 138.523 152.428 138.426 153.096C138.389 153.415 138.351 153.743 138.317 154.074C138.283 154.406 138.267 154.746 138.241 155.091C138.199 155.881 138.195 156.687 138.212 157.498C137.67 157.405 135.747 157.103 134.822 157.342C133.898 157.582 132.794 158.132 132.403 159.06C132.303 159.275 132.249 159.509 132.246 159.746C132.242 159.984 132.289 160.219 132.383 160.437C132.477 160.655 132.616 160.85 132.791 161.01C132.966 161.17 133.173 161.292 133.399 161.366C134.764 161.786 136.78 160.19 137.506 159.144C137.553 159.077 137.989 158.271 138.22 157.821C138.22 158.308 138.241 158.796 138.271 159.287C138.351 160.707 138.477 162.147 138.599 163.58C138.636 164 138.666 164.458 138.699 164.894C138.506 164.861 136.23 164.453 135.192 164.718C134.272 164.953 133.163 165.512 132.773 166.44C132.673 166.655 132.62 166.889 132.617 167.126C132.615 167.363 132.662 167.598 132.756 167.815C132.851 168.033 132.99 168.227 133.165 168.387C133.34 168.547 133.547 168.668 133.772 168.742C135.133 169.162 137.154 167.566 137.88 166.52C137.935 166.444 138.561 165.26 138.72 164.974C138.796 165.94 138.859 166.902 138.88 167.856C138.922 169.14 138.878 170.425 138.75 171.703C138.662 171.703 136.284 171.254 135.221 171.527C134.302 171.762 133.193 172.316 132.806 173.245C132.706 173.46 132.652 173.693 132.649 173.931C132.645 174.168 132.692 174.403 132.786 174.621C132.88 174.839 133.019 175.034 133.194 175.195C133.369 175.355 133.576 175.476 133.802 175.55C135.163 175.971 137.183 174.374 137.91 173.329C137.964 173.245 138.641 171.993 138.75 171.758C138.75 171.829 138.75 171.909 138.75 171.98C138.582 173.263 138.301 174.528 137.91 175.761C137.704 176.445 137.469 177.084 137.229 177.701C136.809 177.575 134.801 177.021 133.819 177.159C132.836 177.298 131.718 177.726 131.227 178.604C131.104 178.807 131.026 179.033 130.997 179.269C130.968 179.504 130.989 179.743 131.059 179.969C131.129 180.196 131.245 180.405 131.402 180.583C131.558 180.761 131.751 180.904 131.966 181.002C133.277 181.565 135.457 180.204 136.293 179.247C136.339 179.196 136.742 178.613 137.032 178.184C136.918 178.461 136.805 178.751 136.692 179.024C136.272 180.011 135.814 180.893 135.41 181.67C135.175 182.111 134.953 182.51 134.747 182.867C134.255 182.968 132.281 183.388 131.487 183.955C130.694 184.522 129.883 185.425 129.854 186.429C129.838 186.666 129.872 186.903 129.955 187.125C130.037 187.347 130.166 187.55 130.332 187.719C130.498 187.888 130.698 188.02 130.919 188.106C131.14 188.192 131.377 188.23 131.613 188.219C133.033 188.118 134.344 185.904 134.642 184.665C134.671 184.56 134.885 182.842 134.856 182.846H134.827C135.037 182.502 135.247 182.124 135.49 181.712C135.91 180.939 136.385 180.07 136.834 179.083C137.329 178.027 137.761 176.943 138.128 175.836C138.549 174.606 138.858 173.341 139.052 172.056C139.05 172.041 139.05 172.025 139.052 172.01C139.119 172.43 139.346 173.568 139.376 173.656C139.762 174.866 141.224 176.983 142.648 176.987C142.885 176.982 143.118 176.927 143.333 176.825C143.547 176.724 143.738 176.578 143.892 176.397C144.046 176.217 144.16 176.006 144.226 175.778C144.292 175.55 144.31 175.311 144.277 175.076C144.176 174.076 143.282 173.219 142.471 172.72C141.556 172.161 139.25 171.879 139.065 171.858C139.23 170.539 139.306 169.21 139.292 167.881C139.292 167.108 139.262 166.327 139.229 165.545C139.296 165.898 139.363 166.217 139.376 166.259C139.762 167.473 141.224 169.586 142.648 169.59C142.885 169.585 143.118 169.53 143.333 169.429C143.547 169.327 143.738 169.181 143.892 169.001C144.046 168.82 144.16 168.609 144.226 168.381C144.292 168.153 144.31 167.914 144.277 167.679C144.181 166.679 143.282 165.823 142.471 165.327C141.661 164.831 139.686 164.542 139.166 164.487C139.166 164.189 139.136 163.891 139.119 163.588C139.027 162.152 138.935 160.715 138.884 159.308C138.884 158.812 138.884 158.321 138.884 157.83C138.947 158.145 139.002 158.409 139.014 158.447C139.401 159.661 140.862 161.778 142.286 161.778C142.523 161.773 142.756 161.718 142.97 161.617C143.184 161.515 143.375 161.37 143.529 161.19C143.683 161.009 143.797 160.799 143.863 160.572C143.93 160.344 143.948 160.106 143.916 159.871C143.819 158.867 142.921 158.01 142.11 157.514C141.299 157.019 139.518 156.763 138.901 156.674C138.901 156.17 138.926 155.671 138.964 155.183C138.998 154.852 139.002 154.532 139.056 154.2C139.111 153.869 139.14 153.545 139.182 153.226C139.287 152.609 139.392 151.966 139.51 151.369C139.59 150.949 139.674 150.555 139.754 150.156C139.754 150.651 139.808 151.617 139.825 151.697C140.022 152.957 141.144 155.267 142.555 155.477C142.79 155.508 143.029 155.489 143.255 155.421C143.482 155.353 143.692 155.238 143.871 155.084C144.051 154.929 144.195 154.738 144.296 154.524C144.396 154.309 144.45 154.076 144.454 153.839C144.508 152.831 143.752 151.853 143.026 151.239C142.228 150.563 140.085 149.95 139.808 149.874C139.947 149.215 140.09 148.572 140.228 147.967C140.413 147.178 140.598 146.438 140.774 145.762C140.568 145.577 140.312 145.342 140.014 145.103C139.818 145.909 139.614 146.802 139.401 147.782C139.258 148.454 139.119 149.173 138.981 149.916C138.262 149.899 137.542 149.925 136.826 149.992C136.469 148.98 135.112 147.392 134.936 147.19C135.415 146.716 135.885 146.258 136.339 145.833C137.116 145.098 137.838 144.443 138.493 143.868C138.258 143.683 138.015 143.494 137.763 143.305C137.149 143.872 136.473 144.51 135.751 145.224C135.263 145.703 134.751 146.228 134.226 146.77C134.003 146.615 132.159 145.342 131.13 145.153C130.194 144.981 128.959 145.023 128.215 145.699C128.033 145.853 127.885 146.043 127.782 146.258C127.679 146.473 127.623 146.708 127.617 146.946C127.611 147.184 127.657 147.421 127.75 147.641C127.843 147.86 127.981 148.057 128.157 148.219C129.219 149.169 131.718 148.568 132.815 147.921C132.878 147.883 133.537 147.392 133.945 147.081C133.735 147.304 133.525 147.501 133.31 147.749C132.89 148.202 132.47 148.673 132.017 149.173L131.387 149.929C131.172 150.177 130.967 150.466 130.765 150.739C130.295 151.374 129.845 152.042 129.408 152.726C128.988 152.352 127.569 151.046 126.67 150.727C125.771 150.408 124.54 150.269 123.704 150.828C123.503 150.953 123.331 151.12 123.2 151.317C123.068 151.514 122.979 151.737 122.94 151.97C122.9 152.204 122.91 152.443 122.969 152.673C123.029 152.902 123.136 153.117 123.284 153.302C124.192 154.398 126.754 154.184 127.934 153.722C128.01 153.692 128.82 153.26 129.261 153.012C129.001 153.432 128.74 153.852 128.493 154.272C127.774 155.503 127.09 156.767 126.392 158.031C126.182 158.418 125.972 158.8 125.754 159.182C125.611 159.048 123.935 157.451 122.923 157.103C122.024 156.792 120.794 156.645 119.958 157.204C119.757 157.329 119.586 157.496 119.455 157.693C119.323 157.889 119.235 158.111 119.195 158.345C119.156 158.578 119.166 158.817 119.225 159.046C119.284 159.275 119.39 159.489 119.538 159.673C120.445 160.774 123.007 160.56 124.187 160.093C124.276 160.056 125.447 159.43 125.729 159.253C125.258 160.093 124.78 160.934 124.276 161.744C123.597 162.836 122.851 163.884 122.041 164.882C121.974 164.819 120.231 163.147 119.197 162.782C118.299 162.471 117.068 162.324 116.232 162.882C116.031 163.008 115.859 163.175 115.727 163.372C115.596 163.569 115.507 163.792 115.467 164.025C115.428 164.259 115.438 164.498 115.497 164.728C115.557 164.957 115.664 165.171 115.812 165.356C116.719 166.453 119.281 166.238 120.466 165.776C120.558 165.739 121.81 165.067 122.028 164.936C121.982 164.995 121.94 165.058 121.89 165.117C121.047 166.092 120.121 166.991 119.122 167.805C118.572 168.259 118.026 168.666 117.479 169.065C117.19 168.717 115.833 167.158 114.938 166.73C114.044 166.301 112.872 166.041 111.998 166.507C111.784 166.608 111.593 166.754 111.439 166.934C111.285 167.114 111.171 167.324 111.104 167.551C111.036 167.779 111.018 168.018 111.05 168.253C111.082 168.487 111.163 168.713 111.288 168.914C112.07 170.107 114.648 170.174 115.867 169.834C115.934 169.834 116.589 169.557 117.068 169.355C116.82 169.527 116.568 169.704 116.324 169.863C115.426 170.451 114.564 170.939 113.804 171.363C113.384 171.598 112.964 171.808 112.59 171.997C112.124 171.808 110.247 171.069 109.276 171.102C108.306 171.136 107.122 171.443 106.546 172.266C106.295 172.623 106.194 173.065 106.263 173.496C106.332 173.927 106.566 174.315 106.916 174.576Z" fill="#604697"/>
<path d="M140.396 179.629C139.631 178.814 137.309 177.882 137.309 177.882C137.309 177.882 137.158 179.6 137.162 179.709C137.216 180.969 138.065 183.405 139.438 183.787C139.668 183.845 139.908 183.853 140.141 183.812C140.374 183.77 140.596 183.68 140.792 183.547C140.988 183.414 141.154 183.24 141.278 183.039C141.402 182.837 141.482 182.611 141.513 182.376C141.685 181.38 141.047 180.318 140.396 179.629Z" fill="#604697"/>
<path d="M175.309 41.0281H24.6577V162.076H175.309V41.0281Z" fill="white" stroke="#604697" stroke-linejoin="round"/>
<path d="M155.707 146.548H136.915C136.425 146.548 135.955 146.353 135.608 146.006C135.262 145.66 135.067 145.19 135.067 144.7V123.165" fill="white"/>
<path d="M155.707 146.548H136.915C136.425 146.548 135.955 146.353 135.608 146.006C135.262 145.66 135.067 145.19 135.067 144.7V123.165" stroke="#604697" stroke-linejoin="round"/>
<path d="M167.551 101.949V144.699C167.55 145.19 167.354 145.66 167.007 146.007C166.66 146.353 166.189 146.548 165.699 146.548H157.55" fill="white"/>
<path d="M167.551 101.949V144.699C167.55 145.19 167.354 145.66 167.007 146.007C166.66 146.353 166.189 146.548 165.699 146.548H157.55" stroke="#604697" stroke-linejoin="round"/>
<path d="M135.067 121.715V89.0876C135.067 88.8451 135.115 88.605 135.208 88.381C135.301 88.157 135.437 87.9535 135.608 87.7822C135.78 87.611 135.984 87.4752 136.208 87.3828C136.432 87.2904 136.673 87.2431 136.915 87.2437H165.7C165.942 87.2431 166.183 87.2904 166.407 87.3827C166.632 87.4751 166.836 87.6108 167.008 87.782C167.18 87.9532 167.316 88.1566 167.41 88.3807C167.503 88.6047 167.551 88.8449 167.552 89.0876V100.764" fill="white"/>
<path d="M135.067 121.715V89.0876C135.067 88.8451 135.115 88.605 135.208 88.381C135.301 88.157 135.437 87.9535 135.608 87.7822C135.78 87.611 135.984 87.4752 136.208 87.3828C136.432 87.2904 136.673 87.2431 136.915 87.2437H165.7C165.942 87.2431 166.183 87.2904 166.407 87.3827C166.632 87.4751 166.836 87.6108 167.008 87.782C167.18 87.9532 167.316 88.1566 167.41 88.3807C167.503 88.6047 167.551 88.8449 167.552 89.0876V100.764" stroke="#604697" stroke-linejoin="round"/>
<path d="M167.552 89.0876V99.0548H135.067V89.0876C135.067 88.8451 135.115 88.605 135.208 88.381C135.301 88.157 135.437 87.9535 135.608 87.7822C135.78 87.611 135.984 87.4752 136.208 87.3828C136.432 87.2904 136.673 87.2431 136.915 87.2437H165.7C165.942 87.2431 166.183 87.2904 166.407 87.3827C166.632 87.4751 166.836 87.6108 167.008 87.782C167.18 87.9532 167.316 88.1566 167.41 88.3807C167.503 88.6047 167.551 88.8449 167.552 89.0876Z" fill="white" stroke="#604697" stroke-linejoin="round"/>
<path d="M175.309 41.0281H24.6577V82.0144H175.309V41.0281Z" fill="white" stroke="#604697" stroke-linejoin="round"/>
<path d="M164.077 72.2952C165.981 71.8259 167.143 69.9027 166.674 67.9995C166.205 66.0963 164.281 64.9338 162.378 65.4031C160.475 65.8723 159.313 67.7955 159.782 69.6987C160.251 71.6019 162.174 72.7644 164.077 72.2952Z" fill="#D9D9D9" stroke="#604697" stroke-linejoin="round"/>
<path d="M152.552 67.3638C152.814 67.3638 153.026 67.1513 153.026 66.8892C153.026 66.6271 152.814 66.4146 152.552 66.4146C152.29 66.4146 152.077 66.6271 152.077 66.8892C152.077 67.1513 152.29 67.3638 152.552 67.3638Z" fill="#604697"/>
<path d="M154.883 66.8894C154.883 66.7956 154.855 66.7038 154.803 66.6257C154.751 66.5477 154.677 66.4868 154.59 66.4509C154.504 66.415 154.408 66.4056 154.316 66.4239C154.224 66.4422 154.139 66.4874 154.073 66.5538C154.007 66.6202 153.962 66.7048 153.943 66.7968C153.925 66.8889 153.934 66.9843 153.97 67.0711C154.006 67.1578 154.067 67.2319 154.145 67.2841C154.223 67.3362 154.315 67.3641 154.409 67.3641C154.534 67.363 154.654 67.3126 154.743 67.2238C154.832 67.1351 154.882 67.015 154.883 66.8894Z" fill="#604697"/>
<path d="M156.744 66.8892C156.744 66.7953 156.716 66.7035 156.664 66.6255C156.612 66.5474 156.537 66.4866 156.451 66.4507C156.364 66.4148 156.269 66.4054 156.176 66.4237C156.084 66.442 156 66.4872 155.933 66.5536C155.867 66.6199 155.822 66.7045 155.804 66.7966C155.785 66.8887 155.795 66.9841 155.831 67.0708C155.866 67.1575 155.927 67.2317 156.005 67.2838C156.083 67.336 156.175 67.3638 156.269 67.3638C156.395 67.3627 156.515 67.3124 156.603 67.2236C156.692 67.1348 156.743 67.0147 156.744 66.8892Z" fill="#604697"/>
<path d="M153.022 68.8215C153.022 68.7275 152.994 68.6356 152.942 68.5574C152.889 68.4793 152.815 68.4184 152.728 68.3826C152.641 68.3468 152.545 68.3377 152.453 68.3564C152.361 68.375 152.276 68.4206 152.21 68.4874C152.144 68.5542 152.099 68.6392 152.081 68.7315C152.064 68.8239 152.074 68.9194 152.11 69.0061C152.147 69.0928 152.208 69.1666 152.287 69.2182C152.365 69.2699 152.458 69.297 152.552 69.2962C152.677 69.2951 152.796 69.2446 152.884 69.1557C152.973 69.0668 153.022 68.9467 153.022 68.8215Z" fill="#604697"/>
<path d="M154.883 68.8216C154.883 68.7277 154.855 68.6359 154.803 68.5579C154.751 68.4798 154.677 68.419 154.59 68.3831C154.504 68.3471 154.408 68.3377 154.316 68.356C154.224 68.3744 154.139 68.4196 154.073 68.4859C154.007 68.5523 153.962 68.6369 153.943 68.729C153.925 68.821 153.934 68.9165 153.97 69.0032C154.006 69.0899 154.067 69.164 154.145 69.2162C154.223 69.2684 154.315 69.2962 154.409 69.2962C154.534 69.2951 154.654 69.2447 154.743 69.156C154.832 69.0672 154.882 68.9471 154.883 68.8216Z" fill="#604697"/>
<path d="M156.744 68.8213C156.744 68.7274 156.716 68.6357 156.664 68.5576C156.612 68.4796 156.537 68.4187 156.451 68.3828C156.364 68.3469 156.269 68.3375 156.176 68.3558C156.084 68.3741 156 68.4193 155.933 68.4857C155.867 68.5521 155.822 68.6367 155.804 68.7287C155.785 68.8208 155.795 68.9162 155.831 69.0029C155.866 69.0897 155.927 69.1638 156.005 69.216C156.083 69.2681 156.175 69.2959 156.269 69.2959C156.395 69.2948 156.515 69.2445 156.603 69.1557C156.692 69.0669 156.743 68.9469 156.744 68.8213Z" fill="#604697"/>
<path d="M153.022 70.7451C153.022 70.6511 152.994 70.5591 152.942 70.481C152.889 70.4029 152.815 70.342 152.728 70.3062C152.641 70.2704 152.545 70.2613 152.453 70.2799C152.361 70.2986 152.276 70.3442 152.21 70.411C152.144 70.4778 152.099 70.5628 152.081 70.6551C152.064 70.7475 152.074 70.843 152.11 70.9297C152.147 71.0163 152.208 71.0902 152.287 71.1418C152.365 71.1935 152.458 71.2206 152.552 71.2198C152.677 71.2186 152.796 71.1682 152.884 71.0793C152.973 70.9904 153.022 70.8703 153.022 70.7451Z" fill="#604697"/>
<path d="M154.883 70.7451C154.883 70.6513 154.855 70.5595 154.803 70.4815C154.751 70.4034 154.677 70.3426 154.59 70.3066C154.504 70.2707 154.408 70.2613 154.316 70.2796C154.224 70.2979 154.139 70.3431 154.073 70.4095C154.007 70.4759 153.962 70.5605 153.943 70.6525C153.925 70.7446 153.934 70.84 153.97 70.9268C154.006 71.0135 154.067 71.0876 154.145 71.1398C154.223 71.1919 154.315 71.2198 154.409 71.2198C154.534 71.2187 154.654 71.1683 154.743 71.0795C154.832 70.9908 154.882 70.8707 154.883 70.7451Z" fill="#604697"/>
<path d="M156.744 70.7449C156.744 70.651 156.716 70.5593 156.664 70.4812C156.612 70.4032 156.537 70.3423 156.451 70.3064C156.364 70.2705 156.269 70.2611 156.176 70.2794C156.084 70.2977 156 70.3429 155.933 70.4093C155.867 70.4757 155.822 70.5602 155.804 70.6523C155.785 70.7444 155.795 70.8398 155.831 70.9265C155.866 71.0133 155.927 71.0874 156.005 71.1395C156.083 71.1917 156.175 71.2195 156.269 71.2195C156.395 71.2184 156.515 71.1681 156.603 71.0793C156.692 70.9905 156.743 70.8704 156.744 70.7449Z" fill="#604697"/>
<path d="M130.232 70.2537C129.883 71.3337 129.201 72.2752 128.283 72.9431C127.365 73.611 126.259 73.9708 125.124 73.9709H76.2583" fill="white"/>
<path d="M130.232 70.2537C129.883 71.3337 129.201 72.2752 128.283 72.9431C127.365 73.611 126.259 73.9708 125.124 73.9709H76.2583" stroke="#604697" stroke-linejoin="round"/>
<path d="M87.019 63.2476H125.137C125.841 63.247 126.538 63.3852 127.189 63.6543C127.84 63.9234 128.431 64.3181 128.929 64.8159C129.427 65.3136 129.822 65.9046 130.092 66.5551C130.362 67.2057 130.5 67.9029 130.5 68.6071" fill="white"/>
<path d="M87.019 63.2476H125.137C125.841 63.247 126.538 63.3852 127.189 63.6543C127.84 63.9234 128.431 64.3181 128.929 64.8159C129.427 65.3136 129.822 65.9046 130.092 66.5551C130.362 67.2057 130.5 67.9029 130.5 68.6071" stroke="#604697" stroke-linejoin="round"/>
<path d="M73.5781 73.9709H48.1286C47.4244 73.9709 46.7271 73.8321 46.0766 73.5625C45.4261 73.2929 44.8351 72.8977 44.3373 72.3996C43.8396 71.9015 43.4449 71.3102 43.1758 70.6594C42.9067 70.0087 42.7685 69.3113 42.769 68.6071C42.769 67.1857 43.3337 65.8225 44.3388 64.8173C45.3439 63.8122 46.7072 63.2476 48.1286 63.2476H85.1457" fill="white"/>
<path d="M73.5781 73.9709H48.1286C47.4244 73.9709 46.7271 73.8321 46.0766 73.5625C45.4261 73.2929 44.8351 72.8977 44.3373 72.3996C43.8396 71.9015 43.4449 71.3102 43.1758 70.6594C42.9067 70.0087 42.7685 69.3113 42.769 68.6071C42.769 67.1857 43.3337 65.8225 44.3388 64.8173C45.3439 63.8122 46.7072 63.2476 48.1286 63.2476H85.1457" stroke="#604697" stroke-linejoin="round"/>
<path d="M116.963 65.7217V70.7368" stroke="#604697" stroke-width="0.5" stroke-linejoin="round"/>
<path d="M113.065 65.7678L108.361 70.4721" stroke="#604697" stroke-linejoin="round"/>
<path d="M108.361 65.7678L113.065 70.4721" stroke="#604697" stroke-linejoin="round"/>
<path d="M48.3767 69.9849H47.8685L47.4106 66.6541H47.7719L48.1625 69.4892L48.5363 66.6583H48.9017L49.2672 69.4934L49.6452 66.6541H49.9686L49.515 69.9849H49.0068L48.6917 67.7251L48.3767 69.9849Z" fill="#604697"/>
<path d="M51.4389 68.1284V68.4644H50.624V69.6489H51.6237V69.9849H50.2544V66.6541H51.6237V66.9901H50.624V68.1284H51.4389Z" fill="#604697"/>
<path d="M52.7154 66.6541C53.2321 66.6541 53.4379 66.9019 53.4379 67.3933V67.5487C53.4379 67.9015 53.3371 68.12 53.0472 68.2124C53.3707 68.3006 53.4925 68.5568 53.4925 68.9222V69.2036C53.5081 69.308 53.4995 69.4146 53.4671 69.515C53.4348 69.6155 53.3797 69.7071 53.3061 69.7828C53.2325 69.8584 53.1424 69.916 53.0428 69.9511C52.9433 69.9861 52.837 69.9977 52.7322 69.9849H51.9678V66.6541H52.7154ZM52.623 68.0696C52.917 68.0696 53.0724 67.9729 53.0724 67.6243V67.4311C53.0724 67.1329 52.9716 66.9901 52.7028 66.9901H52.3374V68.0696H52.623ZM52.7322 69.6489C53.0052 69.6489 53.127 69.506 53.127 69.1952V68.9012C53.127 68.5274 52.98 68.4056 52.6608 68.4056H52.3374V69.6657L52.7322 69.6489Z" fill="#604697"/>
<path d="M56.0124 67.4519V67.5443H55.6596V67.4351C55.6596 67.1326 55.5462 66.9562 55.2815 66.9562C55.0169 66.9562 54.8993 67.1327 54.8993 67.4309C54.8993 68.1785 56.0166 68.2499 56.0166 69.1866C56.0166 69.6906 55.773 70.0266 55.2647 70.0266C54.7565 70.0266 54.5171 69.699 54.5171 69.1866V68.9934H54.8657V69.2034C54.8657 69.5058 54.9875 69.6822 55.2563 69.6822C55.5252 69.6822 55.647 69.5058 55.647 69.2034C55.647 68.4641 54.5339 68.3927 54.5339 67.4519C54.5339 66.9394 54.7691 66.6118 55.2689 66.6118C55.7688 66.6118 56.0124 66.9646 56.0124 67.4519Z" fill="#604697"/>
<path d="M57.5293 68.1284V68.4644H56.7144V69.6489H57.7141V69.9849H56.3574V66.6541H57.7309V66.9901H56.7312V68.1284H57.5293Z" fill="#604697"/>
<path d="M58.4319 69.3128L58.3058 69.9849H57.9614L58.5999 66.6541H59.1375L59.7759 69.9849H59.4021L59.2761 69.3128H58.4319ZM58.4781 68.9936H59.2215L58.8477 67.0741L58.4781 68.9936Z" fill="#604697"/>
<path d="M60.8095 66.6541C61.3303 66.6541 61.5487 66.9187 61.5487 67.4143V67.6873C61.5487 68.0527 61.4227 68.2838 61.1287 68.372C61.4311 68.4644 61.5487 68.708 61.5487 69.065V69.5859C61.5381 69.722 61.5597 69.8587 61.6117 69.9849H61.2379C61.183 69.8521 61.1614 69.7079 61.1749 69.5649V69.065C61.1749 68.6912 60.9985 68.5694 60.6919 68.5694H60.4272V69.9933H60.0576V66.6625L60.8095 66.6541ZM60.7129 68.225C61.0069 68.225 61.1833 68.1284 61.1833 67.7671V67.4479C61.1833 67.1497 61.0741 66.9901 60.7969 66.9901H60.4356V68.225H60.7129Z" fill="#604697"/>
<path d="M63.4139 67.4561V67.7585H63.0778V67.4393C63.0778 67.141 62.9602 66.9562 62.6872 66.9562C62.4142 66.9562 62.2966 67.141 62.2966 67.4393V69.1992C62.2966 69.5016 62.4226 69.6822 62.6872 69.6822C62.9518 69.6822 63.0778 69.5016 63.0778 69.1992V68.7792H63.4306V69.1992C63.4306 69.7032 63.1912 70.0392 62.6788 70.0392C62.1664 70.0392 61.9312 69.7074 61.9312 69.1992V67.4729C61.9312 66.9688 62.1664 66.6328 62.6788 66.6328C63.1912 66.6328 63.4139 66.9646 63.4139 67.4561Z" fill="#604697"/>
<path d="M64.1233 68.4854V69.9849H63.7495V66.6541H64.1233V68.1536H64.9424V66.6541H65.312V69.9849H64.9424V68.4854H64.1233Z" fill="#604697"/>
<path d="M125.179 70.6025C125.108 70.6799 125.01 70.7276 124.905 70.7362C124.8 70.7447 124.695 70.7135 124.612 70.6487L122.684 68.8929L123.05 68.4519L125.116 70.0354C125.196 70.1046 125.247 70.2015 125.259 70.3066C125.27 70.4117 125.242 70.5174 125.179 70.6025Z" fill="#604697" stroke="#604697" stroke-linejoin="round"/>
<path d="M120.227 66.4902C119.998 66.7676 119.857 67.1066 119.82 67.4643C119.784 67.8221 119.855 68.1826 120.023 68.5003C120.192 68.8179 120.451 69.0785 120.767 69.249C121.084 69.4196 121.444 69.4924 121.802 69.4584C122.16 69.4244 122.5 69.285 122.779 69.0578C123.057 68.8307 123.263 68.526 123.368 68.1822C123.474 67.8385 123.475 67.4711 123.372 67.1266C123.269 66.7821 123.066 66.4759 122.789 66.2466C122.605 66.0937 122.393 65.9787 122.164 65.9081C121.936 65.8376 121.696 65.8129 121.457 65.8355C121.219 65.8582 120.988 65.9277 120.777 66.04C120.566 66.1524 120.379 66.3054 120.227 66.4902ZM122.827 68.6408C122.631 68.8769 122.369 69.0495 122.074 69.1369C121.78 69.2242 121.466 69.2224 121.173 69.1316C120.879 69.0409 120.619 68.8652 120.426 68.6268C120.232 68.3884 120.114 68.098 120.085 67.7922C120.056 67.4865 120.119 67.1791 120.265 66.9088C120.41 66.6385 120.633 66.4176 120.904 66.2738C121.176 66.13 121.484 66.0698 121.789 66.1009C122.095 66.1319 122.384 66.2528 122.621 66.4482C122.78 66.5785 122.911 66.7388 123.007 66.92C123.103 67.1011 123.162 67.2995 123.182 67.5037C123.201 67.7079 123.179 67.9139 123.118 68.1098C123.058 68.3057 122.958 68.4875 122.827 68.645V68.6408Z" fill="#604697" stroke="#604697" stroke-linejoin="round"/>
<path d="M175.305 41.0281H170.71V162.076H175.305V41.0281Z" fill="#D9D9D9" stroke="#604697" stroke-linejoin="round"/>
<path d="M175.305 65.1628H170.71V77.037H175.305V65.1628Z" fill="#8F8F8F" stroke="#604697" stroke-linejoin="round"/>
<path d="M175.309 41.0281H24.6577V55.1998H175.309V41.0281Z" fill="#A066FC" stroke="#604697" stroke-linejoin="round"/>
<path d="M175.309 41.0281H50.4307V46.0096H175.309V41.0281Z" fill="#604697" stroke="#604697" stroke-linejoin="round"/>
<path d="M172.42 42.2798L169.786 44.9176" stroke="white" stroke-linejoin="round"/>
<path d="M169.786 42.2798L172.42 44.9176" stroke="white" stroke-linejoin="round"/>
<path d="M164.762 42.5022H162.821V44.4427H164.762V42.5022Z" fill="#604697" stroke="white" stroke-linejoin="round"/>
<path d="M163.83 42.9685H161.889V44.909H163.83V42.9685Z" fill="#604697" stroke="white" stroke-linejoin="round"/>
<path d="M155.836 43.6951H152.48" stroke="white" stroke-linejoin="round"/>
<path d="M53.0894 42.1873V45.1989" stroke="white" stroke-linejoin="round"/>
<path d="M54.5971 43.6912H51.5854" stroke="white" stroke-linejoin="round"/>
<path d="M43.7778 90.4402H74.7801" stroke="#604697" stroke-linejoin="round"/>
<path d="M43.7778 93.1494H83.1471" stroke="#604697" stroke-linejoin="round"/>
<path d="M43.7778 96.3459H124.978" stroke="#604697" stroke-linejoin="round"/>
<path d="M43.7778 99.2986H124.978" stroke="#604697" stroke-linejoin="round"/>
<path d="M43.7778 102.251H124.978" stroke="#604697" stroke-linejoin="round"/>
<path d="M43.7778 109.144H74.7801" stroke="#604697" stroke-linejoin="round"/>
<path d="M43.7778 111.849H83.1471" stroke="#604697" stroke-linejoin="round"/>
<path d="M43.7778 115.05H124.978" stroke="#604697" stroke-linejoin="round"/>
<path d="M43.7778 118.003H124.978" stroke="#604697" stroke-linejoin="round"/>
<path d="M43.7778 120.955H124.978" stroke="#604697" stroke-linejoin="round"/>
<path d="M43.7778 127.844H74.7801" stroke="#604697" stroke-linejoin="round"/>
<path d="M43.7778 130.553H83.1471" stroke="#604697" stroke-linejoin="round"/>
<path d="M43.7778 133.749H124.978" stroke="#604697" stroke-linejoin="round"/>
<path d="M43.7778 136.702H124.978" stroke="#604697" stroke-linejoin="round"/>
<path d="M43.7778 139.655H124.978" stroke="#604697" stroke-linejoin="round"/>
<path d="M43.7778 146.543H74.7801" stroke="#604697" stroke-linejoin="round"/>
<path d="M43.7778 149.252H83.1471" stroke="#604697" stroke-linejoin="round"/>
<path d="M43.7778 152.449H124.978" stroke="#604697" stroke-linejoin="round"/>
<path d="M43.7778 155.402H124.978" stroke="#604697" stroke-linejoin="round"/>
<path d="M43.7778 158.354H124.978" stroke="#604697" stroke-linejoin="round"/>
<path d="M137.195 102.529H151.795" stroke="#604697" stroke-linejoin="round"/>
<path d="M137.195 104.49H151.795" stroke="#604697" stroke-linejoin="round"/>
<path d="M137.195 106.456H165.69" stroke="#604697" stroke-linejoin="round"/>
<path d="M137.195 108.421H165.69" stroke="#604697" stroke-linejoin="round"/>
<path d="M137.195 110.387H165.69" stroke="#604697" stroke-linejoin="round"/>
<path d="M137.195 112.353H165.69" stroke="#604697" stroke-linejoin="round"/>
<path d="M137.195 114.319H165.69" stroke="#604697" stroke-linejoin="round"/>
<path d="M137.195 116.284H165.69" stroke="#604697" stroke-linejoin="round"/>
<path d="M137.195 118.25H165.69" stroke="#604697" stroke-linejoin="round"/>
<path d="M137.195 120.216H165.69" stroke="#604697" stroke-linejoin="round"/>
<path d="M137.195 124.849H151.795" stroke="#604697" stroke-linejoin="round"/>
<path d="M137.195 126.811H151.795" stroke="#604697" stroke-linejoin="round"/>
<path d="M137.195 128.776H165.69" stroke="#604697" stroke-linejoin="round"/>
<path d="M137.195 130.742H165.69" stroke="#604697" stroke-linejoin="round"/>
<path d="M137.195 132.708H165.69" stroke="#604697" stroke-linejoin="round"/>
<path d="M137.195 134.673H165.69" stroke="#604697" stroke-linejoin="round"/>
<path d="M137.195 136.639H165.69" stroke="#604697" stroke-linejoin="round"/>
<path d="M137.195 138.605H165.69" stroke="#604697" stroke-linejoin="round"/>
<path d="M137.195 140.571H165.69" stroke="#604697" stroke-linejoin="round"/>
<path d="M137.195 142.536H165.69" stroke="#604697" stroke-linejoin="round"/>
<path d="M178.703 190.424H183.97" stroke="#604697" stroke-linejoin="round"/>
<path d="M41.7656 190.424H175.192" stroke="#604697" stroke-linejoin="round"/>
<path d="M12.271 190.424H38.2539" stroke="#604697" stroke-linejoin="round"/>
<path d="M99.3385 182.229C99.3385 182.229 103.833 182.494 104.891 182.229C105.95 181.964 108.067 180.246 108.331 181.57C108.596 182.893 107.143 184.745 106.231 185.799C105.32 186.854 101.611 187.786 100.544 188.319C99.4771 188.853 97.8978 190.172 96.5748 190.172C95.2517 190.172 94.4746 185.803 94.4746 185.803C94.4746 185.803 98.4397 183.426 99.5149 181.704" fill="white"/>
<path d="M99.3385 182.229C99.3385 182.229 103.833 182.494 104.891 182.229C105.95 181.964 108.067 180.246 108.331 181.57C108.596 182.893 107.143 184.745 106.231 185.799C105.32 186.854 101.611 187.786 100.544 188.319C99.4771 188.853 97.8978 190.172 96.5748 190.172C95.2517 190.172 94.4746 185.803 94.4746 185.803C94.4746 185.803 98.4397 183.426 99.5149 181.704" stroke="#604697" stroke-linejoin="round"/>
<path d="M108.096 181.17C105.399 186.144 100.955 186.988 100.955 186.988L95.3267 188.865C95.6543 189.592 96.0659 190.167 96.5405 190.167C97.8636 190.167 99.4513 188.844 100.51 188.315C101.568 187.786 105.273 186.858 106.197 185.795C107.121 184.732 108.579 182.888 108.297 181.565C108.284 181.412 108.211 181.271 108.096 181.17Z" fill="white" stroke="#604697" stroke-linejoin="round"/>
<path d="M51.6487 178.873C51.6487 178.873 48.2044 182.775 47.9104 183.913C47.6374 185.005 50.2668 186.593 50.9472 187.072C52.7384 188.307 54.6919 189.287 56.752 189.987C57.4829 190.239 61.0699 191.083 60.5995 189.306C60.2509 187.992 57.4955 186.475 57.1468 185.702C56.7982 184.93 56.2228 183.422 56.2228 183.422L51.6487 178.873Z" fill="white" stroke="#604697" stroke-linejoin="round"/>
<path d="M50.9472 187.093C52.7384 188.327 54.6919 189.308 56.752 190.008C57.3863 190.226 60.1752 190.89 60.5911 189.898C59.331 189.827 56.9116 189.428 53.816 187.66C51.7646 186.517 49.813 185.203 47.9818 183.732C47.9544 183.798 47.9306 183.866 47.9104 183.934C47.6374 185.022 50.2668 186.61 50.9472 187.093Z" fill="white" stroke="#604697" stroke-linejoin="round"/>
<path d="M60.9775 129.898L62.4098 140.47L63.6236 162.777C63.6236 162.777 59.919 166.348 57.8062 168.729C55.6935 171.111 50.8716 179.415 50.8716 179.415C50.8716 179.415 51.2538 181.494 53.6228 182.909C55.9917 184.325 57.277 184.106 57.277 184.106L58.9865 181.128L59.5998 179.784C59.5998 179.784 73.4145 166.482 73.6791 164.76C73.9437 163.038 75.313 144.422 75.313 144.422L86.1119 160.266C86.1119 160.266 87.4392 170.712 88.4893 173.232C89.5394 175.752 93.9161 183.947 93.9161 183.947L94.4453 185.795C95.0068 185.976 95.6053 186.01 96.1838 185.895C96.7624 185.779 97.3018 185.518 97.7509 185.135C98.6647 184.288 99.4677 183.328 100.141 182.279L98.675 180.507L98.4104 179.314C98.4104 179.314 94.8401 158.018 94.0463 155.507C93.2524 152.995 83.575 131.229 83.575 131.229L81.4748 125.412C81.4748 125.412 79.4923 126.731 73.4061 128.583C67.3199 130.435 60.9775 129.898 60.9775 129.898Z" fill="#604697" stroke="#604697" stroke-linejoin="round"/>
<path d="M74.448 132.149C78.8835 130.124 80.9795 128.104 81.9581 126.781L81.4583 125.403C81.4583 125.403 79.4758 126.722 73.3896 128.575C67.9292 130.229 62.305 129.986 61.1667 129.914L60.9609 129.944L61.3516 132.771C63.467 133.539 65.714 133.88 67.9621 133.773C70.2103 133.667 72.4149 133.114 74.448 132.149Z" fill="#A066FC" stroke="#604697" stroke-linejoin="round"/>
<path d="M58.6423 98.9795L48.2256 106.716L60.0284 128.839C60.1457 129.665 60.572 130.416 61.2213 130.939C62.3133 131.834 69.4538 131.637 72.0328 130.843C74.6839 129.93 77.2421 128.767 79.6731 127.369C80.7652 126.676 82.2521 125.185 81.853 123.896C81.5863 123.063 81.2211 122.265 80.7652 121.518L78.665 115.466C78.665 115.466 86.8976 115.961 87.9897 115.961C89.0817 115.961 92.8494 106.439 92.8494 106.439C92.8494 106.439 91.7573 106.338 91.3625 105.645C91.1147 105.167 90.9257 104.661 90.7996 104.137C89.6472 104.806 88.4549 105.404 87.2294 105.927C85.1293 106.817 82.9619 107.015 82.0715 106.62C81.181 106.225 75.918 101.462 74.7294 99.9707C73.5407 98.4796 73.3391 97.8706 72.9442 97.8706C72.5494 97.8706 65.2073 98.3704 64.3127 98.3704C63.418 98.3704 58.6423 98.9795 58.6423 98.9795Z" fill="#A066FC" stroke="#604697" stroke-linejoin="round"/>
<path d="M91.3788 105.629C91.1284 105.17 90.9338 104.684 90.7992 104.179L90.4884 104.536C90.4884 104.536 88.9007 105.725 89.2997 107.414C89.5475 108.468 90.7656 108.825 91.8409 108.917C92.4457 107.493 92.8699 106.422 92.8699 106.422C92.8699 106.422 91.7737 106.322 91.3788 105.629Z" fill="#A066FC" stroke="#604697" stroke-linejoin="round"/>
<path d="M74.552 103.587L74.0186 102.054" stroke="#604697" stroke-linejoin="round"/>
<path d="M78.6817 115.449L75.019 104.931" stroke="#604697" stroke-linejoin="round"/>
<path d="M58.7386 136.912C58.1616 136.435 57.6863 135.846 57.3409 135.182C56.9955 134.517 56.7871 133.79 56.7279 133.043C56.6688 132.297 56.7601 131.546 56.9966 130.835C57.233 130.125 57.6097 129.469 58.1044 128.906L98.7799 82.2371L104.996 87.3824L66.7234 136.038C66.263 136.629 65.6889 137.122 65.0348 137.487C64.3808 137.852 63.6602 138.082 62.9157 138.163C62.1711 138.245 61.4178 138.176 60.7004 137.961C59.9829 137.746 59.3158 137.389 58.7386 136.912Z" fill="#604697" stroke="#604697" stroke-linejoin="round"/>
<path d="M87.9598 94.6531L58.1042 128.906C57.6353 129.472 57.2825 130.125 57.0659 130.827C56.8493 131.53 56.7732 132.268 56.8418 132.999C56.9105 133.731 57.1226 134.442 57.466 135.092C57.8094 135.742 58.2775 136.317 58.8434 136.786C59.4093 137.255 60.0621 137.608 60.7644 137.824C61.4666 138.041 62.2047 138.117 62.9364 138.048C63.6681 137.98 64.3791 137.768 65.0288 137.424C65.6786 137.081 66.2543 136.613 66.7231 136.047L94.9574 100.147L87.9598 94.6531Z" fill="white" stroke="#604697" stroke-linejoin="round"/>
<path d="M132.71 47.5931C128.801 44.3555 124.02 42.3497 118.972 41.8295C113.923 41.3093 108.834 42.2979 104.347 44.6704C99.8603 47.0429 96.178 50.6927 93.7657 55.1581C91.3534 59.6235 90.3196 64.704 90.7949 69.757C91.2703 74.8101 93.2334 79.6087 96.4361 83.5459C99.6389 87.4831 103.937 90.3821 108.788 91.8763C113.638 93.3704 118.823 93.3926 123.686 91.94C128.549 90.4874 132.872 87.6252 136.108 83.7155C140.446 78.4743 142.526 71.7246 141.888 64.9507C141.251 58.1768 137.95 51.9333 132.71 47.5931ZM102.338 84.2699C98.9924 81.5003 96.5435 77.8008 95.3007 73.6393C94.0579 69.4778 94.077 65.0413 95.3556 60.8907C96.6343 56.7401 99.115 53.0619 102.484 50.3211C105.853 47.5804 109.959 45.9002 114.283 45.4932C118.607 45.0861 122.955 45.9704 126.776 48.0341C130.598 50.0979 133.721 53.2485 135.752 57.0876C137.783 60.9266 138.63 65.2816 138.185 69.6019C137.741 73.9222 136.026 78.0138 133.256 81.3591C131.417 83.5804 129.159 85.4177 126.609 86.7661C124.06 88.1145 121.271 88.9477 118.4 89.218C115.529 89.4883 112.633 89.1904 109.877 88.3414C107.121 87.4924 104.559 86.1089 102.338 84.2699Z" fill="#604697" stroke="#604697" stroke-linejoin="round"/>
<path d="M92.8655 106.422L96.6457 100.47C96.6457 100.47 98.0318 97.7905 98.4309 97.2949C98.8299 96.7992 100.413 96.2028 99.1239 96.2028C97.8344 96.2028 97.4438 96.9966 97.4438 96.9966V94.8965C97.4438 94.3 97.4438 92.8257 96.6541 92.9266C95.8645 93.0274 96.1459 94.1866 95.9947 95.3207C95.9275 95.8205 95.3605 98.0845 95.3605 98.0845L94.5204 94.7453C94.4824 94.583 94.3861 94.4403 94.2498 94.3443C94.1135 94.2483 93.9468 94.2056 93.7812 94.2244C93.6173 94.2496 93.4913 94.3252 93.4913 94.5101C93.6109 95.4112 93.7763 96.3056 93.987 97.1898L93.6803 98.87C93.6803 98.87 93.2603 96.2448 92.6513 95.5475C92.3825 95.2409 91.912 95.808 92.1094 96.3036C92.3068 96.7992 92.3993 99.5882 92.3993 99.5882L92.2985 100.777C92.2985 100.777 91.6054 99.5882 91.2106 98.9918C90.8158 98.3953 90.2151 98.6935 90.5133 99.5882C90.8116 100.483 91.5046 101.97 91.5046 101.97L90.799 104.137C90.799 104.137 89.6901 107.51 92.8655 106.422Z" fill="white" stroke="#604697" stroke-linejoin="round"/>
<path d="M97.4274 96.9968L96.7344 98.9794" stroke="#604697" stroke-linejoin="round"/>
<path d="M50.0985 105.498C50.0985 105.498 47.7296 106.124 47.7296 107.115C47.7296 108.107 47.7296 128.743 47.6288 129.436C47.528 130.129 69.256 127.054 69.256 127.054L69.7516 123.694L56.4578 121.014L56.357 111.488" fill="#A066FC"/>
<path d="M50.0985 105.498C50.0985 105.498 47.7296 106.124 47.7296 107.115C47.7296 108.107 47.7296 128.743 47.6288 129.436C47.528 130.129 69.256 127.054 69.256 127.054L69.7516 123.694L56.4578 121.014L56.357 111.488" stroke="#604697" stroke-linejoin="round"/>
<path d="M67.5678 123.248L67.4712 127.26L67.5384 127.302L69.2563 127.062L69.7519 123.702L67.5678 123.248Z" fill="#A066FC" stroke="#604697" stroke-linejoin="round"/>
<path d="M69.7518 123.668C69.7518 123.668 72.5282 120.098 73.7211 120.098C74.914 120.098 76.6949 120.199 77.0813 120.199C77.4678 120.199 78.3708 119.997 77.8752 120.695C77.3795 121.392 75.691 121.287 75.691 121.287L77.9004 122.492C78.0518 122.574 78.1824 122.689 78.2822 122.829C78.382 122.969 78.4482 123.13 78.4758 123.3C78.5034 123.469 78.4917 123.643 78.4414 123.808C78.3912 123.972 78.3038 124.123 78.186 124.248C77.6862 124.744 76.3967 124.744 76.3967 124.744C76.3967 124.744 75.0106 127.024 74.1159 127.222C73.2213 127.419 69.4536 126.529 69.4536 126.529L69.7518 123.668Z" fill="white" stroke="#604697" stroke-linejoin="round"/>
<path d="M67.425 105.49L67.6812 98.9878L65.1484 98.1436L65.5685 100.76L67.425 105.49Z" fill="#A066FC" stroke="#604697" stroke-linejoin="round"/>
<path d="M67.681 98.9878L69.5375 102.789L67.5928 102.617L67.681 98.9878Z" fill="#A066FC" stroke="#604697" stroke-linejoin="round"/>
<path d="M68.861 94.0104C68.021 94.2624 65.9881 99.16 65.9881 99.16L67.4246 105.49L65.148 102.281L64.5222 99.1978L59.1542 96.9632L59.2382 93.4182C58.7506 93.1541 58.2818 92.8566 57.8353 92.5277C56.8798 91.8651 56.0647 91.02 55.4369 90.0412C54.2567 88.0166 52.5682 84.8958 55.1849 81.5188C57.7051 78.2594 60.3177 78.0662 63.1655 77.9023H63.4763C63.4763 77.9023 66.7693 79.9311 66.8365 80.9434C66.9037 81.9556 67.3447 83.3921 68.273 83.9802C69.2013 84.5682 70.4656 83.8962 70.4656 85.1604C70.4439 85.5604 70.3428 85.9521 70.1683 86.3126C69.9938 86.6732 69.7493 86.9954 69.4491 87.2606C69.4491 87.2606 70.2891 91.1458 70.7092 92.4101C71.1292 93.6744 69.7053 93.7542 68.861 94.0104Z" fill="white" stroke="#604697" stroke-linejoin="round"/>
<path d="M66.3575 84.0724C66.5759 84.4042 66.6263 84.757 66.4667 84.8579C66.3071 84.9587 66.0089 84.7739 65.7947 84.4378C65.5805 84.1018 65.5259 83.7532 65.6813 83.6524C65.8367 83.5516 66.1391 83.7406 66.3575 84.0724Z" fill="#604697"/>
<path d="M64.3882 83.8794C64.3882 83.8794 64.4722 82.4429 65.8205 82.4429" stroke="#604697" stroke-linejoin="round"/>
<path d="M68.2691 88.945C68.2691 88.945 65.9926 89.4491 65.5684 88.105" stroke="#604697" stroke-linejoin="round"/>
<path d="M62.6992 80.9266C63.4595 81.6826 60.6705 83.5391 60.2505 84.3876C59.8304 85.236 60.5907 86.5801 60.6705 87.1724C60.7503 87.7646 58.7342 89.4489 58.7342 89.4489L57.9697 90.2092L58.562 92.5739C58.562 92.5739 58.2931 92.5739 57.8353 92.5277C56.8798 91.8651 56.0647 91.02 55.4369 90.0412C54.2567 88.0166 52.5682 84.8958 55.1849 81.5188C57.7051 78.2594 60.3177 78.0662 63.1655 77.9023C62.674 78.2342 62.0524 78.3812 61.6996 78.7424C61.1787 79.2338 61.939 80.1621 62.6992 80.9266Z" fill="#A6A6A6" stroke="#604697" stroke-linejoin="round"/>
<path d="M59.7469 89.7892C59.7469 89.7892 58.4868 87.8487 56.9579 88.9491C55.429 90.0496 58.218 92.5782 58.7304 92.9982C59.2429 93.4182 60.8306 91.8179 60.8306 91.8179C61.1226 92.2397 61.496 92.599 61.9288 92.8745C62.3615 93.15 62.845 93.3363 63.3507 93.4224" fill="white"/>
<path d="M59.7469 89.7892C59.7469 89.7892 58.4868 87.8487 56.9579 88.9491C55.429 90.0496 58.218 92.5782 58.7304 92.9982C59.2429 93.4182 60.8306 91.8179 60.8306 91.8179C61.1226 92.2397 61.496 92.599 61.9288 92.8745C62.3615 93.15 62.845 93.3363 63.3507 93.4224" stroke="#604697" stroke-linejoin="round"/>
<path d="M61.2632 79.4059C61.2632 79.4059 57.6342 83.4592 56.7059 85.3157C56.0765 86.626 55.5403 87.979 55.1014 89.3648C55.1014 89.3648 53.2449 89.1968 52.1612 88.0165C51.0776 86.8362 52.2452 82.1907 54.3538 79.9142C55.6693 78.5127 57.2113 77.3426 58.9153 76.4531C58.9153 76.4531 56.2145 76.5371 57.2352 75.7769C58.2558 75.0166 60.7802 74.6806 62.4687 75.5249C62.6917 75.6114 62.8953 75.7415 63.0673 75.9076C63.2394 76.0738 63.3766 76.2726 63.4709 76.4924C63.5652 76.7123 63.6146 76.9487 63.6164 77.1879C63.6181 77.4271 63.5721 77.6643 63.481 77.8854L61.2632 79.4059Z" fill="#604697" stroke="#604697" stroke-linejoin="round"/>
<path d="M58.6461 96.4551L56.9072 100.147L63.7117 104.053L64.8626 98.9458L58.6461 96.4551Z" fill="#A066FC" stroke="#604697" stroke-linejoin="round"/>
</svg>
