<svg width="200" height="200" viewBox="0 0 200 200" fill="none" xmlns="http://www.w3.org/2000/svg">
<path d="M98.8501 189.757C118.495 189.757 134.42 188.092 134.42 186.037C134.42 183.983 118.495 182.318 98.8501 182.318C79.2054 182.318 63.2803 183.983 63.2803 186.037C63.2803 188.092 79.2054 189.757 98.8501 189.757Z" fill="#A066FC"/>
<path opacity="0.5" d="M98.8501 189.757C118.495 189.757 134.42 188.092 134.42 186.037C134.42 183.983 118.495 182.318 98.8501 182.318C79.2054 182.318 63.2803 183.983 63.2803 186.037C63.2803 188.092 79.2054 189.757 98.8501 189.757Z" fill="white"/>
<path d="M179.229 155.303V149.626H172.896V138.611H163.796V93.8718H155.092V120.914H147.179V111.234H136.498V136.272H132.146V144.283H121.861V141.28H125.023V139.61H111.967V141.614H113.552V150.295H106.824V133.933H83.0877V145.618H66.07V136.937H59.7418V146.622H46.2903V128.926H40.7526V122.918H30.8581V150.295H20.9683V156.303H14.6401V174.664H191.494V155.303H179.229Z" stroke="#604697" stroke-miterlimit="10"/>
<path d="M34.7497 128.847H32.6108V130.986H34.7497V128.847Z" fill="#604697"/>
<path d="M39.2043 128.847H37.0654V130.986H39.2043V128.847Z" fill="#604697"/>
<path d="M34.7497 133.306H32.6108V135.445H34.7497V133.306Z" fill="#604697"/>
<path d="M39.2043 133.306H37.0654V135.445H39.2043V133.306Z" fill="#604697"/>
<path d="M44.0168 133.306H41.8779V135.445H44.0168V133.306Z" fill="#604697"/>
<path d="M44.0168 137.76H41.8779V139.899H44.0168V137.76Z" fill="#604697"/>
<path d="M44.0168 142.219H41.8779V144.358H44.0168V142.219Z" fill="#604697"/>
<path d="M44.0168 146.673H41.8779V148.812H44.0168V146.673Z" fill="#604697"/>
<path d="M44.0168 151.133H41.8779V153.271H44.0168V151.133Z" fill="#604697"/>
<path d="M44.0168 155.592H41.8779V157.73H44.0168V155.592Z" fill="#604697"/>
<path d="M34.7497 137.76H32.6108V139.899H34.7497V137.76Z" fill="#604697"/>
<path d="M39.2043 137.76H37.0654V139.899H39.2043V137.76Z" fill="#604697"/>
<path d="M34.7497 142.219H32.6108V144.358H34.7497V142.219Z" fill="#604697"/>
<path d="M39.2043 142.219H37.0654V144.358H39.2043V142.219Z" fill="#604697"/>
<path d="M34.7497 146.673H32.6108V148.812H34.7497V146.673Z" fill="#604697"/>
<path d="M39.2043 146.673H37.0654V148.812H39.2043V146.673Z" fill="#604697"/>
<path d="M34.7497 151.133H32.6108V153.271H34.7497V151.133Z" fill="#604697"/>
<path d="M24.9435 153.629H22.8047V155.768H24.9435V153.629Z" fill="#604697"/>
<path d="M55.7848 148.812H53.646V150.951H55.7848V148.812Z" fill="#604697"/>
<path d="M60.0627 148.812H57.9238V150.951H60.0627V148.812Z" fill="#604697"/>
<path d="M158.654 96.3967H156.515V98.5356H158.654V96.3967Z" fill="#604697"/>
<path d="M161.327 96.3967H159.188V98.5356H161.327V96.3967Z" fill="#604697"/>
<path d="M158.654 100.856H156.515V102.995H158.654V100.856Z" fill="#604697"/>
<path d="M161.327 100.856H159.188V102.995H161.327V100.856Z" fill="#604697"/>
<path d="M158.654 105.315H156.515V107.454H158.654V105.315Z" fill="#604697"/>
<path d="M161.327 105.315H159.188V107.454H161.327V105.315Z" fill="#604697"/>
<path d="M158.654 109.769H156.515V111.908H158.654V109.769Z" fill="#604697"/>
<path d="M161.327 109.769H159.188V111.908H161.327V109.769Z" fill="#604697"/>
<path d="M158.654 114.228H156.515V116.367H158.654V114.228Z" fill="#604697"/>
<path d="M161.327 114.228H159.188V116.367H161.327V114.228Z" fill="#604697"/>
<path d="M158.654 118.682H156.515V120.821H158.654V118.682Z" fill="#604697"/>
<path d="M161.327 118.682H159.188V120.821H161.327V118.682Z" fill="#604697"/>
<path d="M158.654 123.142H156.515V125.28H158.654V123.142Z" fill="#604697"/>
<path d="M161.327 123.142H159.188V125.28H161.327V123.142Z" fill="#604697"/>
<path d="M158.654 127.601H156.515V129.739H158.654V127.601Z" fill="#604697"/>
<path d="M161.327 127.601H159.188V129.739H161.327V127.601Z" fill="#604697"/>
<path d="M158.654 132.055H156.515V134.194H158.654V132.055Z" fill="#604697"/>
<path d="M161.327 132.055H159.188V134.194H161.327V132.055Z" fill="#604697"/>
<path d="M140.469 132.055H138.33V134.194H140.469V132.055Z" fill="#604697"/>
<path d="M145.105 132.055H142.966V134.194H145.105V132.055Z" fill="#604697"/>
<path d="M149.74 132.055H147.602V134.194H149.74V132.055Z" fill="#604697"/>
<path d="M140.469 141.684H138.33V143.823H140.469V141.684Z" fill="#604697"/>
<path d="M145.105 141.684H142.966V143.823H145.105V141.684Z" fill="#604697"/>
<path d="M149.74 141.684H147.602V143.823H149.74V141.684Z" fill="#604697"/>
<path d="M140.469 151.309H138.33V153.448H140.469V151.309Z" fill="#604697"/>
<path d="M145.105 151.309H142.966V153.448H145.105V151.309Z" fill="#604697"/>
<path d="M149.74 151.309H147.602V153.448H149.74V151.309Z" fill="#604697"/>
<path d="M158.654 136.514H156.515V138.653H158.654V136.514Z" fill="#604697"/>
<path d="M161.327 136.514H159.188V138.653H161.327V136.514Z" fill="#604697"/>
<path d="M158.654 140.968H156.515V143.107H158.654V140.968Z" fill="#604697"/>
<path d="M161.327 140.968H159.188V143.107H161.327V140.968Z" fill="#604697"/>
<path d="M158.654 145.427H156.515V147.566H158.654V145.427Z" fill="#604697"/>
<path d="M161.327 145.427H159.188V147.566H161.327V145.427Z" fill="#604697"/>
<path d="M165.786 140.968H163.647V143.107H165.786V140.968Z" fill="#604697"/>
<path d="M170.78 140.968H168.642V143.107H170.78V140.968Z" fill="#604697"/>
<path d="M165.786 145.251H163.647V147.39H165.786V145.251Z" fill="#604697"/>
<path d="M170.78 145.251H168.642V147.39H170.78V145.251Z" fill="#604697"/>
<path d="M165.786 149.528H163.647V151.667H165.786V149.528Z" fill="#604697"/>
<path d="M170.78 149.528H168.642V151.667H170.78V149.528Z" fill="#604697"/>
<path d="M165.786 153.806H163.647V155.945H165.786V153.806Z" fill="#604697"/>
<path d="M170.78 153.806H168.642V155.945H170.78V153.806Z" fill="#604697"/>
<path d="M158.654 149.886H156.515V152.025H158.654V149.886Z" fill="#604697"/>
<path d="M161.327 149.886H159.188V152.025H161.327V149.886Z" fill="#604697"/>
<path d="M158.654 154.341H156.515V156.48H158.654V154.341Z" fill="#604697"/>
<path d="M161.327 154.341H159.188V156.48H161.327V154.341Z" fill="#604697"/>
<path d="M39.2043 151.133H37.0654V153.271H39.2043V151.133Z" fill="#604697"/>
<path d="M34.7497 155.592H32.6108V157.73H34.7497V155.592Z" fill="#604697"/>
<path d="M39.2043 155.592H37.0654V157.73H39.2043V155.592Z" fill="#604697"/>
<path d="M34.7497 160.046H32.6108V162.185H34.7497V160.046Z" fill="#604697"/>
<path d="M39.2043 160.046H37.0654V162.185H39.2043V160.046Z" fill="#604697"/>
<path d="M34.7497 164.505H32.6108V166.644H34.7497V164.505Z" fill="#604697"/>
<path d="M39.2043 164.505H37.0654V166.644H39.2043V164.505Z" fill="#604697"/>
<path d="M151.879 165.844V174.664H134.052V157.126H151.879V164.272" stroke="#604697" stroke-miterlimit="10"/>
<path d="M184.687 172V174.664H166.856V165.393H170.538" stroke="#604697" stroke-miterlimit="10"/>
<path d="M172.71 165.393H184.687V170.554" stroke="#604697" stroke-miterlimit="10"/>
<path d="M53.2834 165.393H65.9491V174.664H48.1177V165.393H51.591" stroke="#604697" stroke-miterlimit="10"/>
<path d="M25.3903 165.393H27.0827V174.664H20.4849V165.393H24.0604" stroke="#604697" stroke-miterlimit="10"/>
<path d="M144.389 157.126H141.539V174.664H144.389V157.126Z" stroke="#604697" stroke-miterlimit="10"/>
<path d="M122.233 159.511H119.434V154.875H128.882V159.511H124.772" stroke="#604697" stroke-miterlimit="10"/>
<path d="M72.189 151.667H61.3135V155.592H72.189V151.667Z" stroke="#604697" stroke-miterlimit="10"/>
<path d="M67.5533 151.667H66.4839V174.664H67.5533V151.667Z" stroke="#604697" stroke-miterlimit="10"/>
<path d="M100.914 11.9683C85.0063 11.9683 69.75 18.2876 58.5015 29.5362C47.253 40.7847 40.9336 56.041 40.9336 71.9488C40.9336 101.869 96.2645 172.381 96.2645 172.381H100.914C100.914 172.381 160.895 105.073 160.895 71.9488C160.895 56.041 154.575 40.7847 143.327 29.5362C132.078 18.2876 116.822 11.9683 100.914 11.9683ZM100.914 101.242C95.1206 101.242 89.4571 99.5236 84.6399 96.3049C79.8227 93.0862 76.0682 88.5112 73.8511 83.1587C71.634 77.8061 71.0539 71.9163 72.1842 66.2341C73.3144 60.5518 76.1043 55.3323 80.201 51.2357C84.2977 47.139 89.5171 44.3491 95.1994 43.2188C100.882 42.0886 106.771 42.6687 112.124 44.8858C117.477 47.1029 122.052 50.8574 125.27 55.6746C128.489 60.4918 130.207 66.1552 130.207 71.9488C130.207 75.7956 129.449 79.6047 127.977 83.1587C126.505 86.7127 124.347 89.9419 121.627 92.662C118.907 95.3821 115.678 97.5397 112.124 99.0118C108.57 100.484 104.761 101.242 100.914 101.242Z" fill="#604697" stroke="#604697" stroke-linecap="round" stroke-linejoin="round"/>
<path d="M96.2647 11.9683C80.3569 11.9683 65.1006 18.2876 53.8521 29.5362C42.6035 40.7847 36.2842 56.041 36.2842 71.9488C36.2842 105.073 96.2647 172.381 96.2647 172.381C96.2647 172.381 156.245 105.073 156.245 71.9488C156.245 56.041 149.926 40.7847 138.677 29.5362C127.429 18.2876 112.173 11.9683 96.2647 11.9683ZM96.2647 101.242C90.4712 101.242 84.8077 99.5236 79.9905 96.3049C75.1733 93.0862 71.4188 88.5112 69.2017 83.1587C66.9846 77.8061 66.4045 71.9163 67.5348 66.2341C68.665 60.5518 71.4549 55.3323 75.5516 51.2357C79.6482 47.139 84.8677 44.3491 90.55 43.2188C96.2322 42.0886 102.122 42.6687 107.475 44.8858C112.827 47.1029 117.402 50.8574 120.621 55.6746C123.84 60.4918 125.558 66.1552 125.558 71.9488C125.558 79.7177 122.471 87.1685 116.978 92.662C111.484 98.1554 104.034 101.242 96.2647 101.242Z" fill="#A066FC" stroke="#604697" stroke-linecap="round" stroke-linejoin="round"/>
<path d="M77.4009 108.504L84.0266 97.2288L84.1429 101.297L80.1907 109.202L77.4009 108.504Z" fill="white" stroke="#604697" stroke-linecap="round" stroke-linejoin="round"/>
<path d="M84.1432 146.594C83.7701 148.558 82.9135 150.397 81.651 151.946C79.5354 154.564 76.6712 159.669 76.5363 164.523C76.4015 169.378 70.8033 182.81 71.4217 183.805C72.0401 184.8 77.5221 186.172 79.6376 186.172C80.7489 186.172 82.5902 186.6 83.3248 185.516C83.3667 185.456 78.9774 183.192 78.6752 182.973C78.3729 182.755 75.9272 181.034 76.0063 180.816C76.0063 180.816 81.7439 165.267 84.6081 161.287C87.4723 157.307 89.5879 154.313 90.4574 151.825C91.3269 149.338 92.108 146.98 92.108 146.98L84.1432 146.594Z" fill="white"/>
<mask id="mask0_69_188" style="mask-type:luminance" maskUnits="userSpaceOnUse" x="71" y="146" width="22" height="41">
<path d="M84.1432 146.594C83.7701 148.558 82.9135 150.397 81.651 151.946C79.5354 154.564 76.6712 159.669 76.5363 164.523C76.4015 169.378 70.8033 182.81 71.4217 183.805C72.0401 184.8 77.5221 186.172 79.6376 186.172C80.7489 186.172 82.5902 186.6 83.3248 185.516C83.3667 185.456 78.9774 183.192 78.6752 182.973C78.3729 182.755 75.9272 181.034 76.0063 180.816C76.0063 180.816 81.7439 165.267 84.6081 161.287C87.4723 157.307 89.5879 154.313 90.4574 151.825C91.3269 149.338 92.108 146.98 92.108 146.98L84.1432 146.594Z" fill="white"/>
</mask>
<g mask="url(#mask0_69_188)">
<g style="mix-blend-mode:multiply">
<path d="M82.5854 150.616C84.9949 151.648 87.5261 152.368 90.1179 152.76C90.2574 152.439 90.3829 152.127 90.4899 151.83C91.364 149.338 92.1079 146.971 92.1079 146.971L84.1431 146.599C83.8771 148.023 83.3489 149.385 82.5854 150.616Z" fill="#A066FC"/>
</g>
</g>
<path d="M84.1432 146.594C83.7701 148.558 82.9135 150.397 81.651 151.946C79.5354 154.564 76.6712 159.669 76.5363 164.523C76.4015 169.378 70.8033 182.81 71.4217 183.805C72.0401 184.8 77.5221 186.172 79.6376 186.172C80.7489 186.172 82.5902 186.6 83.3248 185.516C83.3667 185.456 78.9774 183.192 78.6752 182.973C78.3729 182.755 75.9272 181.034 76.0063 180.816C76.0063 180.816 81.7439 165.267 84.6081 161.287C87.4723 157.307 89.5879 154.313 90.4574 151.825C91.3269 149.338 92.108 146.98 92.108 146.98L84.1432 146.594Z" stroke="#604697" stroke-linecap="round" stroke-linejoin="round"/>
<path d="M102.161 147.612C103.375 149.201 104.174 151.068 104.485 153.043C105.011 156.368 106.889 161.91 110.418 165.253C113.948 168.596 120.183 182.657 121.336 182.857C122.689 183.098 124.753 181.369 125.758 180.667C127.036 179.774 129.97 177.951 130.407 176.375C130.933 174.562 129.068 175.473 128.282 176.059C127.264 176.817 122.182 177.454 122.182 177.454C122.182 177.454 114.459 161.859 113.417 157.07C112.376 152.281 111.558 148.7 110.298 146.376C109.037 144.051 107.773 141.926 107.773 141.926L102.161 147.612Z" fill="white"/>
<mask id="mask1_69_188" style="mask-type:luminance" maskUnits="userSpaceOnUse" x="102" y="141" width="29" height="42">
<path d="M102.161 147.612C103.375 149.201 104.174 151.068 104.485 153.043C105.011 156.368 106.889 161.91 110.418 165.253C113.948 168.596 120.183 182.657 121.336 182.857C122.689 183.098 124.753 181.369 125.758 180.667C127.036 179.774 129.97 177.951 130.407 176.375C130.933 174.562 129.068 175.473 128.282 176.059C127.264 176.817 122.182 177.454 122.182 177.454C122.182 177.454 114.459 161.859 113.417 157.07C112.376 152.281 111.558 148.7 110.298 146.376C109.037 144.051 107.773 141.926 107.773 141.926L102.161 147.612Z" fill="white"/>
</mask>
<g mask="url(#mask1_69_188)">
<g style="mix-blend-mode:multiply">
<path d="M110.298 146.389C109.028 144.065 107.768 141.94 107.768 141.94L102.161 147.612C103.113 148.858 103.807 150.28 104.202 151.797C106.732 151.346 109.221 150.685 111.641 149.821C111.311 148.634 110.861 147.485 110.298 146.389Z" fill="#A066FC"/>
</g>
</g>
<path d="M102.161 147.612C103.375 149.201 104.174 151.068 104.485 153.043C105.011 156.368 106.889 161.91 110.418 165.253C113.948 168.596 120.183 182.657 121.336 182.857C122.689 183.098 124.753 181.369 125.758 180.667C127.036 179.774 129.97 177.951 130.407 176.375C130.933 174.562 129.068 175.473 128.282 176.059C127.264 176.817 122.182 177.454 122.182 177.454C122.182 177.454 114.459 161.859 113.417 157.07C112.376 152.281 111.558 148.7 110.298 146.376C109.037 144.051 107.773 141.926 107.773 141.926L102.161 147.612Z" stroke="#604697" stroke-linecap="round" stroke-linejoin="round"/>
<path d="M130.412 176.375C130.937 174.562 129.073 175.473 128.287 176.059C127.269 176.817 122.187 177.454 122.187 177.454C122.187 177.454 121.638 176.245 120.838 174.422C119.848 175.206 118.752 175.846 117.583 176.324C119.327 179.76 120.773 182.778 121.34 182.875C122.693 183.117 124.758 181.388 125.762 180.685C127.027 179.774 129.961 177.951 130.412 176.375Z" fill="white" stroke="#604697" stroke-linecap="round" stroke-linejoin="round"/>
<path d="M84.3107 121.746L79.9912 145.585C81.9395 146.832 84.0139 147.87 86.1799 148.682C89.5834 149.919 95.4792 149.612 95.4792 149.612L97.804 138.011L98.734 148.84C98.734 148.84 103.221 149.305 106.471 148.687C109.721 148.068 114.98 144.66 114.98 144.66L104.751 125.634L102.426 121.147L84.3247 120.682L84.3107 121.746Z" fill="white"/>
<mask id="mask2_69_188" style="mask-type:luminance" maskUnits="userSpaceOnUse" x="79" y="120" width="36" height="30">
<path d="M84.3107 121.746L79.9912 145.585C81.9395 146.832 84.0139 147.87 86.1799 148.682C89.5834 149.919 95.4792 149.612 95.4792 149.612L97.804 138.011L98.734 148.84C98.734 148.84 103.221 149.305 106.471 148.687C109.721 148.068 114.98 144.66 114.98 144.66L104.751 125.634L102.426 121.147L84.3247 120.682L84.3107 121.746Z" fill="white"/>
</mask>
<g mask="url(#mask2_69_188)">
<g style="mix-blend-mode:multiply">
<path d="M97.9529 135.43C99.5245 133.463 100.092 121.9 100.092 121.9L84.3108 120.705V121.746L82.3394 132.566C86.7565 133.989 96.73 136.955 97.9529 135.43Z" fill="#A066FC"/>
</g>
</g>
<path d="M84.3107 121.746L79.9912 145.585C81.9395 146.832 84.0139 147.87 86.1799 148.682C89.5834 149.919 95.4792 149.612 95.4792 149.612L97.804 138.011L98.734 148.84C98.734 148.84 103.221 149.305 106.471 148.687C109.721 148.068 114.98 144.66 114.98 144.66L104.751 125.634L102.426 121.147L84.3247 120.682L84.3107 121.746Z" stroke="#604697" stroke-miterlimit="10"/>
<path d="M110.995 102.925L119.829 105.25L123.433 94.5554L109.949 91.998L106.926 101.879L110.995 102.925Z" fill="#604697" stroke="#604697" stroke-linecap="round" stroke-linejoin="round"/>
<path d="M112.72 97.9773L118.337 99.3489" stroke="white" stroke-linecap="round" stroke-linejoin="round"/>
<path d="M112.176 99.3491L117.793 100.721" stroke="white" stroke-linecap="round" stroke-linejoin="round"/>
<path d="M101.812 103.506C101.812 103.506 104.601 101.995 105.531 100.716C106.461 99.4374 107.507 97.2288 107.972 96.8801C108.437 96.5314 110.762 95.369 111.227 95.0202C111.692 94.6715 112.39 95.369 111.576 96.0664C110.762 96.7639 109.019 98.275 109.019 98.275C109.019 98.275 109.484 100.367 108.902 101.065C108.591 101.449 108.241 101.8 107.856 102.111L110.995 102.925C110.995 102.925 108.902 104.436 107.972 104.668C107.051 104.846 106.119 104.962 105.183 105.017L101.347 108.039L101.812 103.506Z" fill="white" stroke="#604697" stroke-linecap="round" stroke-linejoin="round"/>
<path d="M89.2575 78.114C89.2575 78.114 85.5378 83.5308 84.6079 89.873C83.6779 96.2151 84.301 121.746 84.301 121.746C84.301 121.746 89.2482 123.755 93.1353 123.755C97.0225 123.755 102.728 124.067 102.9 121.895C103.072 119.724 101.816 94.8202 100.11 88.785C98.928 84.8471 97.2068 81.0917 94.9952 77.6258C94.9952 77.6258 91.1174 75.0173 89.2575 78.114Z" fill="#604697" stroke="#604697" stroke-linecap="round" stroke-linejoin="round"/>
<path d="M97.7435 82.8149L92.7451 114.665L97.1623 116.292L99.1384 85.721L97.7435 82.8149Z" fill="white" stroke="#604697" stroke-linecap="round" stroke-linejoin="round"/>
<path d="M86.6772 65.7738C86.6772 65.7738 87.2957 68.7124 88.5371 70.2607C89.7786 71.809 92.0941 72.5855 92.0941 72.5855L91.4292 76.1053L95.7627 78.737L97.3528 71.1906L97.8178 62.2168C97.8178 62.2168 86.9655 64.072 86.6772 65.7738Z" fill="white" stroke="#604697" stroke-linecap="round" stroke-linejoin="round"/>
<path d="M86.6772 65.7739C86.6772 65.7739 87.2957 68.7124 88.5371 70.2608C89.7786 71.8091 92.0941 72.5856 92.0941 72.5856C92.0941 72.5856 95.8138 71.5022 96.116 69.0286C96.3392 67.2431 96.0045 64.179 95.7952 62.6028C92.6381 63.2258 86.9004 64.5417 86.6772 65.7739Z" fill="#604697" stroke="#604697" stroke-linecap="round" stroke-linejoin="round"/>
<path d="M93.01 66.5411C93.01 66.5411 91.4616 64.6813 90.5364 65.4578C89.6111 66.2343 89.9133 68.401 91.0013 69.4844C92.0893 70.5677 93.4796 69.6378 93.4796 69.6378C93.4796 69.6378 94.098 71.6465 95.1814 72.5764C96.2647 73.5063 99.9752 74.1247 101.226 73.1948C102.477 72.2649 101.998 68.8613 101.998 68.8613C101.998 68.8613 104.165 67.7779 104.011 67.0015C103.858 66.225 102.305 65.6066 102.305 64.9928C102.292 64.5244 102.24 64.0579 102.151 63.5979V62.3564L95.0372 63.9048C95.0372 63.9048 94.1026 67.4711 93.01 66.5411Z" fill="white"/>
<mask id="mask3_69_188" style="mask-type:luminance" maskUnits="userSpaceOnUse" x="89" y="62" width="16" height="12">
<path d="M93.01 66.5411C93.01 66.5411 91.4616 64.6813 90.5364 65.4578C89.6111 66.2343 89.9133 68.401 91.0013 69.4844C92.0893 70.5677 93.4796 69.6378 93.4796 69.6378C93.4796 69.6378 94.098 71.6465 95.1814 72.5764C96.2647 73.5063 99.9752 74.1247 101.226 73.1948C102.477 72.2649 101.998 68.8613 101.998 68.8613C101.998 68.8613 104.165 67.7779 104.011 67.0015C103.858 66.225 102.305 65.6066 102.305 64.9928C102.292 64.5244 102.24 64.0579 102.151 63.5979V62.3564L95.0372 63.9048C95.0372 63.9048 94.1026 67.4711 93.01 66.5411Z" fill="white"/>
</mask>
<g mask="url(#mask3_69_188)">
<g style="mix-blend-mode:multiply" opacity="0.5">
<g style="mix-blend-mode:multiply">
<path d="M95.0328 63.9187C94.8332 64.6659 94.5427 65.3857 94.168 66.0622C96.9578 65.9367 99.9382 65.76 102.607 65.5275C102.443 65.3968 102.333 65.2094 102.3 65.0021C102.287 64.5337 102.236 64.0672 102.147 63.6072V62.3564L95.0328 63.9187Z" fill="#A066FC"/>
</g>
</g>
</g>
<path d="M93.01 66.5411C93.01 66.5411 91.4616 64.6813 90.5364 65.4578C89.6111 66.2343 89.9133 68.401 91.0013 69.4844C92.0893 70.5677 93.4796 69.6378 93.4796 69.6378C93.4796 69.6378 94.098 71.6465 95.1814 72.5764C96.2647 73.5063 99.9752 74.1247 101.226 73.1948C102.477 72.2649 101.998 68.8613 101.998 68.8613C101.998 68.8613 104.165 67.7779 104.011 67.0015C103.858 66.225 102.305 65.6066 102.305 64.9928C102.292 64.5244 102.24 64.0579 102.151 63.5979V62.3564L95.0372 63.9048C95.0372 63.9048 94.1026 67.4711 93.01 66.5411Z" stroke="#604697" stroke-linecap="round" stroke-linejoin="round"/>
<path d="M86.6772 65.774L102.147 62.3565C102.147 62.3565 99.9799 54.7729 97.3528 54.1545C94.7258 53.5361 89.6158 53.2246 86.8307 56.0143C84.0455 58.8041 86.6772 65.774 86.6772 65.774Z" fill="white" stroke="#604697" stroke-linecap="round" stroke-linejoin="round"/>
<path d="M97.041 63.6072C99.0799 64.06 101.148 64.3707 103.23 64.5372C106.019 64.6906 112.357 62.2123 110.813 62.0589C109.27 61.9055 102.146 62.3704 102.146 62.3704L97.041 63.6072Z" fill="#604697" stroke="#604697" stroke-linecap="round" stroke-linejoin="round"/>
<path d="M89.8807 74.864L88.4858 77.9607L95.451 82.2895L96.8413 77.9607L89.8807 74.864Z" fill="white" stroke="#604697" stroke-linecap="round" stroke-linejoin="round"/>
<path d="M75.5412 107.226L100.301 113.619L97.7294 131.725C97.6874 132.021 97.5832 132.304 97.4237 132.557C97.2643 132.81 97.0531 133.027 96.8042 133.192C96.5552 133.358 96.274 133.469 95.9791 133.518C95.6842 133.567 95.3823 133.553 95.093 133.478L72.5841 127.628C72.1616 127.519 71.7981 127.25 71.5707 126.878C71.3433 126.505 71.2698 126.059 71.3659 125.634L75.5412 107.226Z" fill="white" stroke="#604697" stroke-linecap="round" stroke-linejoin="round"/>
<path d="M75.5415 107.226C75.5415 107.226 81.3861 121.407 84.9664 123.267C88.5466 125.127 100.31 113.633 100.31 113.633" stroke="#604697" stroke-linecap="round" stroke-linejoin="round"/>
<path d="M80.4561 101.014C80.4561 101.014 78.9078 104.417 79.3727 105.663C79.8377 106.909 99.0222 113.865 99.0222 113.865C99.0222 113.865 99.1756 116.492 99.6406 117.12C100.039 117.801 100.351 118.529 100.571 119.287C100.571 119.287 99.6406 121.454 100.106 121.919C100.571 122.383 101.965 119.752 101.965 118.98C101.965 118.208 102.119 114.028 101.659 112.935C101.198 111.843 88.0397 103.808 88.0397 103.808L80.4561 101.014Z" fill="white" stroke="#604697" stroke-linecap="round" stroke-linejoin="round"/>
<path d="M88.9509 82.4475L79.9771 101.474L88.021 103.799L94.5212 88.6362" fill="#604697"/>
<path d="M88.9509 82.4475L79.9771 101.474L88.021 103.799L94.5212 88.6362" stroke="#604697" stroke-linecap="round" stroke-linejoin="round"/>
<path d="M88.021 103.799L93.9447 90.5146" stroke="white" stroke-linecap="round" stroke-linejoin="round"/>
<path d="M91.9126 95.3921L94.893 92.4116" stroke="white" stroke-linecap="round" stroke-linejoin="round"/>
<path d="M83.0781 145.088C86.7924 147.013 90.9658 147.877 95.1393 147.585" stroke="#604697" stroke-linecap="round" stroke-linejoin="round"/>
<path d="M81.0605 143.869C81.0605 143.869 81.4186 144.139 82.0835 144.539" stroke="#604697" stroke-linecap="round" stroke-linejoin="round"/>
<path d="M111.218 143.995C111.809 143.675 112.382 143.322 112.934 142.94" stroke="#604697" stroke-linecap="round" stroke-linejoin="round"/>
<path d="M99.3149 146.98C102.945 146.932 106.528 146.154 109.851 144.692" stroke="#604697" stroke-linecap="round" stroke-linejoin="round"/>
<path d="M97.7715 137.992L101.11 132.213" stroke="#604697" stroke-linecap="round" stroke-linejoin="round"/>
<path d="M97.9526 137.69L103.518 131.38" stroke="#604697" stroke-linecap="round" stroke-linejoin="round"/>
<path d="M83.757 135.184L83.292 138.615C84.4339 139.414 85.6873 140.041 87.0117 140.475C89.2389 141.219 93.9862 141.126 93.9862 141.126L94.6371 137.871C94.6371 137.871 86.3794 136.941 84.7101 135.547" stroke="#604697" stroke-linecap="round" stroke-linejoin="round"/>
<path d="M83.2041 139.913C83.2041 139.913 81.9022 143.07 82.7391 143.814C83.576 144.558 89.509 146.78 91.1085 146.603C92.708 146.427 93.61 142.521 93.61 142.521" stroke="#604697" stroke-linecap="round" stroke-linejoin="round"/>
<path d="M130.412 176.375C130.937 174.562 129.073 175.473 128.287 176.059C127.268 176.817 122.186 177.454 122.186 177.454L121.568 176.059C120.636 176.878 119.57 177.529 118.416 177.984C119.769 180.671 120.852 182.782 121.326 182.861C122.679 183.103 124.744 181.374 125.748 180.671C127.027 179.774 129.961 177.951 130.412 176.375Z" fill="#604697" stroke="#604697" stroke-linecap="round" stroke-linejoin="round"/>
<path d="M126.548 178.914C124.455 180.002 122.014 181.323 120.605 182.062C120.912 182.527 121.159 182.829 121.326 182.857C122.679 183.099 124.744 181.369 125.748 180.667C127.027 179.774 129.961 177.952 130.398 176.375C130.621 175.613 130.398 175.334 130.049 175.311C129.277 176.603 128.077 178.133 126.548 178.914Z" fill="white" stroke="#604697" stroke-linecap="round" stroke-linejoin="round"/>
<path d="M78.7078 182.973C78.4846 182.806 75.9598 181.034 76.0389 180.816C76.0389 180.816 76.5457 179.453 77.3222 177.435C75.9907 177.269 74.6888 176.918 73.4537 176.394C72.2169 180.151 71.1289 183.34 71.4357 183.805C72.0541 184.8 77.5361 186.172 79.6517 186.172C80.7629 186.172 82.6042 186.6 83.3388 185.516C83.3807 185.456 78.9914 183.182 78.7078 182.973Z" fill="white" stroke="#604697" stroke-linecap="round" stroke-linejoin="round"/>
<path d="M83.3387 185.516C83.3805 185.456 78.9913 183.192 78.689 182.973C78.3868 182.755 75.9411 181.034 76.0201 180.816L76.513 179.5C75.2317 179.267 73.9764 178.909 72.7654 178.43C71.8354 181.248 71.1798 183.424 71.417 183.805C72.0354 184.8 77.5173 186.172 79.6329 186.172C80.7628 186.172 82.604 186.6 83.3387 185.516Z" fill="#604697" stroke="#604697" stroke-linecap="round" stroke-linejoin="round"/>
<path d="M78.9866 185.144C76.1363 184.972 72.9699 183.801 71.4216 183.159C71.3595 183.37 71.3595 183.594 71.4216 183.805C72.04 184.8 77.5219 186.172 79.6375 186.172C80.7488 186.172 82.5901 186.6 83.3247 185.516C83.1173 185.37 82.898 185.241 82.6691 185.13C81.4434 185.22 80.2129 185.225 78.9866 185.144Z" fill="white" stroke="#604697" stroke-linecap="round" stroke-linejoin="round"/>
<path d="M96.2368 63.6211L93.7539 57.7207" stroke="black" stroke-linecap="round" stroke-linejoin="round"/>
<path d="M93.4424 56.6372C93.4424 56.6372 92.6659 54.9262 93.2889 54.1497" stroke="black" stroke-linecap="round" stroke-linejoin="round"/>
</svg>
