<svg width="200" height="200" viewBox="0 0 200 200" fill="none" xmlns="http://www.w3.org/2000/svg">
<path d="M154.548 116.943V116.913C150.494 115.567 144.274 116.024 143.35 116.575C142.367 117.233 141.523 118.077 140.866 119.059C138.682 122.157 137.117 125.647 136.255 129.338L92.1627 133.437C90.5381 129.93 88.0888 126.785 85.6296 124.887C84.9269 124.298 84.1171 123.851 83.2449 123.57C82.8609 123.524 82.4721 123.538 82.0922 123.61C80.4925 118.975 78.227 114.503 75.3951 114.22C69.4333 113.624 59.03 115.621 56.1932 121.404C53.3563 127.187 52.467 141.625 52.467 141.625L50.4798 143.612C49.0304 140.788 47.0144 138.294 44.5577 136.284C43.8574 135.692 43.0469 135.245 42.173 134.967C41.6762 134.828 39.6889 135.136 37.6072 135.817C37.5228 135.737 37.4433 135.658 37.3539 135.583C35.3666 133.919 31.2927 133.01 29.0173 137.253C26.7419 141.495 29.4743 149.529 30.8356 151.347C31.4967 152.276 32.3258 153.073 33.28 153.697C34.8847 157.672 37.7513 162.739 42.1631 162.973C43.6742 163.054 45.1851 162.81 46.5935 162.256C48.0018 161.702 49.2747 160.852 50.3258 159.763C53.1874 156.783 53.4955 152.594 52.4174 148.496L52.8794 147.82C52.8794 147.82 53.9078 149.286 57.8476 148.694C58.9897 148.577 60.0724 148.128 60.9626 147.403C62.8108 152.117 65.7966 156.842 70.5412 157.548C72.5775 157.859 74.657 157.728 76.6382 157.164C78.6195 156.6 80.4559 155.616 82.0227 154.279C82.9333 153.492 83.7279 152.58 84.3826 151.571C87.0392 151.424 89.5418 150.278 91.3877 148.361C93.0392 146.6 93.9838 144.292 94.0407 141.878L99.9081 141.192C103.591 142.835 107.61 143.588 111.638 143.388C115.495 143.141 119.146 141.56 121.967 138.917L135.336 137.774C135.56 142.956 137.423 147.711 141.795 150.329C143.469 151.328 145.339 151.952 147.277 152.159C149.216 152.366 151.176 152.15 153.023 151.526C159.188 149.459 160.649 140.298 161.046 134.729C161.662 125.786 158.811 118.21 154.548 116.943Z" fill="#604697" stroke="#604697" stroke-width="0.75" stroke-linecap="round" stroke-linejoin="round"/>
<path d="M72.921 154.671C72.4084 155.327 71.7546 155.858 71.0083 156.226" stroke="white" stroke-width="0.5" stroke-linecap="round" stroke-linejoin="round"/>
<path d="M75.3304 142.897C75.3304 142.897 75.9216 149.355 73.7207 153.454" stroke="white" stroke-width="0.5" stroke-linecap="round" stroke-linejoin="round"/>
<path d="M77.0744 150.031C76.513 152.515 75.3951 154.925 73.229 155.993" stroke="white" stroke-width="0.5" stroke-linecap="round" stroke-linejoin="round"/>
<path d="M79.7724 142.405C79.7724 142.405 80.7661 153.141 75.4551 155.734" stroke="white" stroke-width="0.5" stroke-linecap="round" stroke-linejoin="round"/>
<path d="M81.9981 142.156C81.9981 142.156 82.9917 152.897 77.6758 155.486" stroke="white" stroke-width="0.5" stroke-linecap="round" stroke-linejoin="round"/>
<path d="M149.024 149.683C148.453 150.404 147.743 151.004 146.937 151.447" stroke="white" stroke-width="0.5" stroke-linecap="round" stroke-linejoin="round"/>
<path d="M153.018 136.274C153.018 136.274 152.7 143.622 149.972 148.297" stroke="white" stroke-width="0.5" stroke-linecap="round" stroke-linejoin="round"/>
<path d="M153.728 144.412C152.834 147.239 151.403 149.981 149.143 151.174" stroke="white" stroke-width="0.5" stroke-linecap="round" stroke-linejoin="round"/>
<path d="M157.43 135.728C157.43 135.728 156.898 147.969 151.349 150.9" stroke="white" stroke-width="0.5" stroke-linecap="round" stroke-linejoin="round"/>
<path d="M159.645 135.459C159.645 135.459 159.114 147.696 153.564 150.632" stroke="white" stroke-width="0.5" stroke-linecap="round" stroke-linejoin="round"/>
<path d="M43.5637 161.314C43.1409 161.962 42.5834 162.511 41.9292 162.923" stroke="white" stroke-width="0.5" stroke-linecap="round" stroke-linejoin="round"/>
<path d="M44.3488 150.865C44.3488 150.865 45.7498 156.33 44.1699 160.151" stroke="white" stroke-width="0.5" stroke-linecap="round" stroke-linejoin="round"/>
<path d="M46.9481 156.733C46.7245 158.944 45.9544 161.169 44.0317 162.392" stroke="white" stroke-width="0.5" stroke-linecap="round" stroke-linejoin="round"/>
<path d="M48.5425 149.802C48.5425 149.802 50.8775 158.869 46.1279 161.855" stroke="white" stroke-width="0.5" stroke-linecap="round" stroke-linejoin="round"/>
<path d="M50.6391 149.266C50.6391 149.266 52.9791 158.333 48.2246 161.323" stroke="white" stroke-width="0.5" stroke-linecap="round" stroke-linejoin="round"/>
<path d="M67.7636 139.215C68.9461 145.977 68.2058 151.76 66.1192 152.132C64.0325 152.505 61.3746 147.308 60.1922 140.546C59.0097 133.785 59.75 128.002 61.8416 127.629C63.9332 127.257 66.5812 132.448 67.7636 139.215Z" fill="#A066FC" stroke="#604697" stroke-linecap="round" stroke-linejoin="round"/>
<path d="M66.7106 139.359C67.0385 141.953 66.7354 144.124 66.025 144.213C65.3145 144.303 64.4799 142.276 64.152 139.682C63.8241 137.089 64.152 134.913 64.8376 134.823C65.5232 134.734 66.3827 136.766 66.7106 139.359Z" fill="#A066FC" stroke="#604697" stroke-linecap="round" stroke-linejoin="round"/>
<path d="M61.728 133.159C61.7985 132.289 61.9364 131.425 62.1404 130.576" stroke="#604697" stroke-width="0.75" stroke-linecap="round" stroke-linejoin="round"/>
<path d="M65.0223 149.693C63.6475 146.94 62.6642 144.009 62.101 140.984C61.7269 138.844 61.5753 136.671 61.6489 134.5" stroke="#604697" stroke-width="0.75" stroke-linecap="round" stroke-linejoin="round"/>
<path d="M38.5254 159.31C40.0273 158.894 40.1523 154.615 38.8047 149.752C37.4571 144.889 35.1471 141.285 33.6452 141.701C32.1433 142.117 32.0182 146.397 33.3659 151.259C34.7135 156.122 37.0235 159.727 38.5254 159.31Z" fill="#A066FC" stroke="#604697" stroke-linecap="round" stroke-linejoin="round"/>
<path d="M38.3131 149.946C38.785 151.795 38.7602 153.394 38.2535 153.524C37.7467 153.653 36.9617 152.257 36.4898 150.413C36.0178 148.57 36.0426 146.961 36.5494 146.836C37.0561 146.712 37.8411 148.098 38.3131 149.946Z" stroke="#604697" stroke-width="0.75" stroke-linecap="round" stroke-linejoin="round"/>
<path d="M34.1494 145.907C34.1217 145.271 34.1433 144.633 34.214 144" stroke="#604697" stroke-width="0.75" stroke-linecap="round" stroke-linejoin="round"/>
<path d="M38.0196 157.577C36.7772 155.709 35.8023 153.675 35.1231 151.536C34.6589 150.022 34.3525 148.463 34.209 146.886" stroke="#604697" stroke-width="0.75" stroke-linecap="round" stroke-linejoin="round"/>
<path d="M145.024 66.7643C139.788 55.9586 137.527 55.0196 134.045 54.8407C130.562 54.6619 122.34 53.6384 113.178 55.104C113.178 55.104 87.6221 54.6569 67.8487 66.6352C47.206 79.14 37.1604 90.1247 35.7544 95.8182C34.3484 101.512 29.5491 116.347 27.2737 124.852C24.9983 133.358 23.4482 140.85 26.3496 147.736C28.1034 151.899 29.9714 153.151 32.371 153.131C32.0039 152.472 31.6803 151.79 31.4022 151.089C29.0175 145.182 29.3057 136.731 32.0282 136.185C34.7508 135.638 36.3754 141.297 38.0198 147.467C38.3463 148.827 38.7884 150.157 39.3414 151.442C43.4103 149.907 49.9286 146.474 58.593 142.907C57.7705 137.487 57.7521 131.976 58.5384 126.551C59.8202 118.071 65.2404 116.198 67.6003 121.36C69.5528 125.612 70.2782 135.131 70.4719 138.341C73.9497 137.143 76.861 136.353 78.6545 136.244C78.6545 136.244 108.305 129.547 130.16 129.011C152.015 128.474 162.949 127.952 162.949 127.952C162.949 127.952 150.261 77.5502 145.024 66.7643Z" fill="white"/>
<mask id="mask0_69_188" style="mask-type:luminance" maskUnits="userSpaceOnUse" x="24" y="54" width="139" height="100">
<path d="M145.024 66.7643C139.788 55.9586 137.527 55.0196 134.045 54.8407C130.562 54.6619 122.34 53.6384 113.178 55.104C113.178 55.104 87.6221 54.6569 67.8487 66.6352C47.206 79.14 37.1604 90.1247 35.7544 95.8182C34.3484 101.512 29.5491 116.347 27.2737 124.852C24.9983 133.358 23.4482 140.85 26.3496 147.736C28.1034 151.899 29.9714 153.151 32.371 153.131C32.0039 152.472 31.6803 151.79 31.4022 151.089C29.0175 145.182 29.3057 136.731 32.0282 136.185C34.7508 135.638 36.3754 141.297 38.0198 147.467C38.3463 148.827 38.7884 150.157 39.3414 151.442C43.4103 149.907 49.9286 146.474 58.593 142.907C57.7705 137.487 57.7521 131.976 58.5384 126.551C59.8202 118.071 65.2404 116.198 67.6003 121.36C69.5528 125.612 70.2782 135.131 70.4719 138.341C73.9497 137.143 76.861 136.353 78.6545 136.244C78.6545 136.244 108.305 129.547 130.16 129.011C152.015 128.474 162.949 127.952 162.949 127.952C162.949 127.952 150.261 77.5502 145.024 66.7643Z" fill="white"/>
</mask>
<g mask="url(#mask0_69_188)">
<path d="M75.1516 118.901C75.1516 118.901 72.1458 123.014 68.4893 123.894C69.781 128.633 70.3126 135.648 70.4765 138.301C73.5816 137.233 76.2197 136.483 78.0281 136.264C78.2915 134.714 78.4504 133.726 78.4504 133.726L75.1516 118.901Z" fill="#A066FC"/>
<path opacity="0.2" d="M38.1493 147.914C39.5305 148.053 40.4496 148.65 43.2566 147.949C48.2248 146.712 44.6527 137.124 52.8949 133.209C54.4948 132.402 56.236 131.913 58.022 131.768C58.0961 130.013 58.2619 128.264 58.5188 126.526C58.7376 124.82 59.2415 123.162 60.0093 121.623C57.7587 120.932 57.3513 120.271 53.5159 122.095C45.2687 126.01 46.5058 136.11 41.5625 137.347C37.6177 138.341 37.3991 136.756 34.4033 137.491C35.8043 139.478 36.8874 143.349 37.9804 147.427C38.0649 147.611 38.1046 147.745 38.1493 147.914Z" fill="#A066FC"/>
<g style="mix-blend-mode:multiply">
<path opacity="0.2" d="M30.0363 139.424C27.7261 141.014 26.3499 143.399 25.5649 145.411C25.7779 146.205 26.04 146.984 26.3499 147.746C28.1037 151.909 29.9717 153.161 32.3713 153.141C32.0042 152.482 31.6806 151.8 31.4025 151.099C29.8872 147.338 29.4799 142.554 30.0363 139.424Z" fill="#A066FC"/>
</g>
<g style="mix-blend-mode:multiply" opacity="0.2">
<path d="M134.045 54.841L133.146 54.7864C96.9127 64.057 82.1721 107.727 77.0996 128.772C77.3729 130.864 77.6709 132.916 77.9939 134.913C78.6099 134.794 78.1827 136.244 78.6546 136.22C78.6546 136.22 108.305 129.523 130.16 128.986C152.015 128.449 162.95 127.928 162.95 127.928C162.95 127.928 150.261 77.5505 145.024 66.7646C139.788 55.9787 137.527 55 134.045 54.841Z" fill="#A066FC"/>
</g>
</g>
<path d="M145.024 66.7643C139.788 55.9586 137.527 55.0196 134.045 54.8407C130.562 54.6619 122.34 53.6384 113.178 55.104C113.178 55.104 87.6221 54.6569 67.8487 66.6352C47.206 79.14 37.1604 90.1247 35.7544 95.8182C34.3484 101.512 29.5491 116.347 27.2737 124.852C24.9983 133.358 23.4482 140.85 26.3496 147.736C28.1034 151.899 29.9714 153.151 32.371 153.131C32.0039 152.472 31.6803 151.79 31.4022 151.089C29.0175 145.182 29.3057 136.731 32.0282 136.185C34.7508 135.638 36.3754 141.297 38.0198 147.467C38.3463 148.827 38.7884 150.157 39.3414 151.442C43.4103 149.907 49.9286 146.474 58.593 142.907C57.7705 137.487 57.7521 131.976 58.5384 126.551C59.8202 118.071 65.2404 116.198 67.6003 121.36C69.5528 125.612 70.2782 135.131 70.4719 138.341C73.9497 137.143 76.861 136.353 78.6545 136.244C78.6545 136.244 108.305 129.547 130.16 129.011C152.015 128.474 162.949 127.952 162.949 127.952C162.949 127.952 150.261 77.5502 145.024 66.7643Z" stroke="#604697" stroke-linecap="round" stroke-linejoin="round"/>
<path opacity="0.2" d="M36.5693 121.295C36.9104 121.579 37.3255 121.759 37.7657 121.815C38.2058 121.87 38.6527 121.799 39.0534 121.608C40.6184 120.982 40.7774 118.627 40.7774 118.627L43.1224 118.473L43.5943 111.115L38.4274 113.147C38.4274 113.147 37.0413 120.356 36.5693 121.295Z" fill="#A066FC"/>
<path d="M29.7922 142.812C28.3086 143.601 26.9059 144.533 25.604 145.594C25.81 146.322 26.0588 147.037 26.3492 147.736C28.103 151.899 29.971 153.151 32.3707 153.131C32.0035 152.472 31.6799 151.79 31.4019 151.089C30.3834 148.446 29.8385 145.644 29.7922 142.812Z" fill="#604697" stroke="#604697" stroke-width="0.75" stroke-linecap="round" stroke-linejoin="round"/>
<path d="M37.7065 138.709C37.572 138.708 37.4402 138.671 37.3248 138.602C37.2095 138.533 37.1148 138.434 37.0507 138.316C36.9602 138.144 36.9408 137.944 36.9966 137.758C37.0523 137.572 37.1788 137.416 37.3488 137.322C37.468 137.258 47.1361 131.266 55.1447 127.009C55.2312 126.963 55.3259 126.934 55.4233 126.925C55.5208 126.915 55.6192 126.925 55.7128 126.954C55.8065 126.982 55.8936 127.029 55.9691 127.091C56.0447 127.154 56.1073 127.23 56.1533 127.317C56.1993 127.403 56.2278 127.498 56.2372 127.595C56.2466 127.693 56.2368 127.791 56.2081 127.885C56.1795 127.978 56.1328 128.065 56.0705 128.141C56.0082 128.217 55.9317 128.279 55.8453 128.325C47.8415 132.578 38.1784 138.564 38.0592 138.629C37.9505 138.686 37.8289 138.713 37.7065 138.709Z" fill="#604697" stroke="#604697" stroke-miterlimit="10"/>
<path d="M50.346 88.9072L50.0032 97.4376C49.9287 98.6001 50.6043 99.1615 51.4936 98.6598L65.2306 89.7171C65.7356 89.3649 66.1428 88.8902 66.414 88.3375C66.6851 87.7848 66.8113 87.1722 66.7807 86.5573L66.6962 77.0433C66.5969 76.1788 66.0106 75.8261 65.2902 76.1987C62.7068 77.5351 57.7187 82.0561 51.7569 86.2642C51.353 86.5843 51.0192 86.9842 50.7765 87.4389C50.5338 87.8936 50.3872 88.3935 50.346 88.9072Z" fill="#A066FC" stroke="#604697" stroke-linecap="round" stroke-linejoin="round"/>
<path d="M59.6265 86.5029L66.3385 88.1424" stroke="#604697" stroke-linecap="round" stroke-linejoin="round"/>
<path d="M50.4453 98.7L54.5888 89.5486" stroke="#604697" stroke-linecap="round" stroke-linejoin="round"/>
<path d="M50.4253 88.6243L56.5163 89.3844C57.1472 89.4788 57.9322 88.9572 58.5035 88.053L66.4526 76.6709" stroke="#604697" stroke-linecap="round" stroke-linejoin="round"/>
<path d="M84.4317 73.0588L85.8427 94.4219C85.8792 95.0386 86.0411 95.6413 86.3183 96.1933C86.5956 96.7454 86.9825 97.2351 87.4553 97.6326C87.9282 98.0302 88.4771 98.3271 89.0685 98.5054C89.66 98.6838 90.2816 98.7396 90.8953 98.6697L138.351 92.5092C139.005 92.4338 139.635 92.2174 140.197 91.8749C140.759 91.5324 141.24 91.0719 141.606 90.5253C141.973 89.9787 142.216 89.359 142.32 88.7091C142.424 88.0592 142.385 87.3945 142.207 86.761L136.215 65.5767C135.931 64.57 135.309 63.6922 134.452 63.0919C133.596 62.4917 132.558 62.2058 131.515 62.2828C123.824 62.8492 105.378 64.5036 87.9641 68.3837C86.9185 68.6213 85.9906 69.2207 85.3442 70.0762C84.6978 70.9317 84.3746 71.9881 84.4317 73.0588Z" fill="#A066FC" stroke="#604697" stroke-linecap="round" stroke-linejoin="round"/>
<path d="M119.707 79.6819L141.373 89.9461" stroke="#604697" stroke-linecap="round" stroke-linejoin="round"/>
<path d="M87.6416 97.731L105.939 81.356" stroke="#604697" stroke-linecap="round" stroke-linejoin="round"/>
<path d="M84.5913 72.4976L110.848 83.2935C111.834 83.6961 112.916 83.8039 113.962 83.6037C115.007 83.4035 115.973 82.904 116.74 82.1657L135.455 64.4939" stroke="#604697" stroke-linecap="round" stroke-linejoin="round"/>
<path d="M137.029 95.5331C141.489 95.4233 145.017 91.7809 144.909 87.3976C144.801 83.0142 141.098 79.5498 136.638 79.6596C132.178 79.7694 128.649 83.4118 128.757 87.7951C128.865 92.1785 132.568 95.6429 137.029 95.5331Z" fill="#604697" stroke="#604697" stroke-width="0.75" stroke-linecap="round" stroke-linejoin="round"/>
<path d="M135.963 91.3865H135.938C135.781 91.3869 135.627 91.3502 135.487 91.2794C135.347 91.2086 135.226 91.1057 135.133 90.9791L131.958 86.5972C131.804 86.3838 131.74 86.1175 131.781 85.8571C131.823 85.5967 131.966 85.3634 132.18 85.2086C132.393 85.0538 132.659 84.9901 132.92 85.0316C133.18 85.073 133.413 85.2162 133.568 85.4297L135.938 88.6987L141.602 80.8739C141.756 80.6604 141.99 80.5172 142.25 80.4757C142.511 80.4343 142.777 80.498 142.99 80.6528C143.204 80.8076 143.347 81.0409 143.388 81.3013C143.43 81.5617 143.366 81.8279 143.211 82.0414L136.753 90.9841C136.661 91.1078 136.542 91.2085 136.405 91.2783C136.268 91.3481 136.117 91.3852 135.963 91.3865Z" fill="white" stroke="#604697" stroke-linecap="round" stroke-linejoin="round"/>
<path d="M105.954 112.799C105.954 112.799 122.846 109.56 134.422 109.789L135.117 112.571C135.117 112.571 110.813 113.723 106.183 116.049L105.954 112.799Z" fill="#604697" stroke="#604697" stroke-width="0.75" stroke-linecap="round" stroke-linejoin="round"/>
<path d="M106.183 116.039L106.679 118.821C106.731 119.131 106.902 119.408 107.155 119.594C107.409 119.78 107.725 119.859 108.036 119.814C112.274 119.208 127.148 117.166 134.864 117.355C135.054 117.361 135.243 117.322 135.415 117.241C135.587 117.16 135.737 117.04 135.854 116.889C135.971 116.739 136.05 116.564 136.086 116.377C136.122 116.19 136.114 115.998 136.061 115.815L135.137 112.581" stroke="#604697" stroke-linecap="round" stroke-linejoin="round"/>
<path d="M44.5429 111.125L44.4485 99.6489L45.0199 87.8495C45.0242 87.7366 44.9943 87.6251 44.9342 87.5295C44.874 87.4338 44.7865 87.3586 44.6829 87.3135C44.5794 87.2684 44.4646 87.2556 44.3536 87.2768C44.2427 87.298 44.1407 87.3521 44.061 87.4322C41.9247 89.6182 38.2681 92.927 37.1851 95.6396C35.7791 99.1521 34.1147 116.441 34.1147 116.441L44.5429 111.125Z" fill="#604697" stroke="#604697" stroke-width="0.75" stroke-linecap="round" stroke-linejoin="round"/>
<path d="M31.3128 108.82H29.6484C28.8006 108.82 28.1133 109.507 28.1133 110.355V118.93C28.1133 119.778 28.8006 120.465 29.6484 120.465H31.3128C32.1606 120.465 32.8479 119.778 32.8479 118.93V110.355C32.8479 109.507 32.1606 108.82 31.3128 108.82Z" fill="#604697" stroke="#604697" stroke-width="0.75" stroke-linecap="round" stroke-linejoin="round"/>
<path d="M32.3613 100.811C33.1492 100.962 33.9186 101.197 34.6566 101.512C35.2685 101.813 35.8247 102.216 36.3011 102.704L38.7852 99.42C38.7852 99.42 35.1435 97.8948 34.4529 96.9657L33.7673 96.0317L32.3613 100.811Z" fill="white"/>
<mask id="mask1_69_188" style="mask-type:luminance" maskUnits="userSpaceOnUse" x="32" y="96" width="7" height="7">
<path d="M32.3613 100.811C33.1492 100.962 33.9186 101.197 34.6566 101.512C35.2685 101.813 35.8247 102.216 36.3011 102.704L38.7852 99.42C38.7852 99.42 35.1435 97.8948 34.4529 96.9657L33.7673 96.0317L32.3613 100.811Z" fill="white"/>
</mask>
<g mask="url(#mask1_69_188)">
<g style="mix-blend-mode:multiply" opacity="0.5">
<path d="M34.448 96.9655L33.8071 96.0762L33.7325 96.1259L32.3613 100.796C32.3613 100.796 32.6246 100.846 32.9973 100.935L36.5495 98.3615C35.7732 98.0219 35.062 97.5495 34.448 96.9655Z" fill="#A066FC"/>
</g>
</g>
<path d="M32.3613 100.811C33.1492 100.962 33.9186 101.197 34.6566 101.512C35.2685 101.813 35.8247 102.216 36.3011 102.704L38.7852 99.42C38.7852 99.42 35.1435 97.8948 34.4529 96.9657L33.7673 96.0317L32.3613 100.811Z" stroke="#604697" stroke-width="0.75" stroke-linecap="round" stroke-linejoin="round"/>
<path d="M37.6073 98.0239L34.5718 101.894L34.9841 103.211L39.6095 98.4065L37.6073 98.0239Z" fill="#A066FC" stroke="#604697" stroke-linecap="round" stroke-linejoin="round"/>
<path d="M32.7484 87.0892C30.6965 85.4994 25.3508 86.5129 24.3025 90.2788C23.6566 92.5989 24.0143 96.0766 24.0143 96.0766L30.1053 94.7849L30.6021 95.5351C31.5958 97.0255 33.747 96.0319 34.3034 95.5351C34.6065 95.2718 34.5866 94.4967 34.5071 93.8559L34.7505 93.8012C34.7505 93.8012 34.7953 88.684 32.7484 87.0892Z" fill="#604697" stroke="#604697" stroke-width="0.75" stroke-linecap="round" stroke-linejoin="round"/>
<path d="M30.4733 94.328C27.7999 94.0301 25.0938 94.2872 22.5242 95.0831C18.5497 96.4146 17.9386 97.5672 20.7854 97.4977C23.6322 97.4281 30.4733 94.328 30.4733 94.328Z" fill="#604697" stroke="#604697" stroke-width="0.75" stroke-linecap="round" stroke-linejoin="round"/>
<path d="M25.5642 92.882C26.0279 92.882 26.4038 92.3681 26.4038 91.7343C26.4038 91.1005 26.0279 90.5867 25.5642 90.5867C25.1005 90.5867 24.7246 91.1005 24.7246 91.7343C24.7246 92.3681 25.1005 92.882 25.5642 92.882Z" fill="#A066FC"/>
<path d="M44.4489 99.6485C44.4489 99.6485 39.0088 98.2674 37.3345 99.5392C35.6602 100.811 35.233 102.913 35.7695 105.461C36.3061 108.01 37.6127 114.712 37.6127 114.712L44.5433 111.125L44.4489 99.6485Z" fill="#604697" stroke="#604697" stroke-width="0.75" stroke-linecap="round" stroke-linejoin="round"/>
<path d="M35.8142 113.644C35.8142 113.644 35.5211 116.218 35.1783 116.58C34.8355 116.943 25.7934 109.347 25.242 108.631C24.6905 107.916 25.0681 105.362 25.242 104.562C25.4159 103.762 25.1227 103.325 24.2483 103.877C23.374 104.428 23.6075 106.723 23.6075 106.723C23.6075 106.723 20.9395 106.082 20.408 106.008C19.8764 105.933 19.4143 106.594 19.4938 107.121C19.5733 107.647 20.2738 107.692 20.2738 107.692C20.0946 108.455 20.1447 109.253 20.4179 109.987C20.8849 110.951 21.4115 111.557 22.4052 111.796C23.4303 111.956 24.4683 112.019 25.5053 111.985C25.5053 111.985 30.1257 116.386 31.4671 118.031C32.8085 119.675 35.6354 121.911 37.0414 121.509C38.4474 121.106 39.7888 114.086 39.7888 114.086L35.8142 113.644Z" fill="white"/>
<mask id="mask2_69_188" style="mask-type:luminance" maskUnits="userSpaceOnUse" x="19" y="103" width="21" height="19">
<path d="M35.8133 113.644C35.8133 113.644 35.5202 116.218 35.1773 116.58C34.8345 116.943 25.7925 109.347 25.241 108.631C24.6895 107.916 25.0671 105.362 25.241 104.562C25.4149 103.762 25.1218 103.325 24.2474 103.877C23.373 104.428 23.6065 106.723 23.6065 106.723C23.6065 106.723 20.9386 106.082 20.407 106.008C19.8754 105.933 19.4133 106.594 19.4928 107.121C19.5723 107.647 20.2728 107.692 20.2728 107.692C20.0936 108.455 20.1437 109.253 20.4169 109.987C20.8839 110.951 21.4105 111.557 22.4042 111.796C23.4294 111.956 24.4673 112.019 25.5043 111.985C25.5043 111.985 30.1247 116.386 31.4661 118.031C32.8075 119.675 35.6344 121.911 37.0404 121.509C38.4464 121.106 39.7878 114.086 39.7878 114.086L35.8133 113.644Z" fill="white"/>
</mask>
<g mask="url(#mask2_69_188)">
<g style="mix-blend-mode:multiply" opacity="0.5">
<path d="M35.1774 116.58L37.8204 117.46C37.9043 118.014 37.7871 118.58 37.4901 119.056C37.1931 119.531 36.7358 119.885 36.2008 120.053C35.0333 120.441 32.9367 119.114 31.4463 117.996L31.491 118.051C32.8573 119.7 35.6593 121.931 37.0653 121.529C38.4713 121.126 39.8127 114.106 39.8127 114.106L35.8133 113.609C35.8133 113.609 35.5202 116.218 35.1774 116.58Z" fill="#A066FC"/>
</g>
</g>
<path d="M35.8142 113.644C35.8142 113.644 35.5211 116.218 35.1783 116.58C34.8355 116.943 25.7934 109.347 25.242 108.631C24.6905 107.916 25.0681 105.362 25.242 104.562C25.4159 103.762 25.1227 103.325 24.2483 103.877C23.374 104.428 23.6075 106.723 23.6075 106.723C23.6075 106.723 20.9395 106.082 20.408 106.008C19.8764 105.933 19.4143 106.594 19.4938 107.121C19.5733 107.647 20.2738 107.692 20.2738 107.692C20.0946 108.455 20.1447 109.253 20.4179 109.987C20.8849 110.951 21.4115 111.557 22.4052 111.796C23.4303 111.956 24.4683 112.019 25.5053 111.985C25.5053 111.985 30.1257 116.386 31.4671 118.031C32.8085 119.675 35.6354 121.911 37.0414 121.509C38.4474 121.106 39.7888 114.086 39.7888 114.086L35.8142 113.644Z" stroke="#604697" stroke-width="0.75" stroke-linecap="round" stroke-linejoin="round"/>
<path d="M26.7767 110.027L25.5049 112.004L26.1557 112.446L27.4574 110.583L26.7767 110.027Z" fill="#604697" stroke="#604697" stroke-miterlimit="10"/>
<path d="M26.3391 111.89C26.6135 111.89 26.8359 111.668 26.8359 111.393C26.8359 111.119 26.6135 110.896 26.3391 110.896C26.0647 110.896 25.8423 111.119 25.8423 111.393C25.8423 111.668 26.0647 111.89 26.3391 111.89Z" fill="white" stroke="#604697" stroke-width="0.75" stroke-linecap="round" stroke-linejoin="round"/>
<path d="M25.1221 96.7126C25.1221 96.7126 25.4251 97.4628 25.9319 98.7794C26.4386 100.096 29.1612 102.873 30.4927 103.032C31.8241 103.191 33.4189 98.3521 33.6723 97.3535C33.7567 97.0256 33.8412 96.499 33.8412 96.499C33.8412 96.499 35.5155 95.709 35.128 94.7551C34.7404 93.8013 33.9555 93.3641 33.5829 93.6572C33.2103 93.9503 33.1457 95.1874 32.5892 95.1973C32.0328 95.2072 31.7297 95.0334 31.2379 94.3776C30.746 93.7218 25.6487 95.083 25.1221 96.7126Z" fill="white"/>
<mask id="mask3_69_188" style="mask-type:luminance" maskUnits="userSpaceOnUse" x="25" y="93" width="11" height="11">
<path d="M25.1226 96.7126C25.1226 96.7126 25.4256 97.4628 25.9324 98.7794C26.4391 100.096 29.1617 102.873 30.4931 103.032C31.8246 103.191 33.4194 98.3521 33.6728 97.3535C33.7572 97.0256 33.8417 96.499 33.8417 96.499C33.8417 96.499 35.516 95.709 35.1285 94.7551C34.7409 93.8013 33.956 93.3641 33.5834 93.6572C33.2107 93.9503 33.1462 95.1874 32.5897 95.1973C32.0333 95.2072 31.7302 95.0334 31.2384 94.3776C30.7465 93.7218 25.6492 95.083 25.1226 96.7126Z" fill="white"/>
</mask>
<g mask="url(#mask3_69_188)">
<path opacity="0.5" d="M31.2284 94.3774C30.7316 93.7265 25.6492 95.0878 25.1226 96.7124L25.4107 97.4477C27.3535 96.276 29.4648 95.4097 31.6706 94.8792C31.5058 94.7281 31.3576 94.5599 31.2284 94.3774Z" fill="#A066FC"/>
<g style="mix-blend-mode:multiply">
<path opacity="0.5" d="M35.0639 94.6208C34.6565 93.7663 33.9362 93.3788 33.5735 93.657C33.3462 93.9536 33.1775 94.2908 33.0767 94.6506C33.7366 94.5767 34.4021 94.5667 35.0639 94.6208Z" fill="#A066FC"/>
</g>
</g>
<path d="M25.1221 96.7126C25.1221 96.7126 25.4251 97.4628 25.9319 98.7794C26.4386 100.096 29.1612 102.873 30.4927 103.032C31.8241 103.191 33.4189 98.3521 33.6723 97.3535C33.7567 97.0256 33.8412 96.499 33.8412 96.499C33.8412 96.499 35.5155 95.709 35.128 94.7551C34.7404 93.8013 33.9555 93.3641 33.5829 93.6572C33.2103 93.9503 33.1457 95.1874 32.5892 95.1973C32.0328 95.2072 31.7297 95.0334 31.2379 94.3776C30.746 93.7218 25.6487 95.083 25.1221 96.7126Z" stroke="#604697" stroke-width="0.75" stroke-linecap="round" stroke-linejoin="round"/>
<path d="M26.9258 97.07C27.0152 97.3731 26.9854 97.6513 26.8662 97.6861C26.7469 97.7209 26.5731 97.5023 26.4836 97.1893C26.3942 96.8763 26.424 96.608 26.5433 96.5732C26.6625 96.5384 26.8364 96.7769 26.9258 97.07Z" fill="#604697" stroke="#604697" stroke-miterlimit="10"/>
<path d="M26.0015 96.2257C26.697 96.027 26.9951 96.5487 27.0796 97.0306L27.2087 97.6019L27.641 99.8128L28.2968 99.5345" stroke="#604697" stroke-width="0.5" stroke-linecap="round" stroke-linejoin="round"/>
<path d="M28.8335 96.3946C28.9846 96.2288 29.1727 96.101 29.3824 96.0216C29.5922 95.9421 29.8178 95.9133 30.0408 95.9375" stroke="#604697" stroke-width="0.5" stroke-linecap="round" stroke-linejoin="round"/>
<path d="M29.4099 95.0183C29.1273 95.0774 28.8679 95.2173 28.6633 95.421C28.4587 95.6248 28.3176 95.8836 28.2573 96.166" stroke="#604697" stroke-width="0.5" stroke-linecap="round" stroke-linejoin="round"/>
<path d="M28.8887 100.25C28.8887 100.25 30.3294 99.9616 30.4437 98.9282" stroke="#604697" stroke-width="0.5" stroke-linecap="round" stroke-linejoin="round"/>
<path d="M41.1201 117.37L33.8467 115.343C33.8467 115.343 34.4876 102.923 35.6104 100.821C37.3592 97.5573 41.3685 99.0279 42.1236 103.132C42.8291 107.007 41.1201 117.37 41.1201 117.37Z" fill="#A066FC" stroke="#604697" stroke-linecap="round" stroke-linejoin="round"/>
<path d="M34.02 113.962C34.02 113.962 37.9946 114.876 40.4141 115.671" stroke="#604697" stroke-width="0.5" stroke-linecap="round" stroke-linejoin="round"/>
<path d="M40.3154 98.6499C40.3154 98.6499 42.6803 98.8337 44.2254 100.106" stroke="#A066FC" stroke-width="0.5" stroke-linecap="round" stroke-linejoin="round"/>
<path d="M81.9885 130.421C81.9885 130.421 71.3963 134.157 70.4275 135.176C69.4587 136.194 69.5581 140.169 71.8435 142.102C74.1288 144.034 90.4195 139.652 102.065 138.375C113.71 137.099 139.276 135.221 149.71 134.714C160.143 134.207 164.887 135.583 165.802 132.329C166.716 129.075 166.601 125.597 164.614 124.892C162.627 124.186 126.419 118.388 81.9885 130.421Z" fill="#604697" stroke="#604697" stroke-width="0.75" stroke-linecap="round" stroke-linejoin="round"/>
<path d="M69.6719 137.347C69.6719 137.347 70.1687 141.654 72.8167 142.315C75.4648 142.976 106.933 137.014 125.479 136.353C144.026 135.693 160.257 135.196 160.257 135.196" stroke="white" stroke-width="0.5" stroke-linecap="round" stroke-linejoin="round"/>
<path d="M85.0435 139.533C97.3446 136.552 122.648 132.339 165.225 133.536" stroke="white" stroke-width="0.5" stroke-linecap="round" stroke-linejoin="round"/>
<path d="M74.958 142.156C74.958 142.156 77.7849 141.471 82.0824 140.298" stroke="white" stroke-width="0.5" stroke-linecap="round" stroke-linejoin="round"/>
<path d="M77.5514 142.648C77.6851 144.495 77.6352 146.351 77.4023 148.188" stroke="white" stroke-width="0.5" stroke-linecap="round" stroke-linejoin="round"/>
<path d="M77.0995 63.2019C77.0995 63.2019 74.7297 65.9791 74.5459 68.4682" stroke="#604697" stroke-width="0.75" stroke-linecap="round" stroke-linejoin="round"/>
<path d="M74.2978 70.4756C74.2978 70.4756 72.5142 98.8488 77.234 129.045" stroke="#604697" stroke-width="0.75" stroke-linecap="round" stroke-linejoin="round"/>
<path d="M74.8583 103.26C74.8583 103.26 71.0079 104.602 70.9582 106.341C70.8291 111.016 71.3209 120.992 72.3394 121.961C73.3579 122.929 76.5226 120.366 76.5226 120.366C76.5226 120.366 80.9939 120.753 81.4908 119.75C81.9876 118.746 80.1245 104.622 79.8463 103.39C79.5681 102.158 74.8583 103.26 74.8583 103.26Z" fill="#A066FC" stroke="#604697" stroke-linecap="round" stroke-linejoin="round"/>
<path d="M155.283 109.987C156.285 110.477 157.374 110.764 158.488 110.832C157.256 106.202 155.86 101.045 154.419 95.8977C153.117 95.8082 151.438 95.8082 151.473 96.3945C151.498 97.3981 154.026 109.262 155.283 109.987Z" fill="#A066FC" stroke="#604697" stroke-linecap="round" stroke-linejoin="round"/>
<path d="M74.3071 104.721C74.3071 104.721 74.476 113.664 75.1368 117.142" stroke="#604697" stroke-width="0.75" stroke-linecap="round" stroke-linejoin="round"/>
<path d="M120.75 106.788C120.75 106.788 142.917 103.216 168.747 107.781" stroke="#604697" stroke-linecap="round" stroke-linejoin="round"/>
<path d="M188.238 120.793C189.763 121.251 191.263 121.732 192.709 122.249" stroke="#604697" stroke-linecap="round" stroke-linejoin="round"/>
<path d="M148.437 114.046C148.437 114.046 166.014 115.115 182.847 119.323" stroke="#604697" stroke-linecap="round" stroke-linejoin="round"/>
<path d="M94.9399 154.979C109.413 152.767 124.117 152.505 138.66 154.199" stroke="#604697" stroke-linecap="round" stroke-linejoin="round"/>
<path d="M93.1216 152.639C93.1216 152.639 103.525 151.338 106.908 151.079" stroke="#604697" stroke-linecap="round" stroke-linejoin="round"/>
<path d="M162.795 56.1472C164.286 56.3608 165.776 56.644 167.128 56.967" stroke="#604697" stroke-linecap="round" stroke-linejoin="round"/>
<path d="M141.377 55.6555C147.499 55.2231 153.645 55.2647 159.76 55.7798" stroke="#604697" stroke-linecap="round" stroke-linejoin="round"/>
<path d="M61.2207 115.84C61.2207 115.84 76.0656 108.81 97.543 106.858" stroke="#604697" stroke-linecap="round" stroke-linejoin="round"/>
<path d="M86.2207 102.947C86.2207 102.947 95.2081 100.607 108.881 99.8225" stroke="#604697" stroke-linecap="round" stroke-linejoin="round"/>
<path d="M60.9775 152.585C62.7817 155.816 65.693 158.286 69.175 159.54" stroke="#604697" stroke-linecap="round" stroke-linejoin="round"/>
<path d="M60.4805 154.82C60.4805 154.82 62.7161 158.298 65.697 159.788" stroke="#604697" stroke-linecap="round" stroke-linejoin="round"/>
<path d="M133.761 142.4C133.761 142.4 135.252 149.355 141.213 152.336" stroke="#604697" stroke-linecap="round" stroke-linejoin="round"/>
<path d="M134.507 148.61C135.688 150.34 137.32 151.715 139.227 152.585" stroke="#604697" stroke-linecap="round" stroke-linejoin="round"/>
<path d="M36.2163 162.004C36.2163 162.004 37.7068 164.488 42.9233 164.488" stroke="#604697" stroke-linecap="round" stroke-linejoin="round"/>
<path d="M35.2227 163.495C37.1232 165.075 39.4658 166.03 41.9297 166.227" stroke="#604697" stroke-linecap="round" stroke-linejoin="round"/>
<path d="M102.384 157.364C89.1889 158.082 76.0912 160.041 63.2642 163.216L63.5722 163.678C63.5722 163.678 74.5022 161.358 94.7027 166.326C114.903 171.295 116.235 175.269 138.423 175.269C160.61 175.269 182.143 169.973 182.143 169.973L179.45 168.483C159.527 160.052 132.222 155.695 102.384 157.364Z" fill="#A066FC"/>
<path opacity="0.5" d="M102.384 157.364C89.1889 158.082 76.0912 160.041 63.2642 163.216L63.5722 163.678C63.5722 163.678 74.5022 161.358 94.7027 166.326C114.903 171.295 116.235 175.269 138.423 175.269C160.61 175.269 182.143 169.973 182.143 169.973L179.45 168.483C159.527 160.052 132.222 155.695 102.384 157.364Z" fill="white"/>
<path d="M53.7749 168.731C53.7749 168.731 79.8578 164.756 102.463 179.909" stroke="#604697" stroke-linecap="round" stroke-linejoin="round"/>
<path d="M81.0996 174.444C81.0996 174.444 91.7812 177.673 98.2398 184.629" stroke="#604697" stroke-linecap="round" stroke-linejoin="round"/>
<path d="M144.195 161.775C144.195 161.775 159.348 163.266 173.011 171.463" stroke="#604697" stroke-linecap="round" stroke-linejoin="round"/>
<path d="M191.442 174.613C194.171 176.283 196.769 178.158 199.213 180.222" stroke="#604697" stroke-linecap="round" stroke-linejoin="round"/>
<path d="M13.6865 186.333C31.7955 170.932 64.5159 159.505 102.383 157.364C136.947 155.401 168.122 161.592 188.333 172.765" stroke="#604697" stroke-linecap="round" stroke-linejoin="round"/>
<path d="M124.074 161.527C124.074 161.527 139.723 162.272 150.157 165.75" stroke="#604697" stroke-linecap="round" stroke-linejoin="round"/>
<path d="M53.1175 43.583C53.1175 43.583 52.6207 36.712 42.5601 36.4636C32.4996 36.2152 35.1923 43.3396 32.4946 45.0585C29.7969 46.7775 29.0566 44.0649 26.3539 45.7938C23.6513 47.5228 24.8635 50.9508 22.6725 51.4426C20.4816 51.9345 17.5156 49.2318 14.8179 50.9458C12.1201 52.6598 12.1152 54.1354 10.888 54.1354C9.66089 54.1354 7.20662 53.1418 5.73604 54.1354C4.26546 55.129 2.5415 56.3313 2.5415 56.3313H64.6436C64.6436 56.3313 65.3789 54.1205 62.6564 52.6499C59.9338 51.1793 58.7265 52.4015 57.7478 51.1595C56.7691 49.9174 60.4803 46.7775 53.1175 43.583Z" fill="#A066FC"/>
<path d="M90.0163 17.2864C90.0163 17.2864 89.7182 13.1528 83.667 13.0038C77.6158 12.8547 79.2354 17.1423 77.6108 18.1757C75.9862 19.209 75.544 17.5844 73.9194 18.6178C72.2948 19.6512 73.0351 21.718 71.7036 22.0111C70.3722 22.3042 68.6035 20.6846 66.9789 21.718C65.3543 22.7513 65.3543 23.6357 64.614 23.6357C63.8738 23.6357 62.3982 23.0494 61.5139 23.6357C60.6296 24.2219 59.5962 24.9671 59.5962 24.9671H96.9568C96.9568 24.9671 97.399 23.6357 95.7744 22.7513C94.1498 21.867 93.4145 22.6023 92.8233 21.867C92.2321 21.1317 94.4479 19.209 90.0163 17.2864Z" fill="#A066FC"/>
<path opacity="0.7" d="M53.1175 43.583C53.1175 43.583 52.6207 36.712 42.5601 36.4636C32.4996 36.2152 35.1923 43.3396 32.4946 45.0585C29.7969 46.7775 29.0566 44.0649 26.3539 45.7938C23.6513 47.5228 24.8635 50.9508 22.6725 51.4426C20.4816 51.9345 17.5156 49.2318 14.8179 50.9458C12.1201 52.6598 12.1152 54.1354 10.888 54.1354C9.66089 54.1354 7.20662 53.1418 5.73604 54.1354C4.26546 55.129 2.5415 56.3313 2.5415 56.3313H64.6436C64.6436 56.3313 65.3789 54.1205 62.6564 52.6499C59.9338 51.1793 58.7265 52.4015 57.7478 51.1595C56.7691 49.9174 60.4803 46.7775 53.1175 43.583Z" fill="white"/>
<path opacity="0.8" d="M90.0163 17.2864C90.0163 17.2864 89.7182 13.1528 83.667 13.0038C77.6158 12.8547 79.2354 17.1423 77.6108 18.1757C75.9862 19.209 75.544 17.5844 73.9194 18.6178C72.2948 19.6512 73.0351 21.718 71.7036 22.0111C70.3722 22.3042 68.6035 20.6846 66.9789 21.718C65.3543 22.7513 65.3543 23.6357 64.614 23.6357C63.8738 23.6357 62.3982 23.0494 61.5139 23.6357C60.6296 24.2219 59.5962 24.9671 59.5962 24.9671H96.9568C96.9568 24.9671 97.399 23.6357 95.7744 22.7513C94.1498 21.867 93.4145 22.6023 92.8233 21.867C92.2321 21.1317 94.4479 19.209 90.0163 17.2864Z" fill="white"/>
</svg>
