<svg width="202" height="200" viewBox="0 0 202 200" fill="none" xmlns="http://www.w3.org/2000/svg">
<path d="M0.767578 184.512H201.233" stroke="#604697" stroke-linecap="round" stroke-linejoin="round"/>
<path d="M155.042 116.888V116.94C155.042 117.024 155.061 117.112 155.098 117.205C155.307 118.227 155.462 119.258 155.564 120.296C155.653 121.186 155.723 122.202 155.741 123.335C155.786 125.953 155.606 128.57 155.205 131.157C155.103 131.838 154.982 132.556 154.837 133.273C154.609 134.457 154.329 135.697 153.984 136.979C153.83 137.576 153.653 138.187 153.467 138.802L153.247 139.552C153.164 139.855 153.08 140.158 153 140.485C152.465 142.556 152.037 144.653 151.719 146.768C151.322 149.402 151.075 152.017 150.94 154.492C150.758 157.793 150.768 160.841 150.847 163.349C150.845 163.391 150.845 163.433 150.847 163.475C150.931 166.025 151.089 168.024 151.196 169.162C151.257 169.828 151.299 170.206 151.304 170.229" stroke="#604697" stroke-linecap="round" stroke-linejoin="round"/>
<path d="M155.056 116.954C154.358 116.334 153.517 115.897 152.609 115.681L155.056 116.954Z" fill="white"/>
<path d="M155.056 116.954C154.358 116.334 153.517 115.897 152.609 115.681" stroke="#604697" stroke-linecap="round" stroke-linejoin="round"/>
<path d="M155.578 120.31L156.818 119.187" stroke="#604697" stroke-linecap="round" stroke-linejoin="round"/>
<path d="M153.998 136.984C153.933 136.657 153.836 136.337 153.709 136.029C153.525 135.576 153.276 135.154 152.968 134.775C152.738 134.49 152.477 134.232 152.189 134.006" stroke="#604697" stroke-linecap="round" stroke-linejoin="round"/>
<path d="M153.005 140.48C153.181 140.045 153.444 139.65 153.778 139.321C154.112 138.991 154.511 138.734 154.949 138.564" stroke="#604697" stroke-linecap="round" stroke-linejoin="round"/>
<path d="M150.852 157.821C151.266 157.317 151.579 155.411 151.747 154.385C151.789 154.143 151.821 153.919 151.854 153.784" fill="white"/>
<path d="M150.852 157.821C151.266 157.317 151.579 155.411 151.747 154.385C151.789 154.143 151.821 153.919 151.854 153.784" stroke="#604697" stroke-linecap="round" stroke-linejoin="round"/>
<path d="M147.658 161.28C147.796 161.266 147.935 161.266 148.073 161.28C148.684 161.339 149.267 161.563 149.759 161.929C150.252 162.294 150.636 162.787 150.87 163.354" fill="white"/>
<path d="M147.658 161.28C147.796 161.266 147.935 161.266 148.073 161.28C148.684 161.339 149.267 161.563 149.759 161.929C150.252 162.294 150.636 162.787 150.87 163.354" stroke="#604697" stroke-linecap="round" stroke-linejoin="round"/>
<path d="M154.851 133.311C154.851 133.311 155.07 125.745 150.917 123" stroke="#604697" stroke-linecap="round" stroke-linejoin="round"/>
<path d="M155.205 149.528C155.751 151.295 151.942 154.656 151.942 154.656C151.942 154.656 146.913 154.026 146.348 152.264C145.784 150.502 147.076 147.603 149.518 146.857C151.961 146.111 154.678 147.761 155.205 149.528Z" fill="#A066FC"/>
<path d="M159.442 128.118C158.976 129.982 155.359 131.32 155.359 131.32C155.359 131.32 152.874 128.416 153.34 126.542C153.807 124.668 155.816 122.608 157.503 123.042C159.191 123.475 159.927 126.244 159.442 128.118Z" fill="#A066FC"/>
<path d="M144.997 156.119C147.258 156.996 148.642 160.995 148.642 160.995C148.642 160.995 144.913 163.004 142.657 162.123C140.401 161.242 137.996 158.762 138.648 157.108C139.301 155.453 142.736 155.22 144.997 156.119Z" fill="#A066FC"/>
<path d="M149.952 134.117C150.409 134.502 150.934 134.799 151.499 134.994C151.783 135.086 152.087 135.098 152.377 135.029C152.667 134.96 152.933 134.812 153.145 134.602C153.611 134.047 153.499 133.204 153.196 132.509C152.59 131.181 150.362 128.92 148.651 129.568C146.181 130.514 148.852 133.311 149.952 134.117Z" fill="#A066FC"/>
<path d="M155.009 137.506C154.683 137.907 154.338 138.415 154.52 138.905C154.621 139.11 154.788 139.277 154.994 139.378C155.199 139.479 155.433 139.509 155.657 139.464C156.105 139.358 156.522 139.152 156.879 138.863C157.75 138.257 159.54 136.998 158.398 135.8C157.256 134.602 155.671 136.663 155.009 137.506Z" fill="#A066FC"/>
<path d="M147.714 120.599C147.526 120.61 147.346 120.68 147.2 120.798C147.053 120.917 146.948 121.079 146.899 121.261C146.824 121.694 147.183 122.072 147.528 122.338C148.395 123.009 151.001 124.808 151.579 123.07C152.129 121.429 148.861 120.473 147.714 120.599Z" fill="#A066FC"/>
<path d="M152.511 114.884C151.975 114.936 151.439 114.74 150.898 114.772C150.357 114.805 149.765 115.239 149.882 115.77C149.999 116.301 150.6 116.418 151.094 116.446C151.945 116.501 152.799 116.443 153.634 116.273C153.832 116.255 154.016 116.161 154.147 116.012C154.366 115.691 154.021 115.262 153.648 115.15C153.266 115.099 152.889 115.009 152.525 114.88L152.511 114.884Z" fill="#A066FC"/>
<path d="M157.76 118.581C158.296 118.581 158.818 118.367 159.359 118.362C159.9 118.357 160.524 118.753 160.436 119.294C160.347 119.835 159.769 119.989 159.275 120.049C158.43 120.161 157.575 120.161 156.73 120.049C156.53 120.045 156.34 119.963 156.199 119.821C155.961 119.518 156.278 119.066 156.637 118.926C157.017 118.855 157.387 118.741 157.742 118.586L157.76 118.581Z" fill="#A066FC"/>
<path d="M157.228 158.305C157.352 158.176 157.517 158.096 157.694 158.077C157.814 158.088 157.926 158.141 158.011 158.226C158.096 158.311 158.149 158.423 158.161 158.543C158.186 158.773 158.158 159.006 158.077 159.224C157.708 160.45 153.606 169.302 152.66 167.712C152.105 166.78 153.476 163.661 153.881 162.78C154.655 161.061 155.798 159.533 157.228 158.305Z" fill="#A066FC"/>
<path d="M155.229 117.462C155.229 117.462 154.982 115.313 155.499 115.132" stroke="#604697" stroke-linecap="round" stroke-linejoin="round"/>
<path d="M154.771 115.22C155.036 114.461 155.492 113.783 156.095 113.253C156.743 112.787 157.783 112.749 158.254 113.397C158.78 114.12 158.254 115.215 157.447 115.602C156.641 115.989 155.69 115.872 154.804 115.747C154.804 115.616 154.804 115.486 154.804 115.355L154.771 115.22Z" fill="#A066FC"/>
<path d="M156.981 184.405C152.587 185.146 148.1 185.146 143.705 184.405L138.541 169.167H162.146L156.981 184.405Z" fill="white" stroke="#604697" stroke-linecap="round" stroke-linejoin="round"/>
<path d="M66.8944 74.311V74.3623C66.913 74.4462 66.9317 74.5348 66.9503 74.628C67.1615 75.649 67.3171 76.6807 67.4165 77.7185C67.505 78.6089 67.5703 79.6251 67.5936 80.7578C67.6414 83.369 67.4667 85.9795 67.0715 88.561C66.969 89.2416 66.8478 89.9595 66.7033 90.6773C66.4749 91.8613 66.1905 93.1013 65.8502 94.3832C65.6917 94.9798 65.5193 95.5905 65.3328 96.2058C65.2582 96.4575 65.1836 96.7046 65.1137 96.9563C65.0438 97.208 64.9412 97.5623 64.862 97.8886C64.3266 99.9596 63.8987 102.057 63.5801 104.172C63.1839 106.806 62.9415 109.421 62.8063 111.896C62.6245 115.196 62.6292 118.245 62.7131 120.753V120.879C62.8017 123.429 62.9555 125.428 63.0674 126.57C63.1233 127.232 63.1699 127.61 63.1699 127.633" stroke="#604697" stroke-linecap="round" stroke-linejoin="round"/>
<path d="M66.9041 74.3763C66.5697 74.0836 66.2038 73.8287 65.8133 73.6165C65.3827 73.3896 64.9254 73.2173 64.4521 73.1038" fill="white"/>
<path d="M66.9041 74.3763C66.5697 74.0836 66.2038 73.8287 65.8133 73.6165C65.3827 73.3896 64.9254 73.2173 64.4521 73.1038" stroke="#604697" stroke-linecap="round" stroke-linejoin="round"/>
<path d="M67.4258 77.7328L68.6704 76.6094" stroke="#604697" stroke-linecap="round" stroke-linejoin="round"/>
<path d="M65.8504 94.4064C65.7839 94.0791 65.6855 93.759 65.5567 93.4508C65.373 92.9985 65.1232 92.5759 64.8156 92.1969C64.5859 91.912 64.3247 91.654 64.0371 91.4277" stroke="#604697" stroke-linecap="round" stroke-linejoin="round"/>
<path d="M64.8574 97.8841C65.0314 97.4485 65.2934 97.0535 65.6271 96.7238C65.9608 96.3942 66.3589 96.1369 66.7966 95.9683" stroke="#604697" stroke-linecap="round" stroke-linejoin="round"/>
<path d="M62.6992 115.243C63.1141 114.74 63.4311 112.833 63.5989 111.808C63.6362 111.565 63.6735 111.341 63.7014 111.206" fill="white"/>
<path d="M62.6992 115.243C63.1141 114.74 63.4311 112.833 63.5989 111.808C63.6362 111.565 63.6735 111.341 63.7014 111.206" stroke="#604697" stroke-linecap="round" stroke-linejoin="round"/>
<path d="M59.5059 118.683C59.6454 118.669 59.7859 118.669 59.9254 118.683C60.5355 118.744 61.1177 118.969 61.6102 119.334C62.1026 119.7 62.4869 120.191 62.7223 120.758" fill="white"/>
<path d="M59.5059 118.683C59.6454 118.669 59.7859 118.669 59.9254 118.683C60.5355 118.744 61.1177 118.969 61.6102 119.334C62.1026 119.7 62.4869 120.191 62.7223 120.758" stroke="#604697" stroke-linecap="round" stroke-linejoin="round"/>
<path d="M66.6984 90.7147C66.6984 90.7147 66.9222 83.1491 62.7642 80.4036" stroke="#604697" stroke-linecap="round" stroke-linejoin="round"/>
<path d="M67.0759 106.95C67.6166 108.717 63.8129 112.078 63.8129 112.078C63.8129 112.078 58.7786 111.449 58.2192 109.687C57.6598 107.925 58.951 105.025 61.389 104.279C63.8269 103.534 66.5305 105.188 67.0759 106.95Z" fill="#A066FC"/>
<path d="M71.2992 85.5405C70.8331 87.4051 67.2158 88.7429 67.2158 88.7429C67.2158 88.7429 64.7033 85.8388 65.1881 83.9649C65.6729 82.091 67.6586 80.0307 69.3461 80.4642C71.0335 80.8977 71.7654 83.6666 71.2992 85.5405Z" fill="#A066FC"/>
<path d="M56.849 113.542C59.1098 114.423 60.4989 118.418 60.4989 118.418C60.4989 118.418 56.7698 120.427 54.509 119.546C52.2482 118.665 49.8476 116.185 50.5048 114.53C51.1621 112.875 54.5836 112.661 56.849 113.542Z" fill="#A066FC"/>
<path d="M61.8044 91.5398C62.2604 91.9244 62.7835 92.2215 63.3474 92.4161C63.6312 92.508 63.9348 92.5201 64.225 92.451C64.5152 92.382 64.7808 92.2344 64.9929 92.0246C65.459 91.4699 65.3471 90.6261 65.0441 89.9316C64.4381 88.6031 62.2146 86.3423 60.4992 86.9902C58.0333 87.9272 60.6997 90.724 61.8044 91.5398Z" fill="#A066FC"/>
<path d="M66.857 94.9333C66.5353 95.3341 66.1904 95.8655 66.3675 96.3317C66.4689 96.5373 66.6354 96.7036 66.8411 96.8048C67.0468 96.9059 67.2802 96.9363 67.5049 96.8911C67.9523 96.7858 68.37 96.5802 68.7262 96.2897C69.5979 95.6884 71.3879 94.4252 70.2458 93.2272C69.1038 92.0292 67.5422 94.0849 66.857 94.9333Z" fill="#A066FC"/>
<path d="M59.562 78.0216C59.374 78.0332 59.1944 78.1033 59.0482 78.2219C58.9019 78.3406 58.7964 78.5019 58.7463 78.6835C58.6717 79.117 59.0306 79.4946 59.3802 79.7603C60.2472 80.4315 62.8483 82.2308 63.431 80.4921C63.9764 78.8513 60.7134 77.8957 59.562 78.0216Z" fill="#A066FC"/>
<path d="M64.3589 72.3067C63.8228 72.358 63.2868 72.1622 62.7507 72.1949C62.2146 72.2275 61.6133 72.661 61.7345 73.1924C61.8557 73.7238 62.4477 73.8403 62.9465 73.8683C63.7957 73.9229 64.6483 73.8649 65.4823 73.6958C65.6815 73.6773 65.8664 73.584 65.9997 73.4348C66.2141 73.1132 65.8692 72.6843 65.5009 72.5724C65.1166 72.5216 64.7385 72.431 64.3729 72.3021L64.3589 72.3067Z" fill="#A066FC"/>
<path d="M69.6073 76.0031C70.148 76.0031 70.6701 75.7886 71.2062 75.784C71.7422 75.7793 72.3715 76.1755 72.2876 76.7163C72.2037 77.257 71.6164 77.4108 71.1223 77.4714C70.2776 77.5833 69.4218 77.5833 68.5771 77.4714C68.3771 77.4668 68.1867 77.385 68.0457 77.243C67.808 76.94 68.125 76.4879 68.4886 76.348C68.8682 76.2757 69.2387 76.1616 69.5933 76.0077L69.6073 76.0031Z" fill="#A066FC"/>
<path d="M69.076 115.728C69.2 115.6 69.3648 115.519 69.5421 115.5C69.6609 115.513 69.7716 115.567 69.8562 115.652C69.9408 115.736 69.9944 115.847 70.0083 115.966C70.0324 116.196 70.002 116.429 69.9197 116.646C69.5561 117.872 65.4494 126.724 64.5078 125.135C63.9484 124.202 65.3189 121.084 65.7244 120.203C66.4997 118.483 67.6439 116.956 69.076 115.728Z" fill="#A066FC"/>
<path d="M67.076 74.8937C67.076 74.8937 66.8289 72.7448 67.351 72.563" stroke="#604697" stroke-linecap="round" stroke-linejoin="round"/>
<path d="M66.6377 72.6422C66.8985 71.8816 67.3551 71.2032 67.9615 70.6751C68.6095 70.209 69.6443 70.1717 70.1151 70.8196C70.6419 71.5421 70.1151 72.6376 69.3087 73.0245C68.5023 73.4114 67.556 73.2948 66.6703 73.169C66.6703 73.0385 66.6703 72.9079 66.6703 72.7774L66.6377 72.6422Z" fill="#A066FC"/>
<path d="M7.83398 125.838V79.7788" stroke="#604697" stroke-linecap="round" stroke-linejoin="round"/>
<path d="M151.639 125.838H145.948" stroke="#604697" stroke-linecap="round" stroke-linejoin="round"/>
<path d="M196.272 125.838H184.679" stroke="#604697" stroke-linecap="round" stroke-linejoin="round"/>
<path d="M145.425 55.8656H165.968V36.2969" stroke="#604697" stroke-linecap="round" stroke-linejoin="round"/>
<path d="M25.6919 49.8894H47.5167V65.8082H71.4392" stroke="#604697" stroke-linecap="round" stroke-linejoin="round"/>
<path d="M12.8174 103.799V68.6238" stroke="#604697" stroke-linecap="round" stroke-linejoin="round"/>
<path d="M22.5688 53.3577V80.9254" stroke="#604697" stroke-linecap="round" stroke-linejoin="round"/>
<path d="M32.3164 53.3577V77.7276" stroke="#604697" stroke-linecap="round" stroke-linejoin="round"/>
<path d="M42.0635 53.3577V95.9865" stroke="#604697" stroke-linecap="round" stroke-linejoin="round"/>
<path d="M88.7568 47.3119V19.2827H128.44V47.3119" stroke="#604697" stroke-linecap="round" stroke-linejoin="round"/>
<path d="M91.6655 33.2063V22.6108H99.0026" stroke="#604697" stroke-linecap="round" stroke-linejoin="round"/>
<path d="M100.615 33.2065V22.6111H107.952" stroke="#604697" stroke-linecap="round" stroke-linejoin="round"/>
<path d="M109.565 33.2065V22.6111H116.903" stroke="#604697" stroke-linecap="round" stroke-linejoin="round"/>
<path d="M118.516 33.2063V22.6108H125.853" stroke="#604697" stroke-linecap="round" stroke-linejoin="round"/>
<path d="M91.6655 47.312V36.7166H99.0026" stroke="#604697" stroke-linecap="round" stroke-linejoin="round"/>
<path d="M100.615 47.312V36.7166H107.952" stroke="#604697" stroke-linecap="round" stroke-linejoin="round"/>
<path d="M109.565 47.312V36.7166H116.903" stroke="#604697" stroke-linecap="round" stroke-linejoin="round"/>
<path d="M118.516 47.312V36.7166H125.853" stroke="#604697" stroke-linecap="round" stroke-linejoin="round"/>
<path d="M169.147 38.7209V73.8449" stroke="#604697" stroke-linecap="round" stroke-linejoin="round"/>
<path d="M183.556 123.265H184.68" stroke="#604697" stroke-linecap="round" stroke-linejoin="round"/>
<path d="M177.785 48.8081V88.132" stroke="#604697" stroke-linecap="round" stroke-linejoin="round"/>
<path d="M186.428 113.224V123.265H193.322" stroke="#604697" stroke-linecap="round" stroke-linejoin="round"/>
<path d="M186.428 61.627V88.3323" stroke="#604697" stroke-linecap="round" stroke-linejoin="round"/>
<path d="M195.065 81.8904V123.265H196.636" stroke="#604697" stroke-linecap="round" stroke-linejoin="round"/>
<path d="M89.801 126.682H0.767578V184.512H89.801V126.682Z" fill="white" stroke="#604697" stroke-linecap="round" stroke-linejoin="round"/>
<path d="M0.767578 126.682L45.2843 155.597L89.801 126.682H0.767578Z" fill="white" stroke="#604697" stroke-linecap="round" stroke-linejoin="round"/>
<path d="M31.9013 146.904L0.767578 184.512" stroke="#604697" stroke-linecap="round" stroke-linejoin="round"/>
<path d="M58.9097 146.904L90.0434 184.512" stroke="#604697" stroke-linecap="round" stroke-linejoin="round"/>
<path d="M137.445 52.8918H116.749C116.153 52.8925 115.568 53.0529 115.054 53.3562C114.541 53.6595 114.119 54.0947 113.831 54.6166C113.322 55.5345 112.577 56.2995 111.673 56.8322C110.769 57.3648 109.738 57.6458 108.689 57.6458C107.64 57.6458 106.609 57.3648 105.705 56.8322C104.801 56.2995 104.056 55.5345 103.548 54.6166C103.262 54.0879 102.838 53.6464 102.322 53.3387C101.806 53.031 101.216 52.8685 100.615 52.8685H79.942C79.3746 52.8611 78.8112 52.9656 78.2841 53.176C77.757 53.3863 77.2765 53.6984 76.87 54.0945C76.4636 54.4906 76.1391 54.9628 75.9152 55.4843C75.6913 56.0058 75.5722 56.5663 75.5649 57.1337V173.865C75.5809 175.011 76.0508 176.104 76.8714 176.903C77.692 177.703 78.7963 178.144 79.942 178.131H137.445C138.592 178.144 139.696 177.703 140.518 176.904C141.339 176.104 141.81 175.011 141.827 173.865V57.1571C141.811 56.0106 141.341 54.9173 140.519 54.1175C139.698 53.3178 138.592 52.8769 137.445 52.8918Z" fill="#A066FC"/>
<path d="M143.845 55.8659C143.848 55.0796 143.695 54.3005 143.396 53.5733C143.097 52.8461 142.657 52.1851 142.102 51.6282C141.547 51.0714 140.887 50.6295 140.161 50.328C139.434 50.0265 138.656 49.8713 137.87 49.8713H79.5223C78.7378 49.8707 77.9608 50.0247 77.2358 50.3245C76.5108 50.6243 75.852 51.0641 75.297 51.6186C74.742 52.1732 74.3017 52.8317 74.0014 53.5564C73.701 54.2812 73.5464 55.0581 73.5464 55.8426V178.527C73.5464 180.111 74.1755 181.629 75.2953 182.749C76.4152 183.869 77.934 184.498 79.5177 184.498H137.87C139.454 184.498 140.973 183.869 142.094 182.75C143.214 181.63 143.844 180.111 143.845 178.527V55.8659ZM141.827 173.866C141.81 175.012 141.339 176.104 140.518 176.904C139.696 177.703 138.591 178.144 137.445 178.131H79.9419C78.7962 178.144 77.6918 177.703 76.8712 176.903C76.0506 176.104 75.5808 175.011 75.5648 173.866V57.1572C75.5721 56.5897 75.6911 56.0292 75.915 55.5077C76.139 54.9863 76.4634 54.514 76.8699 54.1179C77.2763 53.7219 77.7568 53.4097 78.2839 53.1994C78.811 52.989 79.3744 52.8846 79.9419 52.8919H100.625C101.225 52.8918 101.814 53.0542 102.33 53.362C102.845 53.6698 103.267 54.1114 103.552 54.64C104.061 55.5579 104.806 56.3229 105.71 56.8556C106.614 57.3883 107.644 57.6692 108.694 57.6692C109.743 57.6692 110.773 57.3883 111.677 56.8556C112.582 56.3229 113.327 55.5579 113.835 54.64C114.122 54.1175 114.545 53.6817 115.058 53.3783C115.572 53.0749 116.157 52.915 116.753 52.9153H137.45C138.017 52.9079 138.581 53.0123 139.108 53.2227C139.635 53.433 140.116 53.7452 140.522 54.1412C140.928 54.5373 141.253 55.0096 141.477 55.531C141.701 56.0525 141.82 56.613 141.827 57.1805V173.866Z" fill="#604697"/>
<path opacity="0.2" d="M124.021 49.8901L85.2607 184.508L100.653 184.494L137.977 49.8901H124.021Z" fill="white"/>
<path opacity="0.2" d="M118.24 49.8901L77.2612 184.512L79.5034 184.498L119.713 49.8901H118.24Z" fill="white"/>
<path d="M119.149 149.966C119.178 151.301 118.939 152.627 118.447 153.868C117.955 155.109 117.22 156.238 116.285 157.191C115.349 158.143 114.233 158.898 113.001 159.412C111.77 159.926 110.448 160.189 109.113 160.184C106.39 160.174 103.778 159.1 101.836 157.191C99.8942 155.282 98.7752 152.689 98.718 149.966C98.69 148.632 98.9292 147.306 99.4214 146.066C99.9136 144.826 100.649 143.697 101.584 142.745C102.519 141.794 103.635 141.039 104.867 140.525C106.098 140.011 107.42 139.749 108.754 139.753C111.477 139.762 114.088 140.836 116.03 142.744C117.973 144.652 119.092 147.244 119.149 149.966Z" fill="white" stroke="#604697" stroke-linecap="round" stroke-linejoin="round"/>
<path d="M105.584 157.592C104.636 157.242 103.766 156.706 103.025 156.017C102.279 155.3 101.701 154.426 101.333 153.458C100.914 152.373 100.707 151.218 100.722 150.055C100.717 149.064 100.892 148.079 101.24 147.151C101.556 146.293 102.03 145.503 102.638 144.82C103.837 143.509 105.384 142.568 107.099 142.107C107.941 141.88 108.81 141.766 109.682 141.767C110.406 141.764 111.128 141.85 111.831 142.023C112.509 142.19 113.158 142.459 113.756 142.82C114.348 143.176 114.878 143.624 115.327 144.149C115.794 144.714 116.152 145.363 116.38 146.06C116.642 146.856 116.771 147.689 116.762 148.526C116.753 150.144 116.17 151.707 115.117 152.936C114.664 153.449 114.129 153.882 113.532 154.218C113.018 154.513 112.437 154.673 111.845 154.684C111.435 154.689 111.036 154.56 110.707 154.316C110.542 154.193 110.408 154.035 110.315 153.852C110.222 153.669 110.173 153.467 110.171 153.262C109.865 153.727 109.446 154.106 108.952 154.363C108.458 154.62 107.907 154.746 107.351 154.73C106.913 154.75 106.477 154.671 106.074 154.5C105.67 154.329 105.311 154.07 105.02 153.742C104.438 153.066 104.131 152.196 104.158 151.304C104.162 150.57 104.289 149.842 104.536 149.151C104.781 148.454 105.128 147.797 105.566 147.202C106.002 146.618 106.558 146.133 107.197 145.78C107.836 145.42 108.557 145.232 109.29 145.235C109.8 145.23 110.303 145.352 110.754 145.589C111.192 145.823 111.547 146.186 111.77 146.629L111.863 146.316C111.938 146.098 112.096 145.917 112.303 145.815C112.51 145.713 112.749 145.697 112.968 145.771C113.053 145.8 113.133 145.841 113.206 145.892C113.275 145.948 113.331 146.019 113.367 146.1C113.404 146.181 113.42 146.27 113.416 146.358C113.416 146.446 113.402 146.532 113.374 146.615L111.863 151.64C111.73 152.023 111.644 152.42 111.607 152.824C111.593 152.899 111.598 152.977 111.621 153.05C111.644 153.123 111.685 153.189 111.74 153.242C111.795 153.296 111.862 153.335 111.936 153.356C112.009 153.378 112.087 153.38 112.162 153.365C112.696 153.33 113.197 153.092 113.56 152.698C114.064 152.2 114.451 151.597 114.693 150.931C114.982 150.205 115.131 149.429 115.131 148.647C115.137 147.958 115.037 147.273 114.833 146.615C114.661 146.048 114.39 145.516 114.031 145.044C113.691 144.614 113.279 144.247 112.814 143.958C112.351 143.665 111.844 143.447 111.313 143.31C110.769 143.167 110.208 143.095 109.644 143.095C108.93 143.096 108.219 143.197 107.533 143.394C106.826 143.594 106.152 143.897 105.533 144.293C104.909 144.687 104.344 145.167 103.855 145.72C103.351 146.302 102.959 146.972 102.699 147.696C102.406 148.485 102.259 149.321 102.265 150.162C102.25 151.159 102.431 152.149 102.797 153.076C103.113 153.878 103.61 154.596 104.251 155.173C104.87 155.711 105.585 156.126 106.358 156.399C107.174 156.688 108.033 156.833 108.899 156.828C109.823 156.828 110.743 156.688 111.626 156.413C111.714 156.381 111.807 156.366 111.901 156.367C111.988 156.365 112.075 156.382 112.155 156.417C112.235 156.451 112.308 156.503 112.367 156.567C112.426 156.629 112.473 156.702 112.504 156.782C112.535 156.862 112.55 156.947 112.549 157.033C112.56 157.169 112.522 157.304 112.441 157.413C112.361 157.523 112.243 157.6 112.11 157.63C111.01 157.966 109.867 158.142 108.717 158.152C107.648 158.15 106.588 157.961 105.584 157.592ZM109.435 152.759C109.896 152.428 110.237 151.957 110.409 151.416L111.383 147.99L111.318 147.85C111.257 147.738 111.184 147.633 111.099 147.538C110.982 147.403 110.854 147.278 110.717 147.165C110.542 147.025 110.345 146.917 110.134 146.843C109.582 146.651 108.978 146.672 108.442 146.904C108.148 147.028 107.878 147.203 107.645 147.421C107.402 147.648 107.186 147.901 107.001 148.176C106.816 148.463 106.66 148.768 106.535 149.085C106.404 149.403 106.303 149.732 106.232 150.069C106.162 150.389 106.126 150.716 106.125 151.043C106.121 151.254 106.133 151.464 106.162 151.672C106.184 151.858 106.225 152.041 106.284 152.218C106.335 152.383 106.408 152.54 106.503 152.684C106.587 152.814 106.694 152.928 106.82 153.02C106.953 153.116 107.103 153.187 107.262 153.229C107.449 153.284 107.642 153.309 107.836 153.304C108.419 153.311 108.988 153.124 109.453 152.773L109.435 152.759Z" fill="#A066FC" stroke="#604697" stroke-linecap="round" stroke-linejoin="round"/>
<path d="M118.921 114.945C118.949 116.279 118.71 117.605 118.217 118.845C117.725 120.086 116.99 121.215 116.055 122.166C115.119 123.118 114.003 123.873 112.772 124.387C111.541 124.901 110.219 125.163 108.885 125.158C106.162 125.149 103.551 124.076 101.608 122.168C99.6661 120.259 98.5469 117.667 98.4897 114.945C98.4604 113.611 98.6987 112.284 99.1904 111.043C99.6821 109.802 100.417 108.672 101.353 107.72C102.288 106.767 103.405 106.012 104.637 105.498C105.869 104.984 107.191 104.722 108.526 104.727C111.249 104.738 113.86 105.812 115.802 107.721C117.745 109.63 118.864 112.223 118.921 114.945Z" fill="white" stroke="#604697" stroke-linecap="round" stroke-linejoin="round"/>
<path d="M115.117 114.013C111.915 111.915 105.636 111.915 102.582 114.013C102.024 114.117 101.522 114.419 101.168 114.863C100.813 115.308 100.631 115.864 100.653 116.432C100.699 117.788 106.335 117.788 106.288 116.432C106.261 115.865 106.044 115.323 105.673 114.894C107.787 114.437 109.974 114.437 112.087 114.894C111.743 115.331 111.565 115.876 111.584 116.432C111.63 117.788 117.266 117.788 117.215 116.432C117.188 115.852 116.967 115.297 116.586 114.858C116.205 114.419 115.688 114.121 115.117 114.013Z" fill="#A066FC" stroke="#604697" stroke-linecap="round" stroke-linejoin="round"/>
<path d="M118.921 80.9258C118.977 83.4383 117.606 85.6851 115.406 87.1815V93.2833L111.029 88.9015C110.321 89.0281 109.604 89.0905 108.885 89.088C103.245 89.088 98.5877 85.4334 98.4899 80.9258C98.392 76.4182 102.881 72.7683 108.526 72.7683C114.171 72.7683 118.846 76.4415 118.921 80.9258Z" fill="white" stroke="#604697" stroke-linecap="round" stroke-linejoin="round"/>
<path d="M104.354 80.9259C104.355 81.1879 104.278 81.4443 104.133 81.6626C103.988 81.881 103.782 82.0514 103.54 82.1523C103.298 82.2532 103.032 82.2801 102.774 82.2295C102.517 82.179 102.281 82.0532 102.095 81.8683C101.91 81.6833 101.783 81.4475 101.732 81.1905C101.68 80.9336 101.706 80.6672 101.806 80.425C101.906 80.1828 102.076 79.9758 102.294 79.8301C102.512 79.6845 102.768 79.6067 103.03 79.6067C103.38 79.6067 103.716 79.7455 103.964 79.9928C104.212 80.24 104.353 80.5756 104.354 80.9259Z" fill="#A066FC" stroke="#604697" stroke-linecap="round" stroke-linejoin="round"/>
<path d="M110.018 80.9261C110.019 81.1881 109.942 81.4446 109.797 81.6629C109.652 81.8812 109.446 82.0516 109.204 82.1525C108.962 82.2534 108.696 82.2803 108.439 82.2298C108.181 82.1792 107.945 82.0535 107.76 81.8685C107.574 81.6836 107.447 81.4477 107.396 81.1908C107.344 80.9338 107.37 80.6674 107.47 80.4253C107.571 80.1831 107.74 79.976 107.958 79.8304C108.176 79.6847 108.432 79.6069 108.694 79.6069C109.044 79.6069 109.38 79.7458 109.628 79.993C109.877 80.2403 110.017 80.5758 110.018 80.9261Z" fill="#A066FC" stroke="#604697" stroke-linecap="round" stroke-linejoin="round"/>
<path d="M115.681 80.9259C115.682 81.1879 115.605 81.4443 115.46 81.6626C115.315 81.881 115.109 82.0514 114.867 82.1523C114.625 82.2532 114.359 82.2801 114.102 82.2295C113.845 82.179 113.608 82.0532 113.423 81.8683C113.237 81.6833 113.11 81.4475 113.059 81.1905C113.008 80.9336 113.033 80.6672 113.134 80.425C113.234 80.1828 113.403 79.9758 113.621 79.8301C113.839 79.6845 114.095 79.6067 114.357 79.6067C114.707 79.6067 115.043 79.7455 115.292 79.9928C115.54 80.24 115.68 80.5756 115.681 80.9259Z" fill="#A066FC" stroke="#604697" stroke-linecap="round" stroke-linejoin="round"/>
<path d="M51.6284 99.5293C51.463 99.8372 51.2245 100.1 50.9339 100.294C48.7834 102.009 46.5832 103.655 44.3333 105.23C43.5082 105.808 42.6505 106.405 41.8534 107.053C37.0615 110.26 39.9888 111.043 37.0615 117.83C36.3716 119.452 36.4974 127.4 36.4974 127.4H36.2597C35.6986 126.846 35.1022 126.329 34.4744 125.852C34.3876 125.794 34.2973 125.741 34.204 125.694C34.1164 125.649 34.0219 125.619 33.9243 125.605C33.4582 125.577 31.6822 125.792 29.8875 125.675L29.4214 125.638C29.1603 125.61 28.9039 125.577 28.6476 125.531C28.3912 125.484 28.1441 125.433 27.9064 125.368C26.2033 124.822 24.5332 124.177 22.9047 123.438L22.0936 123.088L21.6927 122.916L21.3291 122.757L21.0681 122.645L20.8164 122.538C20.3922 122.361 19.9959 122.198 19.6324 122.072C19.4657 122.012 19.2961 121.961 19.1243 121.918C19.1243 122.3 19.0637 122.692 19.0124 123.074C18.7886 124.897 18.2899 126.58 17.3995 126.803C17.3812 126.808 17.3619 126.808 17.3436 126.803C17.2652 126.818 17.1856 126.826 17.1059 126.827H17.0359C16.8387 126.823 16.6435 126.786 16.4579 126.719C15.6499 126.375 14.9896 125.756 14.5933 124.971C14.4163 124.641 14.3174 124.274 14.3043 123.899C14.3043 122.543 13.9268 114.539 13.9268 112.208C13.9268 109.878 14.3929 105.799 15.5536 104.284C16.0072 103.642 16.5801 103.093 17.241 102.666C18.0915 101.958 19.0669 101.414 20.1171 101.063C21.3571 100.657 24.1306 99.6226 26.0651 98.8907L23.1424 100.019C23.8836 101.287 25.4731 103.282 28.3399 103.538C31.0342 103.767 32.703 101.329 33.5561 99.548C33.6306 99.5759 38.32 98.6856 39.4062 98.7369C42.9442 98.8907 45.8296 96.9749 47.1348 96.215C47.5285 95.9798 47.9703 95.8366 48.4271 95.7961C48.8839 95.7556 49.344 95.8188 49.773 95.9811C50.2019 96.1433 50.5887 96.4004 50.9043 96.7331C51.22 97.0658 51.4563 97.4656 51.5958 97.9025V97.9444C51.7997 98.4511 51.8113 99.0148 51.6284 99.5293Z" fill="#A066FC" stroke="#604697" stroke-linecap="round" stroke-linejoin="round"/>
<path d="M33.5045 99.576L33.29 99.5015" stroke="#604697" stroke-linecap="round" stroke-linejoin="round"/>
<path d="M37.481 129.451C37.4833 129.47 37.4833 129.489 37.481 129.507C37.4621 129.552 37.4333 129.592 37.3967 129.625C37.3602 129.657 37.3168 129.681 37.2698 129.694C37.2229 129.708 37.1735 129.711 37.1253 129.702C37.0771 129.694 37.0314 129.675 36.9916 129.647C36.7771 129.526 36.4462 128.747 36.4462 128.747L36.0779 128.365L35.8355 128.109C35.8728 128.202 36.1665 128.915 36.0127 129.246C36.0048 129.269 35.9921 129.289 35.9754 129.307C35.8724 129.444 35.7387 129.556 35.5849 129.633C35.4312 129.71 35.2616 129.75 35.0897 129.75C34.8893 129.75 34.3019 129.819 33.7892 129.852H33.7332C33.578 129.861 33.4223 129.861 33.2671 129.852C32.8532 129.799 32.454 129.664 32.0924 129.456C31.2724 129.335 30.4644 129.144 29.6778 128.883L29.5379 128.808L29.4121 128.733C29.3293 128.683 29.2527 128.624 29.1837 128.556C28.8996 128.319 28.6583 128.036 28.4705 127.717C28.4705 127.717 26.5779 127.638 24.0374 127.442C23.1052 127.372 22.0983 127.284 21.0541 127.181C19.4506 127.018 18.1267 127.027 17.0872 126.883H17.0127C16.8076 126.855 16.6164 126.817 16.4346 126.776C15.991 126.689 15.5807 126.479 15.251 126.17C14.9212 125.86 14.6852 125.465 14.5701 125.028C14.509 124.821 14.4592 124.611 14.4209 124.398L15.232 123C15.6547 122.661 16.1262 122.387 16.6304 122.189C17.4128 121.861 18.2766 121.782 19.1056 121.96C19.2775 122.003 19.4471 122.054 19.6137 122.114C19.9773 122.254 20.3736 122.417 20.7977 122.58L21.0541 122.687L21.3152 122.799L21.6788 122.958C23.7531 123.816 26.2283 124.92 27.8831 125.386C28.3801 125.517 28.8867 125.607 29.3981 125.657L29.8642 125.694C31.6589 125.811 33.4302 125.596 33.901 125.624C34.3718 125.652 35.5232 126.748 36.2597 127.423C36.4602 127.61 36.6373 127.764 36.7585 127.857L36.8144 127.904L36.8564 127.941C37.1234 128.215 37.3103 128.557 37.3971 128.929C37.4338 129.054 37.4588 129.182 37.4717 129.311C37.4802 129.357 37.4833 129.404 37.481 129.451Z" fill="white" stroke="#604697" stroke-linecap="round" stroke-linejoin="round"/>
<path d="M37.481 129.451C37.4833 129.47 37.4833 129.489 37.481 129.507C37.4616 129.552 37.4325 129.592 37.3957 129.624C37.359 129.655 37.3156 129.679 37.2686 129.692C37.2217 129.705 37.1724 129.707 37.1245 129.698C37.0766 129.69 37.0312 129.671 36.9916 129.642C36.7611 129.375 36.5768 129.071 36.4462 128.743L36.078 128.365L35.8356 128.113C35.8682 128.188 36.1712 128.915 36.0174 129.251C36.0095 129.273 35.9968 129.294 35.9801 129.311C35.9284 129.38 35.8689 129.443 35.8029 129.498C35.6019 129.659 35.3522 129.748 35.0944 129.75C34.8893 129.75 34.3066 129.815 33.7985 129.852H33.7333C33.578 129.861 33.4224 129.861 33.2671 129.852C32.8557 129.797 32.4586 129.664 32.0971 129.461C31.2771 129.338 30.4692 129.144 29.6825 128.883L29.5473 128.817L29.4214 128.743C29.3408 128.69 29.2645 128.63 29.193 128.566C28.9048 128.327 28.6603 128.04 28.4705 127.717C28.4705 127.717 26.6339 127.638 24.1447 127.447C23.2124 127.377 22.1356 127.284 21.0541 127.176C19.5811 127.032 18.3645 126.99 17.3809 126.836L17.0779 126.78L16.7283 126.701C16.6477 126.13 16.7069 125.548 16.9008 125.004C17.0815 124.546 17.3617 124.133 17.7213 123.796C18.0808 123.459 18.5106 123.206 18.9798 123.056C19.5621 122.842 20.1586 122.669 20.7651 122.538L21.0169 122.646L21.2779 122.757L21.6415 122.916C23.7531 123.825 26.2004 124.925 27.8598 125.377C28.3565 125.508 28.8633 125.597 29.3748 125.643L29.841 125.68C31.6356 125.801 33.4069 125.587 33.8778 125.615C34.3486 125.643 35.4953 126.734 36.2085 127.41C36.3703 127.564 36.5399 127.71 36.7166 127.848L36.7725 127.89L36.8145 127.927C37.0865 128.197 37.2744 128.54 37.3552 128.915C37.3919 129.04 37.4168 129.168 37.4298 129.297C37.4536 129.346 37.4709 129.398 37.481 129.451Z" fill="white" stroke="#604697" stroke-linecap="round" stroke-linejoin="round"/>
<path d="M31.9014 128.211C31.9014 128.211 32.9595 128.761 33.379 128.952C33.7986 129.143 33.7613 129.913 33.7613 129.913" fill="white"/>
<path d="M31.9014 128.211C31.9014 128.211 32.9595 128.761 33.379 128.952C33.7986 129.143 33.7613 129.913 33.7613 129.913" stroke="#604697" stroke-linecap="round" stroke-linejoin="round"/>
<path d="M33.0337 127.465C33.6994 127.94 34.3404 128.449 34.9542 128.99C35.0439 129.095 35.1023 129.223 35.1229 129.36C35.1435 129.497 35.1254 129.636 35.0707 129.763" fill="white"/>
<path d="M33.0337 127.465C33.6994 127.94 34.3404 128.449 34.9542 128.99C35.0439 129.095 35.1023 129.223 35.1229 129.36C35.1435 129.497 35.1254 129.636 35.0707 129.763" stroke="#604697" stroke-linecap="round" stroke-linejoin="round"/>
<path d="M35.8218 128.104C35.2702 127.513 34.6867 126.953 34.0737 126.426L35.8218 128.104Z" fill="white"/>
<path d="M35.8218 128.104C35.2702 127.513 34.6867 126.953 34.0737 126.426" stroke="#604697" stroke-linecap="round" stroke-linejoin="round"/>
<path d="M33.5003 99.5855C32.6566 101.362 30.9831 103.781 28.2888 103.571C25.436 103.329 23.8325 101.32 23.0913 100.047C24.1168 99.6554 25.1563 99.2545 26.0094 98.9189C26.0094 98.0519 25.9814 97.0124 25.8882 95.9822C25.8882 95.7585 25.8416 95.5161 25.8182 95.3063C25.7949 95.0965 25.767 94.9474 25.739 94.7749H31.1603C31.1603 94.7749 31.1276 94.9893 31.0857 95.3483C31.053 95.6699 31.0111 96.0988 30.9785 96.5835C30.9365 97.2268 30.9085 97.982 30.9272 98.6952C31.1882 98.7837 31.4539 98.8816 31.7196 98.9842L32.2324 99.1613C32.4375 99.2359 32.6379 99.3012 32.8524 99.3711L33.3185 99.5109C33.3806 99.5319 33.4413 99.5568 33.5003 99.5855Z" fill="white" stroke="#604697" stroke-linecap="round" stroke-linejoin="round"/>
<path d="M25.8179 95.2874C25.8179 95.2874 26.8294 97.9164 28.2978 98.3639C29.7661 98.8114 31.0946 95.348 31.0946 95.348C31.0946 95.348 29.0249 97.5575 28.2558 97.2125C27.4867 96.8676 25.8272 95.306 25.8272 95.306" fill="#604697"/>
<path d="M24.9463 80.7669C23.5764 82.0002 22.4902 83.5158 21.7626 85.2093C21.096 86.6077 20.532 88.2159 21.0447 89.6796C21.3516 90.4064 21.7857 91.0725 22.3266 91.6467C23.3335 92.854 24.7459 96.2243 25.7528 97.4316C25.818 95.2827 24.0187 91.8099 24.2098 90.0059C24.4413 88.6122 24.8995 87.2659 25.5663 86.0204C26.2444 84.387 27.1313 82.8484 28.2047 81.4429C28.8153 80.7063 30.7778 79.3965 28.7967 79.238C27.4822 79.1308 25.9392 79.9512 24.9463 80.7669Z" fill="#604697" stroke="#604697" stroke-linecap="round" stroke-linejoin="round"/>
<path d="M23.6785 88.0949C23.6785 88.0949 22.9839 86.7477 22.2521 88.0249C21.7253 88.9572 22.4851 90.4256 22.8114 90.971C22.9197 91.1262 23.0664 91.2507 23.2371 91.3324C23.4079 91.4141 23.5969 91.4502 23.7857 91.4371L23.6785 88.0949Z" fill="white" stroke="#604697" stroke-linecap="round" stroke-linejoin="round"/>
<path d="M32.8054 92.9613C32.36 93.8417 31.7796 94.6469 31.0853 95.348L30.6658 95.7815C29.7988 96.6392 28.8618 97.3197 28.2465 97.1799C27.7105 97.0727 27.0112 96.5226 26.326 95.8188C26.1535 95.6463 25.9857 95.4598 25.8179 95.2734C25.0718 94.4571 24.4313 93.5504 23.9114 92.5744C23.767 92.2084 23.6744 91.824 23.6364 91.4323C23.5187 90.2647 23.4782 89.0906 23.5152 87.9176C23.5152 87.5028 23.5152 87.1718 23.5152 86.9853C23.5152 86.1742 26.5544 83.3541 26.5544 83.3541C26.6363 83.324 26.7243 83.3144 26.8108 83.3261C27.3335 83.4213 27.8373 83.6007 28.3025 83.8575C30.1437 84.7525 32.7122 86.5285 32.8986 87.2044C33.183 88.188 33.0758 92.0849 32.8054 92.9613Z" fill="white" stroke="#604697" stroke-linecap="round" stroke-linejoin="round"/>
<path d="M26.7689 89.2229C26.7689 89.5492 26.6477 89.8149 26.5126 89.8149C26.3774 89.8149 26.2422 89.5585 26.2422 89.2229C26.2422 88.8873 26.3634 88.6216 26.5126 88.6216C26.6617 88.6216 26.7689 88.8966 26.7689 89.2229Z" fill="#604697"/>
<path d="M30.2416 88.6262C30.3907 88.6262 30.5119 88.8919 30.5119 89.2229C30.5119 89.5538 30.3907 89.8149 30.2416 89.8149C30.0924 89.8149 29.9712 89.5492 29.9712 89.2229C29.9712 88.8966 30.0924 88.6262 30.2416 88.6262Z" fill="#604697"/>
<path d="M25.0352 87.7546C25.0352 87.7546 25.5013 86.8223 27.1514 87.1067" stroke="#604697" stroke-linecap="round" stroke-linejoin="round"/>
<path d="M31.7755 87.7544C31.7755 87.7544 31.3093 86.8221 29.6592 87.1064" stroke="#604697" stroke-linecap="round" stroke-linejoin="round"/>
<path d="M28.7222 91.5023C28.8898 91.4918 29.0497 91.4277 29.1781 91.3194C29.3065 91.2111 29.3967 91.0644 29.4354 90.901C29.4354 90.901 28.531 89.5025 28.8061 88.1321" stroke="#604697" stroke-linecap="round" stroke-linejoin="round"/>
<path d="M23.091 84.8318C22.7154 85.3413 22.4315 85.9123 22.252 86.5192" stroke="white" stroke-linecap="round" stroke-linejoin="round"/>
<path d="M26.9884 81.1025C26.9884 81.1025 26.4709 81.9602 24.1915 83.7083C24.0446 83.8144 23.9045 83.9296 23.772 84.0532" stroke="white" stroke-linecap="round" stroke-linejoin="round"/>
<path d="M19.6789 108.433C19.3681 112.864 19.0573 117.299 18.7466 121.737V121.396" fill="#604697"/>
<path d="M19.6789 108.433C19.3681 112.864 19.0573 117.299 18.7466 121.737V121.396" stroke="#604697" stroke-linecap="round" stroke-linejoin="round"/>
<path d="M49.1253 93.8005C49.5466 93.6358 50.0019 93.5769 50.4513 93.629C50.9007 93.681 51.3305 93.8423 51.7031 94.0988C52.4465 94.6253 52.9876 95.3901 53.2367 96.2664C53.5338 97.139 53.504 98.0898 53.1528 98.942C52.9711 99.3621 52.6786 99.725 52.3067 99.9918C51.9348 100.259 51.4973 100.419 51.0411 100.457C50.3612 100.448 49.7041 100.21 49.1766 99.7811C47.4332 98.4759 46.5615 94.9052 49.1253 93.8005Z" fill="white" stroke="#604697" stroke-linecap="round" stroke-linejoin="round"/>
<path d="M52.9847 78.9165C52.9847 78.9725 52.9847 79.3407 53.0174 79.406C53.1805 80.1239 53.5255 81.9185 52.6538 82.2821C52.9847 83.4614 53.7958 91.1668 53.6886 95.0964C53.6607 96.2711 53.4556 97.6648 52.4021 98.1683C50.6261 99.012 48.9386 96.9563 49.1391 95.3481C49.4514 93.1526 49.3442 90.9151 49.6052 88.6962C49.8896 86.3935 50.4116 84.0348 49.8383 81.7833C49.6984 81.6295 48.8034 79.8535 48.5098 79.364C48.378 79.1549 48.2745 78.9292 48.2021 78.6928C48.0874 77.8884 48.0313 77.0767 48.0343 76.2642C48.3 75.7607 48.6449 76.2269 48.8267 76.5579C48.975 76.9614 49.0261 77.3942 48.9759 77.8211C48.9587 77.9255 48.9733 78.0327 49.0179 78.1288C49.057 78.1837 49.1099 78.2272 49.1713 78.2551C49.2327 78.2829 49.3004 78.294 49.3675 78.2873C49.9408 78.2033 49.9175 77.7232 49.9082 77.355C49.9082 76.1197 49.9082 74.8844 49.9082 73.6584C49.9082 73.4533 49.9735 72.8986 50.1692 72.88C50.365 72.8613 50.6587 73.0198 50.6867 73.6771C50.7193 74.4183 50.7193 76.7024 50.7193 76.7024C50.7378 76.7211 50.7608 76.7349 50.7861 76.7422C50.8114 76.7496 50.8381 76.7503 50.8638 76.7443C50.9104 76.7443 50.929 76.6604 50.9477 76.6138C51.2227 75.4671 51.5024 74.3204 51.7774 73.1737C51.8101 73.0385 52.0105 72.7588 52.155 72.7588C52.4999 72.7588 52.5093 73.1597 52.5279 73.2762C52.6491 73.8915 51.7868 76.4273 51.6422 77.0054C51.6422 77.1079 51.6422 77.2617 51.7495 77.2338L53.1013 74.5068C53.1639 74.3475 53.2626 74.2049 53.3896 74.09C53.5165 73.9752 53.6683 73.8913 53.8331 73.8449C53.8559 73.8377 53.8803 73.8377 53.903 73.8449C53.9274 73.859 53.9469 73.8801 53.959 73.9055C54.0895 74.1386 53.959 74.4602 53.8844 74.7166C53.8098 74.973 52.7983 76.8562 52.4394 77.616C52.3881 77.7232 52.3042 77.9656 52.4067 78.0821C52.5093 78.1987 52.6957 77.9749 52.7703 77.8211C52.9987 77.355 53.2131 76.9168 53.4229 76.46C53.4882 76.3248 53.5861 76.1337 53.7399 76.1663C54.6489 76.3621 53.3577 78.2686 52.9847 78.9165Z" fill="white" stroke="#604697" stroke-linecap="round" stroke-linejoin="round"/>
<path d="M50.4771 78.5154C50.9463 78.8871 51.3538 79.3308 51.6844 79.8299C51.8473 80.0808 51.9564 80.3629 52.0045 80.6582C52.0527 80.9535 52.0389 81.2556 51.964 81.5453C51.9414 81.6209 51.9118 81.6943 51.8755 81.7644" fill="white"/>
<path d="M50.4771 78.5154C50.9463 78.8871 51.3538 79.3308 51.6844 79.8299C51.8473 80.0808 51.9564 80.3629 52.0045 80.6582C52.0527 80.9535 52.0389 81.2556 51.964 81.5453C51.9414 81.6209 51.9118 81.6943 51.8755 81.7644" stroke="#604697" stroke-linecap="round" stroke-linejoin="round"/>
<path d="M37.3462 107.635C37.8395 108.63 38.1715 109.697 38.3298 110.796C38.4649 111.896 38.5069 112.758 37.7564 115.849" stroke="#604697" stroke-linecap="round" stroke-linejoin="round"/>
<path d="M26.8247 82.6548C26.7609 82.8454 26.7449 83.0487 26.7781 83.2468C26.8665 83.4962 27.0292 83.7126 27.2442 83.8668C28.7341 85.1725 30.4007 86.2615 32.1947 87.1018C32.4197 87.1604 32.6147 87.3009 32.7415 87.4958C32.8683 87.6907 32.9176 87.9259 32.8799 88.1553V91.7586C32.9028 92.1302 32.8666 92.5031 32.7727 92.8634C32.5117 93.7024 31.9336 94.3783 31.5141 95.1521C31.0876 95.8859 30.8715 96.7229 30.8895 97.5714C30.7729 96.6811 33.8868 94.9564 34.7305 91.451C34.847 90.9568 37.271 88.0155 35.8166 84.5614C34.4182 81.2471 32.218 79.8207 31.4768 79.6482C30.9737 79.5011 30.4428 79.476 29.9281 79.5749C29.4134 79.6738 28.9296 79.8939 28.5168 80.2169C27.7023 80.8235 27.1081 81.6796 26.8247 82.6548Z" fill="#604697" stroke="#604697" stroke-linecap="round" stroke-linejoin="round"/>
<path d="M29.8782 92.7562C29.6125 92.8121 29.3421 92.8634 29.0717 92.896C28.1394 93.0126 27.1419 92.8681 26.5312 92.1875C26.5779 92.7981 26.9974 95.1056 28.2513 95.1708C29.5052 95.2361 29.8782 92.7562 29.8782 92.7562Z" stroke="#604697" stroke-linecap="round" stroke-linejoin="round"/>
<path d="M28.666 81.2473C29.2037 82.4679 30.0603 83.521 31.1459 84.2959C31.9337 84.8599 32.8333 85.2655 33.5559 85.9087C34.4881 86.7618 35.0988 88.1136 34.7399 89.3396" stroke="white" stroke-linecap="round" stroke-linejoin="round"/>
<path d="M38.4084 100.079C37.5104 100.8 36.919 101.835 36.7536 102.974C36.5929 103.959 36.7141 104.969 37.1032 105.887" stroke="#604697" stroke-linecap="round" stroke-linejoin="round"/>
<path d="M21.0445 107.771C20.97 108.992 20.2101 110.05 19.4736 111.034L21.0445 107.771Z" fill="#604697"/>
<path d="M21.0445 107.771C20.97 108.992 20.2101 110.05 19.4736 111.034" stroke="#604697" stroke-linecap="round" stroke-linejoin="round"/>
<path d="M19.2271 117.108C19.5973 117.728 20.0929 118.263 20.682 118.681C21.2712 119.098 21.941 119.388 22.6485 119.532" stroke="#604697" stroke-linecap="round" stroke-linejoin="round"/>
<path d="M37.0614 117.835C37.0614 117.835 35.8074 119.7 31.5469 120.091" stroke="#604697" stroke-linecap="round" stroke-linejoin="round"/>
<path d="M161.871 101.496C161.871 101.496 145.626 106.531 142.568 102.555L142.983 82.2727H145.449L148.349 96.56L161.662 94.1221C161.662 94.1221 163.368 99.4081 161.871 101.496Z" fill="white"/>
<mask id="mask0_69_188" style="mask-type:luminance" maskUnits="userSpaceOnUse" x="142" y="82" width="21" height="23">
<path d="M161.871 101.496C161.871 101.496 145.626 106.531 142.568 102.555L142.983 82.2727H145.449L148.349 96.56L161.662 94.1221C161.662 94.1221 163.368 99.4081 161.871 101.496Z" fill="white"/>
</mask>
<g mask="url(#mask0_69_188)">
<path d="M155.028 102.205C154.097 102.575 153.208 103.044 152.376 103.603C153.476 103.953 154.651 103.51 155.751 103.16C157.204 102.714 158.685 102.366 160.184 102.116C160.254 101.701 159.718 100.755 159.508 100.387C159.126 99.7437 159.042 99.6877 158.399 100.005C157.229 100.592 156.231 101.613 155.028 102.205Z" fill="#A066FC"/>
</g>
<path d="M161.871 101.496C161.871 101.496 145.626 106.531 142.568 102.555L142.983 82.2727H145.449L148.349 96.56L161.662 94.1221C161.662 94.1221 163.368 99.4081 161.871 101.496Z" stroke="#604697" stroke-linecap="round" stroke-linejoin="round"/>
<path d="M160.277 102.028L163.13 119.592C163.055 130.975 168.486 129.264 172.257 129.232C176.615 129.194 183.23 124.873 179.986 118.147L181.235 93.8002L173.641 93.2222C171.138 93.0264 160.883 93.348 160.067 94.6579C157.951 98.0561 160.277 102.028 160.277 102.028Z" fill="white"/>
<mask id="mask1_69_188" style="mask-type:luminance" maskUnits="userSpaceOnUse" x="159" y="93" width="23" height="37">
<path d="M160.277 102.028L163.13 119.592C163.055 130.975 168.486 129.264 172.257 129.232C176.615 129.194 183.23 124.873 179.986 118.147L181.235 93.8002L173.641 93.2222C171.138 93.0264 160.883 93.348 160.067 94.6579C157.951 98.0561 160.277 102.028 160.277 102.028Z" fill="white"/>
</mask>
<g mask="url(#mask1_69_188)">
<path d="M160.725 103.478C162.419 109.887 166.482 115.415 172.094 118.944C171.486 118.848 170.893 118.677 170.327 118.436C169.758 118.191 169.12 118.156 168.528 118.338C168.385 118.39 168.253 118.469 168.141 118.571C168.029 118.674 167.938 118.798 167.873 118.935C167.809 119.073 167.772 119.222 167.765 119.374C167.758 119.526 167.781 119.678 167.833 119.821C167.969 120.039 168.155 120.222 168.374 120.357C169.3 121.007 170.312 121.525 171.381 121.895C170.443 121.799 169.496 121.871 168.584 122.109C168.416 122.92 169.32 123.508 170.034 123.904C171.172 124.575 172.146 125.49 172.886 126.584C170.383 126.59 167.883 126.733 165.395 127.013C165.068 127.087 164.725 127.054 164.417 126.92C164.094 126.68 163.877 126.324 163.811 125.927C163.256 123.988 162.934 121.99 162.85 119.974C162.804 118.842 162.85 117.7 162.701 116.576C162.581 115.69 162.416 114.811 162.207 113.942C161.483 110.58 160.928 107.191 160.543 103.776C160.37 103.79 160.725 103.478 160.725 103.478Z" fill="#A066FC"/>
<path d="M179.981 102.079C179.352 101.877 178.766 101.561 178.251 101.147C178.396 101.846 179.44 103.053 180.051 103.426C180.177 103.505 180.358 103.571 180.47 103.463C180.582 103.356 180.657 103.081 180.769 102.997L179.981 102.079Z" fill="#A066FC"/>
</g>
<path d="M160.277 102.028L163.13 119.592C163.055 130.975 168.486 129.264 172.257 129.232C176.615 129.194 183.23 124.873 179.986 118.147L181.235 93.8002L173.641 93.2222C171.138 93.0264 160.883 93.348 160.067 94.6579C157.951 98.0561 160.277 102.028 160.277 102.028Z" stroke="#604697" stroke-linecap="round" stroke-linejoin="round"/>
<path d="M165.829 92.8634C165.011 94.3594 164.618 96.0501 164.691 97.7532C164.69 97.9019 164.719 98.0492 164.775 98.1867C164.985 98.6016 165.558 98.6016 166.02 98.6529C167.814 98.8813 168.928 100.774 170.621 101.408C170.68 101.444 170.746 101.469 170.815 101.479C170.884 101.489 170.954 101.486 171.022 101.468C171.089 101.451 171.152 101.42 171.208 101.378C171.263 101.335 171.309 101.282 171.343 101.221C172.08 100.289 172.341 98.9792 173.347 98.3779C173.786 98.1168 174.34 98.0096 174.643 97.5994C174.988 97.1333 174.834 96.462 174.667 95.8933C174.392 94.961 174.084 93.9915 173.371 93.3435C172.611 92.7504 171.678 92.4229 170.714 92.4112C169.303 92.2958 167.883 92.4283 166.518 92.8028C166.537 92.9799 165.829 92.8634 165.829 92.8634Z" fill="#A066FC" stroke="#604697" stroke-linecap="round" stroke-linejoin="round"/>
<path d="M188.39 104.783C187.251 103.124 186.411 101.278 185.91 99.3289C185.727 98.3525 185.443 97.3979 185.062 96.4808C184.702 95.7723 184.182 95.1572 183.544 94.684C182.906 94.2108 182.166 93.8923 181.384 93.7538C181.05 93.6803 180.703 93.6964 180.377 93.8004C179.701 94.0568 179.403 94.8353 179.267 95.5438C178.975 97.0657 179.061 98.6361 179.519 100.117C179.832 101.124 183.584 108.423 186.045 111.253C185.831 109.826 187.472 105.058 188.39 104.783Z" fill="white"/>
<mask id="mask2_69_188" style="mask-type:luminance" maskUnits="userSpaceOnUse" x="179" y="93" width="10" height="19">
<path d="M188.39 104.783C187.251 103.124 186.411 101.278 185.91 99.3289C185.727 98.3525 185.443 97.3979 185.062 96.4808C184.702 95.7723 184.182 95.1572 183.544 94.684C182.906 94.2108 182.166 93.8923 181.384 93.7538C181.05 93.6803 180.703 93.6964 180.377 93.8004C179.701 94.0568 179.403 94.8353 179.267 95.5438C178.975 97.0657 179.061 98.6361 179.519 100.117C179.832 101.124 183.584 108.423 186.045 111.253C185.831 109.826 187.472 105.058 188.39 104.783Z" fill="white"/>
</mask>
<g mask="url(#mask2_69_188)">
<path d="M181.029 103.352L183.332 107.692C183.663 108.312 184.036 108.973 184.679 109.244C184.274 107.81 184.044 106.332 183.994 104.843C184.019 104.095 183.933 103.347 183.738 102.625C183.644 102.704 183.547 102.368 183.547 102.368C183.444 102.559 183.174 102.564 182.964 102.522C181.458 102.205 180.423 100.863 179.528 99.6133C179.412 100.032 179.393 100.471 179.474 100.898C179.555 101.325 179.733 101.728 179.995 102.075C179.995 102.075 180.955 103.207 181.029 103.352Z" fill="#A066FC"/>
</g>
<path d="M188.39 104.783C187.251 103.124 186.411 101.278 185.91 99.3289C185.727 98.3525 185.443 97.3979 185.062 96.4808C184.702 95.7723 184.182 95.1572 183.544 94.684C182.906 94.2108 182.166 93.8923 181.384 93.7538C181.05 93.6803 180.703 93.6964 180.377 93.8004C179.701 94.0568 179.403 94.8353 179.267 95.5438C178.975 97.0657 179.061 98.6361 179.519 100.117C179.832 101.124 183.584 108.423 186.045 111.253C185.831 109.826 187.472 105.058 188.39 104.783Z" stroke="#604697" stroke-linecap="round" stroke-linejoin="round"/>
<path d="M185.155 110.003C182.647 105.197 183.859 94.1219 183.785 92.3412L187.094 92.1641C187.425 92.1641 188.959 101.608 190.003 105.528C190.936 109.099 190.041 112.712 188.39 112.712C187.02 112.712 185.682 111.015 185.155 110.003Z" fill="white" stroke="#604697" stroke-linecap="round" stroke-linejoin="round"/>
<path d="M155.271 97.525C157.601 94.1222 162.174 93.8518 162.174 93.8518" stroke="#604697" stroke-linecap="round" stroke-linejoin="round"/>
<path d="M146.279 99.4313C146.984 98.7836 147.536 97.9876 147.896 97.1006L146.279 99.4313Z" fill="white"/>
<path d="M146.279 99.4313C146.984 98.7836 147.536 97.9876 147.896 97.1006" stroke="#604697" stroke-linecap="round" stroke-linejoin="round"/>
<path d="M163.596 115.513C164.925 117.69 173.53 120.016 176.961 119.518" stroke="#604697" stroke-linecap="round" stroke-linejoin="round"/>
<path d="M166.029 121.657C168.508 122.084 171.049 121.987 173.488 121.373" stroke="#604697" stroke-linecap="round" stroke-linejoin="round"/>
<path d="M177.445 100.536L179.086 102.76C179.31 103.063 179.622 103.403 179.99 103.319" stroke="#604697" stroke-linecap="round" stroke-linejoin="round"/>
<path d="M189.639 184.88C189.495 185.472 189.448 186.176 189.872 186.619C190.297 187.062 190.912 187.052 191.485 187.043L193.457 187.006C194.217 187.044 194.977 186.925 195.69 186.656C196.046 186.518 196.351 186.273 196.564 185.955C196.776 185.638 196.886 185.262 196.879 184.88C196.83 184.584 196.736 184.298 196.599 184.032C196.422 183.649 196.245 183.263 196.072 182.88C193.895 178.084 190.572 181.002 189.639 184.88Z" fill="white" stroke="#604697" stroke-linecap="round" stroke-linejoin="round"/>
<path d="M186.861 179.226C186.93 181.427 186.746 183.63 186.311 185.789C186.209 186.278 186.311 187.02 186.777 186.973C186.96 186.945 187.126 186.85 187.243 186.707C188.957 185.017 190.182 182.896 190.791 180.568C190.882 180.326 190.925 180.069 190.916 179.81C190.907 179.552 190.847 179.298 190.74 179.063C190.612 178.874 190.454 178.707 190.273 178.568C188.693 177.305 186.717 176.051 186.861 179.226Z" fill="white" stroke="#604697" stroke-linecap="round" stroke-linejoin="round"/>
<path d="M181.449 122.883C181.449 122.883 183.906 127.153 184.433 128.146C184.959 129.138 196.086 143.761 198.221 154.408C198.622 156.431 190.413 179.058 190.413 179.058L188.549 178.004C188.549 178.004 189.845 157.368 189.528 155.653C189.211 153.937 181.021 141.277 181.021 141.277C181.021 141.277 176.448 137.916 174.564 134.01L181.449 122.883Z" fill="#604697"/>
<path d="M181.715 133.581C181.715 133.581 180.316 136.695 180.316 137.142C180.316 137.59 188.008 161.895 190.269 167.516C191.698 171.137 192.958 174.841 194.049 178.629C194.049 178.629 194.925 179.781 194.263 180.96C193.602 182.139 190.968 182.913 190.427 181.86C189.886 180.806 184.558 175.334 182.311 169.889C180.065 164.445 176.904 155.345 175.105 151.957C172.748 147.626 170.656 143.157 168.84 138.574C166.579 132.789 164.267 126.552 164.267 126.552C165.206 126.636 166.15 126.663 167.092 126.631C169.311 126.555 171.508 126.166 173.618 125.475C178.531 123.825 180.657 120.664 180.657 120.664C180.657 120.664 181.873 123.96 182.19 124.599L181.715 133.581Z" fill="#604697"/>
<path d="M197.401 156.492C196.919 157.317 196.272 158.033 195.499 158.594" stroke="white" stroke-linecap="round" stroke-linejoin="round"/>
<path d="M198.002 155.135C197.932 155.363 197.848 155.585 197.75 155.802" stroke="white" stroke-linecap="round" stroke-linejoin="round"/>
<path d="M177.272 126.318C178.512 128.453 179.673 131.525 179.487 133.986C179.387 134.433 179.23 134.866 179.02 135.273" stroke="white" stroke-linecap="round" stroke-linejoin="round"/>
<path d="M169.768 128.691C169.903 129.88 170.085 131.856 169.824 133.022C169.603 134.214 168.919 135.27 167.922 135.958" stroke="white" stroke-linecap="round" stroke-linejoin="round"/>
<path d="M180.34 124.193C180.611 124.53 180.831 124.906 180.992 125.307C181.308 125.883 181.742 126.386 182.266 126.783C182.79 127.18 183.391 127.462 184.032 127.61" stroke="white" stroke-linecap="round" stroke-linejoin="round"/>
<path d="M176.382 128.957C178.028 132.555 179.286 136.163 181.841 142.279" stroke="white" stroke-linecap="round" stroke-linejoin="round"/>
<path d="M175.506 127.115C175.646 127.395 175.781 127.675 175.916 127.955" stroke="white" stroke-linecap="round" stroke-linejoin="round"/>
<path d="M189.201 154.646C189.955 156.099 190.915 157.437 192.049 158.618" stroke="white" stroke-linecap="round" stroke-linejoin="round"/>
<path d="M189.979 155.989C190.473 158.27 191.375 160.443 192.641 162.403" stroke="white" stroke-linecap="round" stroke-linejoin="round"/>
<path d="M178.391 156.105C174.76 148.358 170.886 140.671 166.127 128.957" stroke="white" stroke-linecap="round" stroke-linejoin="round"/>
<path d="M179.212 158.357C179.123 158.086 179.03 157.816 178.932 157.541" stroke="white" stroke-linecap="round" stroke-linejoin="round"/>
<path d="M191.765 182.176C190.833 180.96 184.037 171.455 182.349 167.148C181.226 164.277 180.377 162.249 179.552 159.387" stroke="white" stroke-linecap="round" stroke-linejoin="round"/>
<path d="M189.201 163.885L192.432 173.38" stroke="white" stroke-linecap="round" stroke-linejoin="round"/>
<path d="M187.025 92.1688L186.046 92.2481C184.805 92.4685 183.531 92.4095 182.317 92.0756C181.538 91.8845 179.734 91.3251 179.52 91.2878C178.984 91.1732 178.442 91.0861 177.898 91.0268C176.252 90.9289 177.086 90.3136 177.772 90.3415C178.676 90.3835 178.979 90.3648 179.674 90.4161C179.59 90.3695 179.333 90.3182 179.329 90.1178C179.329 89.6283 179.972 89.6516 179.972 89.6516C179.972 89.6516 179.268 89.3533 179.366 88.985C179.464 88.6168 179.935 88.5189 180.233 88.5469C180.233 88.5469 179.837 88.3558 179.855 88.1506C179.939 87.3582 181.566 87.3023 181.566 87.3023C181.173 87.1265 180.804 86.8992 180.471 86.6264C180.349 86.4953 180.264 86.3346 180.224 86.1602C180.215 86.0772 180.229 85.9933 180.263 85.9173C180.298 85.8414 180.353 85.7762 180.421 85.7285C180.49 85.6809 180.57 85.6526 180.653 85.6465C180.737 85.6404 180.82 85.6569 180.895 85.6941C181.316 85.9743 181.722 86.2762 182.111 86.5984C182.615 86.9573 183.198 87.1857 183.729 87.5074C184.247 87.9506 184.665 88.4988 184.955 89.1156C185.039 89.2461 187.025 92.1688 187.025 92.1688Z" fill="white" stroke="#604697" stroke-linecap="round" stroke-linejoin="round"/>
<path d="M142.983 82.2727V79.7042C142.977 78.4154 143.166 77.133 143.542 75.9005C143.757 75.2199 144.009 74.6279 144.237 74.5393C144.661 74.3855 144.848 76.1056 144.848 76.1056C144.529 74.7264 144.325 73.3232 144.237 71.9103C144.237 70.414 146.251 76.6277 146.251 76.6277L145.449 82.2727H142.983Z" fill="white" stroke="#604697" stroke-linecap="round" stroke-linejoin="round"/>
<path d="M145.417 78.0961C145.66 77.9082 145.842 77.6517 145.939 77.3596L145.417 78.0961Z" fill="white"/>
<path d="M145.417 78.0961C145.66 77.9082 145.842 77.6517 145.939 77.3596" stroke="#604697" stroke-linecap="round" stroke-linejoin="round"/>
<path d="M164.938 87.6287C165.809 89.0945 166.29 90.7585 166.337 92.4626C166.421 95.2968 169.702 99.2637 170.639 99.4548C171.576 99.6459 172.443 94.9798 172.401 93.5674C172.359 92.155 171.837 88.2534 171.837 88.2534C171.837 88.2534 167.348 84.8598 164.938 87.6287Z" fill="white" stroke="#604697" stroke-linecap="round" stroke-linejoin="round"/>
<path d="M166.258 91.3812C166.258 91.3812 170.56 97.25 172.248 91.2833C173.935 85.3167 167.516 92.9148 166.258 91.3812Z" fill="#604697"/>
<path d="M173.52 87.1623C173.292 90.6444 171.702 92.6022 169.87 92.9472C168.197 93.2548 165.75 91.5488 164.528 89.0176C164.435 88.957 162.948 87.9268 162.594 87.6751C162.409 87.5456 162.258 87.3733 162.154 87.1728C162.05 86.9722 161.996 86.7496 161.997 86.5237C162.009 86.307 162.085 86.0988 162.217 85.926C162.348 85.7532 162.528 85.6237 162.734 85.5542H162.776C162.985 85.5084 163.204 85.5246 163.405 85.6008C163.097 84.4121 162.845 83.2048 162.654 81.9882C162.743 79.1913 163.671 76.9072 166.654 76.6834C169.637 76.4597 172.131 78.1285 172.248 79.3311C172.331 80.2634 172.634 82.7293 172.905 85.2791C172.979 85.9411 173.571 86.3792 173.52 87.1623Z" fill="white" stroke="#604697" stroke-linecap="round" stroke-linejoin="round"/>
<path d="M172.248 83.135C172.248 83.135 170.327 82.254 170.654 85.1161C170.719 85.6801 171.768 86.5145 171.768 86.5145C171.768 86.5145 171.497 87.3583 170.998 87.3583" fill="white"/>
<path d="M172.248 83.135C172.248 83.135 170.327 82.254 170.654 85.1161C170.719 85.6801 171.768 86.5145 171.768 86.5145C171.768 86.5145 171.497 87.3583 170.998 87.3583" stroke="#604697" stroke-linecap="round" stroke-linejoin="round"/>
<path d="M168.537 84.1138C168.537 84.1138 167.558 83.5172 166.887 83.8854C166.537 84.0377 166.239 84.2888 166.029 84.6079" fill="white"/>
<path d="M168.537 84.1138C168.537 84.1138 167.558 83.5172 166.887 83.8854C166.537 84.0377 166.239 84.2888 166.029 84.6079" stroke="#604697" stroke-linecap="round" stroke-linejoin="round"/>
<path d="M167.978 85.7639C168.053 86.1089 167.978 86.4165 167.778 86.4585C167.577 86.5005 167.381 86.2487 167.311 85.9038C167.242 85.5588 167.311 85.2512 167.517 85.2092C167.722 85.1673 167.908 85.4143 167.978 85.7639Z" fill="#604697"/>
<path d="M171.763 84.7571C171.837 85.1021 171.763 85.4097 171.562 85.4517C171.362 85.4936 171.166 85.2419 171.096 84.9016C171.026 84.5614 171.096 84.2444 171.297 84.2071C171.497 84.1698 171.693 84.4169 171.763 84.7571Z" fill="#604697"/>
<path d="M162.431 78.3756C162.09 78.7096 161.853 79.1356 161.75 79.6016C161.471 80.5872 161.39 81.6184 161.512 82.6354C161.635 83.6525 161.958 84.6351 162.463 85.5263C162.774 85.4881 163.089 85.5007 163.395 85.5636C163.722 85.6475 164.141 86.2068 164.295 86.4959C164.43 86.804 164.507 87.1341 164.524 87.4701C164.449 86.5844 164.379 85.7034 164.304 84.8177C164.254 84.4636 164.27 84.1033 164.351 83.7549C164.579 83.0277 164.328 81.3123 164.393 79.7787C166.328 82.1421 169.138 81.7225 170.071 81.6433C171.469 81.5268 172.662 80.0957 172.588 79.0748C172.513 78.054 172.238 75.4249 167.628 75.1546C166.612 75.0465 165.588 75.2601 164.701 75.7652C164.419 75.9506 164.18 76.1935 164 76.478C163.819 76.7624 163.7 77.0819 163.652 77.4154C163.587 77.8442 163.75 77.8815 163.423 78.0913C163.097 78.301 162.752 78.1006 162.431 78.3756Z" fill="#604697" stroke="#604697" stroke-linecap="round" stroke-linejoin="round"/>
<path d="M168.537 88.999C168.537 88.999 169.222 89.7542 170.653 89.2554L168.537 88.999Z" fill="white"/>
<path d="M168.537 88.999C168.537 88.999 169.222 89.7542 170.653 89.2554" stroke="#604697" stroke-linecap="round" stroke-linejoin="round"/>
</svg>
